<svg version="1.1" id="Layer_1" xmlns="http://www.w3.org/2000/svg" xmlns:xlink="http://www.w3.org/1999/xlink" x="0px" y="0px"
	 width="100%" viewBox="0 0 225 225" enable-background="new 0 0 225 225" xml:space="preserve">
<path fill="#A9A4A1" opacity="1.000000" stroke="none" 
	d="
M226.000000,102.000000 
	C226.000000,109.687576 226.000000,117.375153 225.685699,125.763008 
	C223.276733,134.651886 221.182068,142.840485 218.723816,150.962646 
	C217.903748,149.047958 217.447296,147.199722 216.990845,145.351501 
	C216.627777,145.159134 216.264694,144.966766 215.901627,144.774399 
	C215.268768,146.236252 214.450150,147.647507 214.035858,149.168884 
	C212.420197,155.102112 213.315811,161.771912 209.089600,166.913956 
	C207.610245,168.713882 205.191422,169.775818 203.835724,171.636734 
	C199.944962,176.977463 196.378555,182.554474 192.320740,188.578903 
	C188.742905,183.695923 189.752258,179.697052 191.742355,176.037048 
	C193.152115,173.444336 192.767944,172.412369 190.001526,171.998688 
	C190.000000,172.000000 190.002548,171.996948 189.929932,171.628632 
	C188.238541,170.839813 186.619781,170.419296 184.787811,169.732391 
	C183.214783,168.374786 181.757950,167.382874 180.516830,166.170181 
	C178.413055,164.114594 175.920731,163.399033 174.046860,165.756439 
	C169.339417,171.678635 162.540543,171.761490 156.065826,173.072693 
	C153.550079,173.582169 150.786041,174.402817 148.908234,175.994095 
	C147.619812,177.085938 147.096222,179.818481 147.316132,181.690094 
	C147.460388,182.917953 149.378128,184.558289 150.780960,184.914825 
	C158.796997,186.952225 163.478958,192.445404 167.157654,199.380051 
	C168.389297,201.701828 170.011154,204.260910 173.671234,201.559479 
	C177.160919,198.983826 181.201172,197.154114 185.000595,195.413574 
	C185.001205,197.220444 185.000595,198.610214 184.849823,200.297470 
	C182.121307,202.357864 179.542984,204.120789 176.918076,205.566772 
	C176.132767,204.982376 175.394058,204.714920 174.655334,204.447479 
	C174.777924,205.315857 174.900513,206.184250 174.838287,207.333176 
	C163.125305,215.318848 150.651459,220.723511 137.132538,222.819153 
	C141.019836,220.688553 144.866272,219.104294 148.370544,216.960693 
	C152.689178,214.318924 157.971085,212.732269 161.081970,207.007416 
	C157.335251,207.007416 154.507111,206.799210 151.734787,207.102005 
	C150.492477,207.237717 148.572968,208.195389 148.333572,209.131241 
	C147.698578,211.613464 147.782349,214.331223 144.132233,213.973938 
	C141.726639,213.738464 139.347076,213.248383 136.946320,212.948608 
	C135.058670,212.712921 132.837219,211.874207 131.316422,212.548737 
	C124.984909,215.356979 118.993294,213.643188 113.083931,211.633453 
	C108.448334,210.056915 99.460960,212.069717 97.034027,215.372833 
	C96.089531,216.658325 94.170128,217.227539 92.347748,218.111969 
	C87.320290,215.437012 82.639885,212.773117 77.906189,209.854065 
	C77.801598,209.433380 77.750298,209.267883 78.100601,209.041687 
	C82.617790,208.002716 86.751884,207.093597 90.836632,206.000153 
	C91.932259,205.706863 93.626457,204.945251 93.715370,204.232620 
	C93.847061,203.177063 92.960838,201.835876 92.185028,200.877777 
	C91.603210,200.159256 90.554955,199.748901 89.642326,199.379074 
	C83.728004,196.982285 79.513283,193.567856 80.928040,186.233078 
	C81.188202,184.884247 80.998428,182.955765 80.189804,181.979309 
	C76.767670,177.846939 78.956520,175.623596 82.389671,173.215286 
	C83.841507,172.196838 85.713005,169.970795 85.435844,168.731506 
	C85.053658,167.022583 82.999474,165.451965 81.317329,164.345184 
	C80.011383,163.485947 78.144112,163.528427 76.585899,162.995865 
	C68.484680,160.227127 60.537193,157.312164 56.186275,148.943451 
	C55.294609,147.228394 53.438244,145.545670 51.639572,144.853134 
	C44.091774,141.946991 39.079910,136.882309 36.466217,129.212753 
	C36.027004,127.923912 34.284863,127.079102 33.099335,125.596451 
	C33.009399,116.447098 32.964874,107.730431 32.954220,98.683167 
	C33.268753,97.562698 33.549423,96.772827 34.200317,96.123825 
	C36.267521,96.221092 38.256180,96.717125 39.587711,95.997421 
	C41.255806,95.095795 42.387123,93.198639 43.745415,91.726830 
	C46.463120,88.781998 49.275505,85.916695 51.855442,82.855598 
	C53.320438,81.117378 54.664963,79.175308 55.598129,77.114227 
	C57.143383,73.701241 62.335224,72.395325 61.010250,67.323532 
	C59.604923,61.944149 58.679707,56.432728 57.128830,51.099941 
	C55.717506,46.247025 58.331028,42.017193 63.601608,40.917000 
	C65.125954,40.598808 66.755432,39.511711 67.780830,38.304821 
	C71.447594,33.989037 74.651855,29.257990 78.537498,25.164770 
	C79.629158,24.014793 82.457466,24.513399 84.489197,24.255817 
	C83.759369,26.244326 83.381279,28.478498 82.208504,30.157631 
	C80.819183,32.146812 78.168419,33.354275 77.075119,35.432316 
	C73.754379,41.744099 79.569099,45.004406 82.568298,48.840904 
	C84.394524,51.176964 87.616882,53.481274 90.433296,53.791420 
	C100.162346,54.862801 102.987228,57.365566 102.998634,66.817741 
	C102.999840,67.816368 102.941002,68.819580 103.014977,69.812843 
	C103.348221,74.287239 106.090836,75.910255 110.188820,74.276604 
	C111.821609,73.625694 113.634369,73.041519 115.356400,73.065254 
	C123.071877,73.171623 129.156082,77.561569 135.612839,81.017632 
	C138.539017,82.583900 141.635239,86.141205 145.022583,81.949249 
	C147.265915,79.173042 149.805588,76.224403 150.760437,72.931816 
	C151.765762,69.465179 151.360428,65.872108 147.635147,62.824986 
	C142.828857,58.893650 137.386688,58.941017 132.226044,59.282356 
	C127.759361,59.577805 125.596146,58.351337 123.672226,54.677990 
	C120.964806,49.508694 116.586945,45.761978 110.757378,45.217758 
	C107.307182,44.895668 104.963829,43.887394 102.695053,41.480042 
	C100.563843,39.218670 98.085472,37.252262 95.602051,35.363552 
	C92.776291,33.214474 92.413605,31.322689 95.575974,29.205629 
	C97.496956,27.919628 99.793228,26.806536 101.035828,25.005211 
	C102.248817,23.246807 102.935905,20.644781 102.699570,18.542906 
	C102.551392,17.225128 100.435219,15.443550 98.919228,15.092947 
	C94.347565,14.035659 89.637558,13.576571 85.109253,12.619905 
	C85.872818,11.600466 86.508614,10.845358 87.481125,10.055215 
	C88.878754,9.683549 89.939674,9.346917 91.293961,9.305063 
	C100.146072,10.733026 108.687904,12.025716 117.270355,12.935040 
	C121.861572,13.421485 125.068962,14.887341 126.263710,19.829020 
	C126.612068,21.269905 128.756348,23.434437 129.890762,23.325397 
	C134.599899,22.872757 139.265854,21.797733 143.891708,20.712597 
	C146.981674,19.987743 150.177399,19.247351 152.960129,17.807301 
	C155.874985,16.298893 158.352737,13.945878 161.378632,12.010061 
	C180.502502,20.123499 194.210999,34.167000 206.116882,50.150826 
	C213.624664,60.230141 218.557983,71.694168 221.848862,83.801048 
	C223.479538,89.800232 224.631470,95.929550 226.000000,102.000000 
M120.900612,176.256271 
	C121.206291,185.999084 121.217072,186.010468 128.512802,184.294510 
	C130.434906,175.684067 133.841187,172.996323 142.067551,172.933426 
	C147.779312,172.889755 155.151901,166.921860 156.607788,161.503067 
	C156.910263,160.377304 156.749039,158.704376 156.087708,157.813583 
	C152.785370,153.365372 149.274353,149.070084 145.781189,144.766068 
	C141.299271,139.243805 140.714508,131.979568 143.995850,125.412575 
	C145.724625,121.952774 145.951019,118.669014 142.413849,115.698624 
	C140.242874,113.875534 137.987122,111.436806 137.193466,108.839401 
	C135.543488,103.439423 132.555527,100.059074 127.028557,100.081863 
	C122.585403,100.100174 118.039062,100.379143 113.726555,101.365021 
	C105.540504,103.236427 101.367790,101.448273 96.744011,94.402916 
	C94.228325,90.569687 90.843857,87.190353 87.392700,84.122047 
	C84.317986,81.388412 80.266510,81.386665 76.277588,81.989624 
	C71.077393,82.775696 65.193001,82.596176 62.127579,87.651932 
	C60.311195,90.647667 58.708252,95.113358 59.658459,98.065369 
	C60.590809,100.961922 62.294922,105.691841 67.752632,105.100288 
	C71.466614,104.697723 72.779716,107.229073 73.117378,110.770081 
	C73.289474,112.574867 74.433647,115.561333 75.587944,115.795235 
	C84.329620,117.566582 88.318031,124.686501 93.393578,130.654495 
	C99.250671,137.541458 102.602661,146.725571 112.706566,149.726318 
	C115.876144,150.667648 117.162964,154.420715 114.416718,158.493271 
	C113.131294,160.399506 113.412132,164.232941 114.406036,166.593933 
	C115.778099,169.853241 118.495117,172.546356 120.900612,176.256271 
M159.325180,64.389519 
	C161.594360,69.027634 163.788666,73.704269 166.150879,78.294518 
	C169.418854,84.644859 174.237503,90.416161 169.369720,98.418938 
	C167.311264,101.803101 173.472931,108.173988 177.315216,107.370796 
	C184.340088,105.902298 188.820206,100.360909 192.511627,95.410110 
	C196.416611,90.172928 193.899948,81.332535 200.858047,76.906326 
	C200.948853,76.848557 200.905228,76.588539 200.935364,76.424957 
	C202.596588,67.409874 202.674133,58.723026 195.946243,51.360680 
	C195.059616,50.390423 194.096344,49.283669 193.738892,48.071896 
	C192.138748,42.647690 188.266403,40.901741 183.065613,40.981949 
	C181.409348,41.007488 179.455750,41.386456 178.141800,40.674419 
	C171.444641,37.045189 164.225723,37.330582 156.957687,36.854549 
	C147.675812,36.246620 143.104263,42.978954 136.929367,47.410061 
	C143.889252,53.983467 154.139023,55.130138 159.325180,64.389519 
M183.000381,120.917564 
	C182.710602,124.036636 182.132874,127.162590 182.207199,130.272964 
	C182.291611,133.805847 181.678513,139.138977 183.615631,140.506409 
	C189.213089,144.457733 191.667191,151.302505 198.352509,154.375244 
	C202.305862,156.192322 203.689743,155.188843 205.576935,152.661118 
	C206.561859,151.341904 207.188583,149.761261 208.104568,148.383453 
	C211.008926,144.014832 214.922623,140.041473 216.710556,135.265564 
	C220.103256,126.203011 223.435287,116.904991 222.059952,106.825470 
	C221.912735,105.746567 222.724167,104.556770 222.660263,103.443123 
	C222.398788,98.887032 221.970230,94.340530 221.508514,88.616768 
	C218.080521,93.630440 214.738541,96.888641 213.453979,100.819237 
	C211.928574,105.486671 210.032669,105.848053 206.297455,103.869980 
	C203.406616,102.339066 193.130783,103.380882 191.479309,105.807861 
	C188.379562,110.363159 185.810364,115.279488 183.000381,120.917564 
M94.576988,186.763519 
	C93.641174,188.440475 92.705368,190.117416 91.736938,191.852814 
	C97.262291,196.192490 101.839096,201.503983 107.618492,203.839188 
	C113.296684,206.133484 120.185333,205.670334 126.562714,205.932251 
	C133.670593,206.224152 141.790466,201.671341 142.441162,197.457092 
	C137.994904,197.457092 133.476730,196.918030 129.150177,197.598099 
	C124.117805,198.389114 119.956589,198.176819 116.957558,193.504913 
	C112.409462,186.419815 105.405823,184.793884 97.643669,185.054214 
	C96.761299,185.083817 95.899940,185.739883 94.576988,186.763519 
M165.144394,107.661087 
	C168.456848,100.837250 167.561707,97.578384 160.410095,95.831093 
	C157.708450,95.171021 152.899521,96.937607 151.377350,99.178268 
	C149.361862,102.145103 151.779175,105.588409 155.060257,107.693954 
	C158.247208,109.739098 161.293839,111.641464 165.144394,107.661087 
z"/>

<path fill="#77726F" opacity="1.000000" stroke="none" 
	d="
M15.978861,169.045868 
	C8.031265,156.244003 4.098643,142.067062 1.351580,127.181839 
	C1.000000,117.979103 1.000000,108.958214 0.999999,99.468658 
	C1.408180,98.319626 1.816361,97.639244 2.632963,97.035889 
	C6.935073,100.891273 9.933250,96.050659 13.472781,95.968109 
	C17.472031,95.874840 18.044912,92.864052 17.721281,89.536484 
	C17.406832,86.303329 17.005907,83.068535 16.913759,79.826759 
	C16.830009,76.880325 15.498329,76.283989 12.775466,76.484482 
	C11.255168,76.596420 9.649218,75.545090 8.081863,75.017960 
	C10.754285,69.102020 13.426707,63.186085 16.801487,57.103489 
	C19.322069,56.936829 21.140289,56.936829 22.318130,56.936829 
	C21.734894,54.800320 21.170666,52.733444 20.606438,50.666569 
	C20.606438,50.666569 20.647223,50.584644 20.951860,50.767410 
	C22.504585,51.633335 23.752672,52.316494 25.000774,53.420948 
	C24.524334,57.725159 26.190367,59.122501 30.117014,59.084682 
	C35.890423,59.029079 37.894081,62.626907 35.457630,67.675514 
	C30.909790,77.099159 26.464434,86.572311 21.989067,96.030846 
	C20.315796,99.567238 20.594278,102.582870 23.482826,104.420715 
	C27.036085,102.384979 29.978218,100.699364 32.920353,99.013756 
	C32.964874,107.730431 33.009399,116.447098 33.036285,125.583313 
	C33.018642,126.002853 32.893639,125.971802 32.528763,125.934036 
	C28.297951,124.813004 20.409626,127.628365 19.453438,131.807434 
	C18.530119,135.842834 18.788738,141.305298 20.902187,144.633163 
	C25.037464,151.144592 23.644718,159.831741 17.351057,161.599030 
	C16.860565,164.260895 16.419712,166.653381 15.978861,169.045868 
z"/>
<path fill="#A09B98" opacity="1.000000" stroke="none" 
	d="
M125.531731,0.999999 
	C131.344604,2.278481 136.767319,3.300942 142.013641,4.901576 
	C148.281174,6.813783 154.397751,9.220730 160.800629,11.687696 
	C158.352737,13.945878 155.874985,16.298893 152.960129,17.807301 
	C150.177399,19.247351 146.981674,19.987743 143.891708,20.712597 
	C139.265854,21.797733 134.599899,22.872757 129.890762,23.325397 
	C128.756348,23.434437 126.612068,21.269905 126.263710,19.829020 
	C125.068962,14.887341 121.861572,13.421485 117.270355,12.935040 
	C108.687904,12.025716 100.146072,10.733026 91.494644,9.008284 
	C95.423973,6.841081 99.485504,5.356472 103.445808,3.638521 
	C104.764008,3.066695 105.822678,1.896593 107.000000,0.999998 
	C113.021156,1.000000 119.042305,1.000000 125.531731,0.999999 
z"/>
<path fill="#B2ADAA" opacity="1.000000" stroke="none" 
	d="
M137.132538,222.819153 
	C132.802124,223.878922 128.664307,224.640427 124.263252,225.700958 
	C118.645073,226.000000 113.290138,226.000000 107.412979,225.639160 
	C105.864380,224.571960 104.909203,223.716339 103.798607,223.186554 
	C100.127571,221.435333 96.400414,219.801773 92.694809,218.123047 
	C94.170128,217.227539 96.089531,216.658325 97.034027,215.372833 
	C99.460960,212.069717 108.448334,210.056915 113.083931,211.633453 
	C118.993294,213.643188 124.984909,215.356979 131.316422,212.548737 
	C132.837219,211.874207 135.058670,212.712921 136.946320,212.948608 
	C139.347076,213.248383 141.726639,213.738464 144.132233,213.973938 
	C147.782349,214.331223 147.698578,211.613464 148.333572,209.131241 
	C148.572968,208.195389 150.492477,207.237717 151.734787,207.102005 
	C154.507111,206.799210 157.335251,207.007416 161.081970,207.007416 
	C157.971085,212.732269 152.689178,214.318924 148.370544,216.960693 
	C144.866272,219.104294 141.019836,220.688553 137.132538,222.819153 
z"/>
<path fill="#777371" opacity="1.000000" stroke="none" 
	d="
M92.347748,218.111969 
	C96.400414,219.801773 100.127571,221.435333 103.798607,223.186554 
	C104.909203,223.716339 105.864380,224.571960 106.945374,225.639160 
	C104.958336,226.000000 102.916664,226.000000 100.437500,226.000000 
	C95.586517,224.906281 91.170349,223.823242 86.759987,222.717056 
	C67.173759,217.804413 50.069733,208.382339 35.221756,193.844879 
	C34.860359,191.205536 33.062511,188.359100 36.389679,188.436554 
	C42.422306,193.579453 47.522247,198.803680 53.469982,202.750229 
	C59.370033,206.665115 66.145523,209.251038 72.493629,212.504578 
	C75.414261,214.001495 77.580231,214.206268 77.959480,210.109222 
	C82.639885,212.773117 87.320290,215.437012 92.347748,218.111969 
z"/>
<path fill="#6F6B68" opacity="1.000000" stroke="none" 
	d="
M106.571533,0.999998 
	C105.822678,1.896593 104.764008,3.066695 103.445808,3.638521 
	C99.485504,5.356472 95.423973,6.841081 91.201263,8.713507 
	C89.939674,9.346917 88.878754,9.683549 87.133217,9.995420 
	C80.924812,7.496903 87.427826,6.212253 87.014816,4.243804 
	C91.549629,3.399380 96.084450,2.554956 100.809631,1.355266 
	C102.714355,1.000000 104.428719,1.000000 106.571533,0.999998 
z"/>
<path fill="#9F9A97" opacity="1.000000" stroke="none" 
	d="
M120.768341,175.869125 
	C118.495117,172.546356 115.778099,169.853241 114.406036,166.593933 
	C113.412132,164.232941 113.131294,160.399506 114.416718,158.493271 
	C117.162964,154.420715 115.876144,150.667648 112.706566,149.726318 
	C102.602661,146.725571 99.250671,137.541458 93.393578,130.654495 
	C88.318031,124.686501 84.329620,117.566582 75.587944,115.795235 
	C74.433647,115.561333 73.289474,112.574867 73.117378,110.770081 
	C72.779716,107.229073 71.466614,104.697723 67.752632,105.100288 
	C62.294922,105.691841 60.590809,100.961922 59.658459,98.065369 
	C58.708252,95.113358 60.311195,90.647667 62.127579,87.651932 
	C65.193001,82.596176 71.077393,82.775696 76.277588,81.989624 
	C80.266510,81.386665 84.317986,81.388412 87.392700,84.122047 
	C90.843857,87.190353 94.228325,90.569687 96.744011,94.402916 
	C101.367790,101.448273 105.540504,103.236427 113.726555,101.365021 
	C118.039062,100.379143 122.585403,100.100174 127.028557,100.081863 
	C132.555527,100.059074 135.543488,103.439423 137.193466,108.839401 
	C137.987122,111.436806 140.242874,113.875534 142.413849,115.698624 
	C145.951019,118.669014 145.724625,121.952774 143.995850,125.412575 
	C140.714508,131.979568 141.299271,139.243805 145.781189,144.766068 
	C149.274353,149.070084 152.785370,153.365372 156.087708,157.813583 
	C156.749039,158.704376 156.910263,160.377304 156.607788,161.503067 
	C155.151901,166.921860 147.779312,172.889755 142.067551,172.933426 
	C133.841187,172.996323 130.434906,175.684067 128.512802,184.294510 
	C121.217072,186.010468 121.206291,185.999084 120.768341,175.869125 
z"/>
<path fill="#B2ADAA" opacity="1.000000" stroke="none" 
	d="
M84.981491,12.884240 
	C89.637558,13.576571 94.347565,14.035659 98.919228,15.092947 
	C100.435219,15.443550 102.551392,17.225128 102.699570,18.542906 
	C102.935905,20.644781 102.248817,23.246807 101.035828,25.005211 
	C99.793228,26.806536 97.496956,27.919628 95.575974,29.205629 
	C92.413605,31.322689 92.776291,33.214474 95.602051,35.363552 
	C98.085472,37.252262 100.563843,39.218670 102.695053,41.480042 
	C104.963829,43.887394 107.307182,44.895668 110.757378,45.217758 
	C116.586945,45.761978 120.964806,49.508694 123.672226,54.677990 
	C125.596146,58.351337 127.759361,59.577805 132.226044,59.282356 
	C137.386688,58.941017 142.828857,58.893650 147.635147,62.824986 
	C151.360428,65.872108 151.765762,69.465179 150.760437,72.931816 
	C149.805588,76.224403 147.265915,79.173042 145.022583,81.949249 
	C141.635239,86.141205 138.539017,82.583900 135.612839,81.017632 
	C129.156082,77.561569 123.071877,73.171623 115.356400,73.065254 
	C113.634369,73.041519 111.821609,73.625694 110.188820,74.276604 
	C106.090836,75.910255 103.348221,74.287239 103.014977,69.812843 
	C102.941002,68.819580 102.999840,67.816368 102.998634,66.817741 
	C102.987228,57.365566 100.162346,54.862801 90.433296,53.791420 
	C87.616882,53.481274 84.394524,51.176964 82.568298,48.840904 
	C79.569099,45.004406 73.754379,41.744099 77.075119,35.432316 
	C78.168419,33.354275 80.819183,32.146812 82.208504,30.157631 
	C83.381279,28.478498 83.759369,26.244326 84.489197,24.255817 
	C82.457466,24.513399 79.629158,24.014793 78.537498,25.164770 
	C74.651855,29.257990 71.447594,33.989037 67.780830,38.304821 
	C66.755432,39.511711 65.125954,40.598808 63.601608,40.917000 
	C58.331028,42.017193 55.717506,46.247025 57.128830,51.099941 
	C58.679707,56.432728 59.604923,61.944149 61.010250,67.323532 
	C62.335224,72.395325 57.143383,73.701241 55.598129,77.114227 
	C54.664963,79.175308 53.320438,81.117378 51.855442,82.855598 
	C49.275505,85.916695 46.463120,88.781998 43.745415,91.726830 
	C42.387123,93.198639 41.255806,95.095795 39.587711,95.997421 
	C38.256180,96.717125 36.267521,96.221092 34.230000,95.687378 
	C35.618420,78.891708 40.898983,63.832794 48.885708,49.693672 
	C55.489357,38.003033 63.946945,27.810884 74.472801,18.939270 
	C78.169685,16.809853 81.575592,14.847048 84.981491,12.884240 
z"/>
<path fill="#9F9A97" opacity="1.000000" stroke="none" 
	d="
M159.121094,64.071991 
	C154.139023,55.130138 143.889252,53.983467 136.929367,47.410061 
	C143.104263,42.978954 147.675812,36.246620 156.957687,36.854549 
	C164.225723,37.330582 171.444641,37.045189 178.141800,40.674419 
	C179.455750,41.386456 181.409348,41.007488 183.065613,40.981949 
	C188.266403,40.901741 192.138748,42.647690 193.738892,48.071896 
	C194.096344,49.283669 195.059616,50.390423 195.946243,51.360680 
	C202.674133,58.723026 202.596588,67.409874 200.935364,76.424957 
	C200.905228,76.588539 200.948853,76.848557 200.858047,76.906326 
	C193.899948,81.332535 196.416611,90.172928 192.511627,95.410110 
	C188.820206,100.360909 184.340088,105.902298 177.315216,107.370796 
	C173.472931,108.173988 167.311264,101.803101 169.369720,98.418938 
	C174.237503,90.416161 169.418854,84.644859 166.150879,78.294518 
	C163.788666,73.704269 161.594360,69.027634 159.121094,64.071991 
z"/>
<path fill="#9F9A97" opacity="1.000000" stroke="none" 
	d="
M33.081692,126.015991 
	C34.284863,127.079102 36.027004,127.923912 36.466217,129.212753 
	C39.079910,136.882309 44.091774,141.946991 51.639572,144.853134 
	C53.438244,145.545670 55.294609,147.228394 56.186275,148.943451 
	C60.537193,157.312164 68.484680,160.227127 76.585899,162.995865 
	C78.144112,163.528427 80.011383,163.485947 81.317329,164.345184 
	C82.999474,165.451965 85.053658,167.022583 85.435844,168.731506 
	C85.713005,169.970795 83.841507,172.196838 82.389671,173.215286 
	C78.956520,175.623596 76.767670,177.846939 80.189804,181.979309 
	C80.998428,182.955765 81.188202,184.884247 80.928040,186.233078 
	C79.513283,193.567856 83.728004,196.982285 89.642326,199.379074 
	C90.554955,199.748901 91.603210,200.159256 92.185028,200.877777 
	C92.960838,201.835876 93.847061,203.177063 93.715370,204.232620 
	C93.626457,204.945251 91.932259,205.706863 90.836632,206.000153 
	C86.751884,207.093597 82.617790,208.002716 77.781654,208.985580 
	C75.545692,207.988968 73.881767,207.155151 72.536926,205.961761 
	C48.529289,184.657501 36.317009,157.488037 32.893639,125.971802 
	C32.893639,125.971802 33.018642,126.002853 33.081692,126.015991 
z"/>
<path fill="#6F6B68" opacity="1.000000" stroke="none" 
	d="
M32.528763,125.934036 
	C36.317009,157.488037 48.529289,184.657501 72.536926,205.961761 
	C73.881767,207.155151 75.545692,207.988968 77.380051,209.046265 
	C77.750298,209.267883 77.801598,209.433380 77.906189,209.854065 
	C77.580231,214.206268 75.414261,214.001495 72.493629,212.504578 
	C66.145523,209.251038 59.370033,206.665115 53.469982,202.750229 
	C47.522247,198.803680 42.422306,193.579453 36.389679,188.436554 
	C33.062511,188.359100 34.860359,191.205536 34.995125,193.599701 
	C28.710970,185.880371 22.425516,177.798492 16.059462,169.381241 
	C16.419712,166.653381 16.860565,164.260895 17.351057,161.599030 
	C23.644718,159.831741 25.037464,151.144592 20.902187,144.633163 
	C18.788738,141.305298 18.530119,135.842834 19.453438,131.807434 
	C20.409626,127.628365 28.297951,124.813004 32.528763,125.934036 
z"/>
<path fill="#B3AEAB" opacity="1.000000" stroke="none" 
	d="
M183.010468,120.481621 
	C185.810364,115.279488 188.379562,110.363159 191.479309,105.807861 
	C193.130783,103.380882 203.406616,102.339066 206.297455,103.869980 
	C210.032669,105.848053 211.928574,105.486671 213.453979,100.819237 
	C214.738541,96.888641 218.080521,93.630440 221.508514,88.616768 
	C221.970230,94.340530 222.398788,98.887032 222.660263,103.443123 
	C222.724167,104.556770 221.912735,105.746567 222.059952,106.825470 
	C223.435287,116.904991 220.103256,126.203011 216.710556,135.265564 
	C214.922623,140.041473 211.008926,144.014832 208.104568,148.383453 
	C207.188583,149.761261 206.561859,151.341904 205.576935,152.661118 
	C203.689743,155.188843 202.305862,156.192322 198.352509,154.375244 
	C191.667191,151.302505 189.213089,144.457733 183.615631,140.506409 
	C181.678513,139.138977 182.291611,133.805847 182.207199,130.272964 
	C182.132874,127.162590 182.710602,124.036636 183.010468,120.481621 
z"/>
<path fill="#7C7774" opacity="1.000000" stroke="none" 
	d="
M74.181816,19.105881 
	C63.946945,27.810884 55.489357,38.003033 48.885708,49.693672 
	C40.898983,63.832794 35.618420,78.891708 33.859772,95.546509 
	C33.549423,96.772827 33.268753,97.562698 32.954220,98.683167 
	C29.978218,100.699364 27.036085,102.384979 23.482826,104.420715 
	C20.594278,102.582870 20.315796,99.567238 21.989067,96.030846 
	C26.464434,86.572311 30.909790,77.099159 35.457630,67.675514 
	C37.894081,62.626907 35.890423,59.029079 30.117014,59.084682 
	C26.190367,59.122501 24.524334,57.725159 24.948744,53.082260 
	C24.424824,51.401424 23.952950,50.480576 23.329256,49.263462 
	C24.624846,49.147976 25.439728,48.964153 26.236807,49.022705 
	C30.719387,49.351994 33.675392,48.237976 33.112015,42.802456 
	C32.991764,41.642277 34.068707,40.197571 34.907894,39.130779 
	C36.838326,36.676762 38.961807,34.374603 41.293270,31.871735 
	C43.052589,31.485201 44.525585,31.237753 46.052025,31.330357 
	C47.291653,31.445847 48.641846,31.509819 49.634830,30.945377 
	C53.375721,28.818943 56.215416,23.984001 61.545902,27.690248 
	C62.799892,25.659678 63.659985,23.828669 64.915245,22.328260 
	C67.307137,19.469252 70.356216,18.057806 74.181816,19.105881 
z"/>
<path fill="#A09B98" opacity="1.000000" stroke="none" 
	d="
M184.999390,194.996490 
	C181.201172,197.154114 177.160919,198.983826 173.671234,201.559479 
	C170.011154,204.260910 168.389297,201.701828 167.157654,199.380051 
	C163.478958,192.445404 158.796997,186.952225 150.780960,184.914825 
	C149.378128,184.558289 147.460388,182.917953 147.316132,181.690094 
	C147.096222,179.818481 147.619812,177.085938 148.908234,175.994095 
	C150.786041,174.402817 153.550079,173.582169 156.065826,173.072693 
	C162.540543,171.761490 169.339417,171.678635 174.046860,165.756439 
	C175.920731,163.399033 178.413055,164.114594 180.516830,166.170181 
	C181.757950,167.382874 183.214783,168.374786 184.858917,170.101501 
	C186.763016,171.156998 188.382782,171.576965 190.002548,171.996948 
	C190.002548,171.996948 190.000000,172.000000 189.999878,172.395325 
	C189.566696,174.163818 188.948730,175.508896 188.734940,176.915421 
	C188.073898,181.264359 187.566849,185.636734 186.993530,190.357330 
	C186.323624,192.143311 185.660202,193.571930 184.998383,195.000275 
	C185.000000,195.000000 184.999390,194.996490 184.999390,194.996490 
z"/>
<path fill="#B2ADAA" opacity="1.000000" stroke="none" 
	d="
M94.802917,186.434494 
	C95.899940,185.739883 96.761299,185.083817 97.643669,185.054214 
	C105.405823,184.793884 112.409462,186.419815 116.957558,193.504913 
	C119.956589,198.176819 124.117805,198.389114 129.150177,197.598099 
	C133.476730,196.918030 137.994904,197.457092 142.441162,197.457092 
	C141.790466,201.671341 133.670593,206.224152 126.562714,205.932251 
	C120.185333,205.670334 113.296684,206.133484 107.618492,203.839188 
	C101.839096,201.503983 97.262291,196.192490 91.736938,191.852814 
	C92.705368,190.117416 93.641174,188.440475 94.802917,186.434494 
z"/>
<path fill="#777371" opacity="1.000000" stroke="none" 
	d="
M74.472801,18.939270 
	C70.356216,18.057806 67.307137,19.469252 64.915245,22.328260 
	C63.659985,23.828669 62.799892,25.659678 61.545902,27.690248 
	C56.215416,23.984001 53.375721,28.818943 49.634830,30.945377 
	C48.641846,31.509819 47.291653,31.445847 46.096260,30.951006 
	C47.058937,27.366907 48.030819,24.502211 49.002701,21.637514 
	C60.116611,13.038836 72.939827,8.105396 86.642151,4.250843 
	C87.427826,6.212253 80.924812,7.496903 86.796509,10.030456 
	C86.508614,10.845358 85.872818,11.600466 85.109253,12.619907 
	C81.575592,14.847048 78.169685,16.809853 74.472801,18.939270 
z"/>
<path fill="#A29E9C" opacity="1.000000" stroke="none" 
	d="
M187.000000,190.000000 
	C187.566849,185.636734 188.073898,181.264359 188.734940,176.915421 
	C188.948730,175.508896 189.566696,174.163818 190.001404,172.394012 
	C192.767944,172.412369 193.152115,173.444336 191.742355,176.037048 
	C189.752258,179.697052 188.742905,183.695923 192.320740,188.578903 
	C196.378555,182.554474 199.944962,176.977463 203.835724,171.636734 
	C205.191422,169.775818 207.610245,168.713882 209.089600,166.913956 
	C213.315811,161.771912 212.420197,155.102112 214.035858,149.168884 
	C214.450150,147.647507 215.268768,146.236252 215.901627,144.774399 
	C216.264694,144.966766 216.627777,145.159134 216.990845,145.351501 
	C217.447296,147.199722 217.903748,149.047958 218.723816,150.962646 
	C212.904068,168.609848 203.490051,184.071365 189.320160,196.414276 
	C188.071625,197.501816 186.834167,198.602081 185.295792,199.848221 
	C185.000595,198.610214 185.001205,197.220444 185.000595,195.413574 
	C184.999390,194.996490 185.000000,195.000000 185.329605,194.856812 
	C187.045364,193.580750 188.431503,192.447861 189.817657,191.314987 
	C188.878433,190.876663 187.939224,190.438324 187.000000,190.000000 
z"/>
<path fill="#A09B98" opacity="1.000000" stroke="none" 
	d="
M164.964615,108.016098 
	C161.293839,111.641464 158.247208,109.739098 155.060257,107.693954 
	C151.779175,105.588409 149.361862,102.145103 151.377350,99.178268 
	C152.899521,96.937607 157.708450,95.171021 160.410095,95.831093 
	C167.561707,97.578384 168.456848,100.837250 164.964615,108.016098 
z"/>
<path fill="#A29E9C" opacity="1.000000" stroke="none" 
	d="
M189.929932,171.628632 
	C188.382782,171.576965 186.763016,171.156998 185.072128,170.367889 
	C186.619781,170.419296 188.238541,170.839813 189.929932,171.628632 
z"/>
<path fill="#A09B98" opacity="1.000000" stroke="none" 
	d="
M176.918091,205.566772 
	C176.510590,206.235458 176.056488,206.587173 175.312759,206.995758 
	C174.900513,206.184250 174.777924,205.315857 174.655334,204.447479 
	C175.394058,204.714920 176.132767,204.982376 176.918091,205.566772 
z"/>
<path fill="#72706E" opacity="1.000000" stroke="none" 
	d="
M7.898182,75.340385 
	C9.649218,75.545090 11.255168,76.596420 12.775466,76.484482 
	C15.498329,76.283989 16.830009,76.880325 16.913759,79.826759 
	C17.005907,83.068535 17.406832,86.303329 17.721281,89.536484 
	C18.044912,92.864052 17.472031,95.874840 13.472781,95.968109 
	C9.933250,96.050659 6.935073,100.891273 2.834101,96.778854 
	C4.322712,89.517464 6.018606,82.590141 7.898182,75.340385 
z"/>
<path fill="#777371" opacity="1.000000" stroke="none" 
	d="
M41.006947,32.010818 
	C38.961807,34.374603 36.838326,36.676762 34.907894,39.130779 
	C34.068707,40.197571 32.991764,41.642277 33.112015,42.802456 
	C33.675392,48.237976 30.719387,49.351994 26.236807,49.022705 
	C25.439728,48.964153 24.624846,49.147976 23.329256,49.263462 
	C23.952950,50.480576 24.424824,51.401424 24.948729,52.660957 
	C23.752672,52.316494 22.504585,51.633335 20.961338,50.722645 
	C26.863220,43.668781 33.060261,36.842453 39.623260,30.203297 
	C40.328468,30.930586 40.667706,31.470703 41.006947,32.010818 
z"/>
<path fill="#72706E" opacity="1.000000" stroke="none" 
	d="
M41.293270,31.871735 
	C40.667706,31.470703 40.328468,30.930586 39.945557,30.058867 
	C42.700325,27.095659 45.498764,24.464054 48.649956,21.734982 
	C48.030819,24.502211 47.058937,27.366907 46.042816,30.610954 
	C44.525585,31.237753 43.052589,31.485201 41.293270,31.871735 
z"/>
<path fill="#777371" opacity="1.000000" stroke="none" 
	d="
M20.324274,50.827766 
	C21.170666,52.733444 21.734894,54.800320 22.318130,56.936829 
	C21.140289,56.936829 19.322069,56.936829 17.067776,56.900948 
	C17.768505,54.906361 18.905308,52.947662 20.324274,50.827766 
z"/>
<path fill="#A9A4A1" opacity="1.000000" stroke="none" 
	d="
M186.993530,190.357330 
	C187.939224,190.438324 188.878433,190.876663 189.817657,191.314987 
	C188.431503,192.447861 187.045364,193.580750 185.328003,194.857086 
	C185.660202,193.571930 186.323624,192.143311 186.993530,190.357330 
z"/>
</svg>