<svg version="1.1" id="Layer_1" xmlns="http://www.w3.org/2000/svg" xmlns:xlink="http://www.w3.org/1999/xlink" x="0px" y="0px"
	 width="100%" viewBox="0 0 225 225" enable-background="new 0 0 225 225" xml:space="preserve">
<path fill="#A99888" opacity="1.000000" stroke="none" 
	d="
M226.000000,101.000000 
	C226.000000,109.354233 226.000000,117.708466 225.672073,126.738571 
	C223.305206,138.842865 220.656464,150.098389 215.611404,160.959747 
	C210.618729,168.553452 205.906036,175.941299 201.181793,182.932220 
	C202.473007,178.997574 203.775803,175.459869 205.078598,171.922165 
	C204.748947,171.665375 204.419312,171.408585 204.089661,171.151794 
	C198.803986,175.983063 193.533066,180.830643 188.226227,185.638550 
	C185.680771,187.944687 183.246872,191.792496 180.447220,192.103394 
	C174.667664,192.745209 171.115723,196.786209 166.393768,198.865585 
	C163.420990,200.174698 160.261627,201.678406 157.114197,201.861572 
	C145.714081,202.525024 134.274521,203.075577 122.868752,202.821106 
	C117.733070,202.706512 112.393097,201.191391 107.607834,199.200974 
	C103.634468,197.548248 101.036011,198.954712 98.714050,201.262115 
	C97.572762,202.396255 96.806953,205.964600 97.383804,206.392548 
	C99.244644,207.773056 101.771141,208.747864 104.107140,208.906631 
	C111.936111,209.438736 119.161949,211.414551 125.705330,215.893814 
	C127.285217,216.975327 129.356369,217.397644 131.252716,217.946533 
	C135.490173,219.173050 139.759811,220.288345 143.637344,221.612762 
	C138.851044,222.610626 134.443756,223.444672 129.762878,224.045349 
	C128.154007,223.191864 126.873566,222.369156 125.473045,221.990005 
	C121.448547,220.900513 117.388573,219.931702 113.318253,219.024445 
	C108.025452,217.844696 105.448288,221.490524 102.519623,225.068420 
	C101.464417,225.016098 100.760468,224.968826 99.928970,224.682251 
	C99.523758,223.993988 99.246094,223.544998 98.835999,222.784790 
	C97.137642,221.643478 95.571709,220.813370 93.805222,219.792969 
	C93.104462,219.381424 92.604279,219.160172 91.854660,218.760651 
	C90.836914,218.317612 90.068611,218.052795 89.061203,217.571442 
	C87.563293,216.552338 86.304489,215.749802 84.796280,214.850464 
	C84.378082,214.696030 84.209297,214.638382 83.902863,214.349365 
	C83.170151,213.747971 82.575066,213.377930 81.740128,212.778320 
	C76.037102,207.971741 70.573914,203.394745 65.087654,198.610092 
	C65.064583,198.402435 65.011841,197.987915 65.144066,197.657486 
	C65.132500,195.555862 65.290680,193.692108 64.782013,192.032776 
	C63.725254,188.585464 62.028488,185.322052 61.112324,181.846619 
	C59.448547,175.535172 58.253819,169.100754 56.631298,162.777176 
	C56.353497,161.694473 54.922829,160.907562 54.027145,159.659760 
	C54.026676,158.903198 54.023800,158.470856 54.348251,157.920761 
	C58.121895,153.537704 61.568218,149.272415 65.465683,145.006165 
	C67.083450,145.002029 68.250626,145.021317 69.416573,144.991821 
	C74.795937,144.855743 76.345642,142.792526 74.279488,137.716400 
	C71.757515,131.520432 72.511375,126.486549 78.120911,122.382874 
	C82.107643,119.466377 83.832504,115.197769 82.848373,110.496811 
	C81.621056,104.634216 81.699829,98.320740 77.005066,93.455093 
	C73.790237,90.123253 73.311447,85.835518 74.756699,81.312790 
	C75.801674,78.042694 73.313667,74.134804 70.340584,73.039177 
	C66.849892,71.752808 63.138073,70.512207 60.232582,68.313133 
	C54.978683,64.336617 49.700935,61.399399 42.942886,62.586544 
	C48.964634,52.491978 54.263889,42.269825 61.051319,33.155964 
	C67.787788,24.110542 76.315628,16.543530 87.322128,12.132857 
	C100.423355,12.529625 113.163567,12.761936 125.904297,12.794808 
	C126.862221,12.797280 128.648239,11.340090 128.616196,10.625720 
	C128.544159,9.019766 127.990273,6.561882 126.884811,6.042636 
	C123.796150,4.591878 120.327415,3.950282 117.006561,2.657756 
	C117.002953,1.884139 117.001480,1.442070 117.000000,1.000000 
	C119.370560,1.000000 121.741112,1.000000 124.791595,1.307866 
	C128.629822,2.176529 131.788116,2.737326 134.972916,3.648582 
	C136.058304,5.573771 136.819763,7.514277 138.227997,8.659424 
	C144.080353,13.418489 150.623062,10.923343 157.341293,10.108282 
	C164.487091,14.040830 171.277390,17.916479 178.056274,22.206516 
	C178.929779,25.891804 178.965988,29.868599 180.935913,32.237076 
	C182.946228,34.654076 186.856155,35.491119 190.040985,37.360153 
	C190.917694,38.980156 191.796509,40.207809 192.439163,41.548645 
	C195.164169,47.234138 194.122757,49.240334 188.068192,50.348415 
	C187.318329,50.485653 186.648438,51.059834 185.948517,51.427841 
	C190.758194,61.289509 190.725143,61.278076 186.715576,72.869133 
	C185.430328,76.584564 185.589325,79.941566 189.065857,82.743195 
	C190.822739,84.159004 192.439407,86.114746 193.332306,88.168579 
	C196.090652,94.513290 198.556244,100.990807 200.959198,107.482018 
	C202.063339,110.464706 204.002533,111.383369 206.789612,110.368088 
	C210.183334,109.131828 213.578964,107.820686 216.787521,106.178093 
	C220.230057,104.415726 221.768982,105.284622 222.020950,109.041023 
	C222.079208,109.909424 222.438614,110.757622 222.659454,111.615120 
	C223.172440,111.557053 223.685440,111.498985 224.198441,111.440918 
	C223.804337,107.144958 223.310349,102.854958 223.054062,98.550797 
	C222.903305,96.018768 223.130051,93.464256 223.408539,91.227722 
	C224.420029,94.690384 225.210007,97.845192 226.000000,101.000000 
M168.759369,45.271255 
	C168.069382,43.737663 167.756714,41.805737 166.627380,40.735966 
	C159.954208,34.414726 151.255142,33.222527 142.702988,32.235291 
	C138.779877,31.782417 135.872833,30.563990 133.136749,27.760424 
	C131.703079,26.291384 129.248230,25.451773 127.128578,25.110643 
	C124.367058,24.666212 121.476143,24.898678 118.648788,25.021383 
	C114.814491,25.187786 111.837608,24.069510 110.011444,20.408714 
	C109.589653,19.563175 108.332047,18.589285 107.469376,18.598909 
	C102.482224,18.654564 97.466461,18.723038 92.523819,19.315939 
	C89.032494,19.734745 86.867760,21.637489 87.622520,25.873289 
	C88.466492,30.609806 89.093651,35.441811 89.142998,40.239174 
	C89.167824,42.652771 88.424751,45.919613 86.772942,47.339962 
	C82.528618,50.989563 82.605247,54.824764 84.276962,59.465820 
	C84.901314,61.199116 85.365311,63.435951 84.812233,65.075424 
	C81.147949,75.937416 83.205124,85.507263 90.620308,94.088654 
	C91.921272,95.594223 93.334801,97.064735 94.317604,98.769753 
	C96.214539,102.060661 98.318802,102.155334 101.785812,100.806419 
	C109.427017,97.833443 117.356537,95.608215 125.115715,92.925468 
	C126.481789,92.453148 128.646469,91.247581 128.652405,90.368538 
	C128.697647,83.674141 130.971329,76.525070 126.426712,70.513832 
	C122.997009,65.977287 122.859215,61.006557 123.029083,55.800976 
	C123.153549,51.986782 125.602364,50.098103 128.846420,49.256508 
	C132.986694,48.182423 137.195755,47.186558 141.436066,46.753414 
	C144.081177,46.483223 146.972427,46.902870 149.519897,47.730816 
	C156.174286,49.893547 162.425827,49.276211 168.759369,45.271255 
M160.519073,121.094711 
	C160.791550,117.671982 160.185165,113.844322 161.533768,110.917435 
	C163.795456,106.008820 161.587387,102.633286 159.340790,98.934525 
	C158.457535,97.480370 157.575821,96.025284 156.693405,94.570625 
	C158.579361,93.723801 160.503693,92.097801 162.343445,92.188454 
	C166.477890,92.392181 169.259628,90.518784 171.926361,87.854637 
	C174.380692,85.402687 177.269516,83.310852 179.348114,80.587982 
	C180.446548,79.149094 180.964493,76.480751 180.445847,74.758583 
	C179.389252,71.250130 171.794220,67.709084 167.821625,68.146599 
	C161.750061,68.815285 155.678009,69.540436 149.586365,69.940361 
	C146.513397,70.142113 145.302246,71.251053 144.914581,74.399353 
	C144.421402,78.404678 143.192383,82.329308 142.154343,86.255348 
	C140.512482,92.465080 138.564743,98.602463 137.174240,104.865440 
	C136.698547,107.008072 136.774734,109.899719 137.875504,111.642937 
	C140.658569,116.050232 140.096558,120.519135 139.480637,125.158401 
	C139.240204,126.969330 138.937317,128.811066 139.028427,130.620346 
	C139.509918,140.182449 134.358704,147.717911 129.911072,155.386169 
	C127.612389,159.349365 127.091255,163.836060 130.960205,165.903976 
	C136.412094,168.817947 142.369980,170.874100 148.280304,172.771164 
	C149.558426,173.181381 151.990219,171.754883 153.139755,170.491302 
	C157.213272,166.013611 160.598587,160.864197 164.931091,156.680084 
	C169.651489,152.121384 170.715469,148.571518 166.541672,143.369598 
	C162.381821,138.185059 159.996017,132.705185 160.956635,125.968369 
	C161.140289,124.680496 160.804443,123.318550 160.519073,121.094711 
M187.166153,159.619156 
	C188.776398,156.068695 191.065628,152.658813 191.836761,148.934601 
	C192.976273,143.431198 194.820648,141.898941 200.355682,143.671280 
	C201.571274,144.060486 202.963074,144.659897 204.097260,144.398087 
	C207.297226,143.659439 211.440292,134.894913 210.841934,130.330734 
	C210.233673,125.690979 207.389145,123.519981 202.787643,123.080017 
	C198.554947,122.675323 194.370392,121.776413 190.139435,121.338806 
	C188.997803,121.220726 187.019363,121.683510 186.722549,122.409889 
	C186.020279,124.128456 185.290359,127.423279 185.988708,127.871140 
	C190.821838,130.970612 186.962814,132.874161 185.495636,135.338409 
	C184.353424,137.256821 183.238419,139.439926 183.002213,141.602692 
	C182.292343,148.102554 181.300308,154.494095 176.756012,159.512238 
	C174.201096,162.333557 174.366592,164.918915 176.282852,168.956604 
	C180.010361,165.822159 183.363785,163.002274 187.166153,159.619156 
M109.586258,160.025696 
	C108.040398,160.028488 106.494545,160.031296 104.948685,160.034088 
	C105.271584,163.108536 104.590256,166.864487 106.120621,169.119492 
	C109.605576,174.254608 114.061920,178.761368 118.366203,183.292969 
	C119.888130,184.895279 121.974693,186.334152 124.062668,186.913467 
	C125.887619,187.419830 128.905182,187.322815 129.872101,186.190811 
	C130.845093,185.051682 130.508316,182.064560 129.760040,180.306671 
	C125.867973,171.163223 117.250565,166.517975 109.586258,160.025696 
M75.816238,176.494339 
	C82.798935,180.708069 87.334618,179.218826 87.693558,172.335587 
	C87.853783,169.263031 87.658447,165.797531 86.347473,163.140427 
	C85.287735,160.992538 82.434486,158.739578 80.153770,158.477966 
	C78.101280,158.242538 74.256241,160.261703 73.810562,161.967865 
	C72.606834,166.575974 71.419426,171.711548 75.816238,176.494339 
M177.527634,187.143860 
	C178.389954,186.380402 179.476212,185.757065 180.062057,184.820633 
	C180.939407,183.418304 181.465149,181.795990 182.140442,180.267242 
	C180.542358,180.499176 178.911667,180.600082 177.352371,180.987915 
	C172.885742,182.098846 168.822693,185.585144 163.716553,182.905640 
	C162.836792,182.443970 161.217651,183.102539 160.050369,183.538788 
	C157.747192,184.399536 155.495392,185.412659 153.273041,186.469330 
	C151.936646,187.104736 150.695862,187.941208 149.412109,188.687317 
	C149.468185,189.203186 149.524277,189.719055 149.580353,190.234924 
	C151.870697,190.814423 154.130615,191.641983 156.457047,191.927399 
	C163.751434,192.822311 170.654648,191.628998 177.527634,187.143860 
M161.629013,21.025824 
	C160.064285,20.096260 158.564713,19.021187 156.914627,18.282206 
	C155.542831,17.667856 153.810455,16.870071 152.588272,17.257925 
	C151.774368,17.516201 150.914337,19.934366 151.264053,20.992998 
	C151.742264,22.440514 153.125946,23.989416 154.521286,24.648525 
	C157.272217,25.947971 160.252441,26.862082 163.226791,27.552145 
	C165.109406,27.988924 167.208664,28.026283 169.100845,27.665804 
	C170.072647,27.480669 170.803528,26.030998 171.643295,25.152784 
	C170.778976,24.350321 170.042328,23.162277 169.023956,22.825085 
	C166.855850,22.107206 164.541428,21.831236 161.629013,21.025824 
M62.987015,53.837536 
	C64.729057,53.276955 66.499336,52.780792 68.166763,52.049980 
	C68.322884,51.981552 67.829506,50.431232 67.637695,49.568947 
	C66.123795,50.336868 64.579994,51.054119 63.121132,51.915276 
	C62.827766,52.088455 62.856976,52.808109 62.987015,53.837536 
M213.001740,158.429779 
	C213.456039,156.901367 213.910324,155.372955 214.364624,153.844543 
	C213.781067,153.654465 213.197510,153.464371 212.613953,153.274292 
	C211.482178,156.048843 210.350403,158.823395 209.218628,161.597946 
	C209.589981,161.829483 209.961334,162.061035 210.332687,162.292587 
	C211.136078,161.214752 211.939468,160.136932 213.001740,158.429779 
M206.472672,169.504730 
	C206.472672,169.504730 206.514099,169.489120 206.472672,169.504730 
z"/>
<path fill="#74695E" opacity="1.000000" stroke="none" 
	d="
M86.961235,11.918677 
	C76.315628,16.543530 67.787788,24.110542 61.051319,33.155964 
	C54.263889,42.269825 48.964634,52.491978 42.970474,62.611267 
	C42.927616,62.994007 42.981129,62.944595 42.779228,63.159012 
	C42.359753,63.916855 42.142178,64.460289 41.729351,65.006622 
	C41.534103,65.009529 41.143829,65.023811 40.794891,65.113693 
	C36.050461,67.237839 31.595335,69.154251 27.276314,71.339653 
	C22.988716,73.509148 20.032671,73.407776 19.047506,67.820885 
	C18.882162,66.883217 17.369045,66.183205 16.478680,65.373383 
	C15.804200,66.354340 14.804097,67.246971 14.510056,68.331108 
	C13.016637,73.837410 15.249360,78.679176 19.825331,81.339516 
	C21.012884,82.029938 21.955997,83.830482 22.239515,85.272842 
	C23.916906,93.806427 22.158049,102.688072 25.744240,111.177307 
	C27.459562,115.237823 26.668407,120.357185 27.099804,125.370117 
	C27.790117,129.494659 28.393112,133.246048 28.747288,136.998520 
	C28.498470,136.999603 28.000839,137.003052 27.642937,137.065521 
	C21.677454,139.302933 25.989698,144.813660 23.032984,149.705109 
	C19.351421,143.733185 16.238270,138.679230 13.119895,133.628494 
	C12.522488,132.660904 12.108983,131.431244 11.257234,130.797394 
	C8.821767,128.984985 9.497787,127.219887 10.274326,124.740364 
	C10.871424,122.833839 9.825102,120.378532 9.317514,118.212280 
	C9.266165,117.993141 7.810510,117.872719 7.157674,118.114510 
	C6.788429,118.251282 6.397562,119.356026 6.577888,119.793159 
	C8.620050,124.743713 4.382905,127.488670 2.506180,130.842072 
	C1.872921,129.375793 1.436461,128.187897 1.000000,127.000000 
	C1.000000,117.979103 1.000000,108.958214 1.355910,99.308212 
	C2.116867,96.900658 2.548455,95.127769 2.923072,93.342934 
	C11.957377,50.299606 37.149963,21.309479 78.664268,6.772205 
	C85.896446,4.239677 93.544189,2.893898 101.000000,1.000000 
	C102.714355,1.000000 104.428719,1.000000 106.453156,1.308992 
	C105.218002,2.451076 103.672768,3.284169 101.783829,4.220285 
	C96.613831,6.855098 91.787529,9.386888 86.961235,11.918677 
M46.513203,38.625446 
	C46.493565,40.307762 46.424496,41.993851 46.552155,43.664913 
	C46.561916,43.792702 48.375324,44.158627 48.649830,43.829533 
	C50.494789,41.617668 52.915352,39.446663 53.588852,36.856621 
	C54.013752,35.222633 51.734753,32.885536 50.668617,30.863829 
	C49.466015,32.393799 48.169228,33.862202 47.108433,35.484879 
	C46.699928,36.109760 46.828171,37.085529 46.513203,38.625446 
M36.488655,54.005989 
	C37.154148,52.684635 37.819641,51.363277 38.485130,50.041924 
	C38.079525,49.588909 37.673920,49.135891 37.268314,48.682877 
	C35.849224,49.535156 33.698631,50.072617 33.167389,51.306999 
	C32.145500,53.681427 28.354315,55.862309 31.912191,59.654926 
	C33.417988,57.790810 34.730110,56.166451 36.488655,54.005989 
z"/>
<path fill="#B1A395" opacity="1.000000" stroke="none" 
	d="
M102.870880,225.073456 
	C105.448288,221.490524 108.025452,217.844696 113.318253,219.024445 
	C117.388573,219.931702 121.448547,220.900513 125.473045,221.990005 
	C126.873566,222.369156 128.154007,223.191864 129.464691,224.218201 
	C127.960052,225.082932 126.480026,225.541473 125.000000,226.000000 
	C117.979050,226.000000 110.958107,226.000000 103.464172,225.764481 
	C102.991196,225.528961 102.870880,225.073456 102.870880,225.073456 
z"/>
<path fill="#9F9285" opacity="1.000000" stroke="none" 
	d="
M102.127533,4.117261 
	C103.672768,3.284169 105.218002,2.451076 106.881622,1.308992 
	C110.030594,1.000000 113.061188,1.000000 116.545891,1.000000 
	C117.001480,1.442070 117.002953,1.884139 116.593353,2.675631 
	C111.497360,3.389123 106.812447,3.753192 102.127533,4.117261 
z"/>
<path fill="#E2DDD8" opacity="1.000000" stroke="none" 
	d="
M102.519623,225.068420 
	C102.870880,225.073456 102.991196,225.528961 102.995598,225.764481 
	C102.250000,226.000000 101.500000,226.000000 100.375000,226.000000 
	C100.011215,225.820374 100.022438,225.640747 100.045090,225.191315 
	C100.760468,224.968826 101.464417,225.016098 102.519623,225.068420 
z"/>
<path fill="#B4A496" opacity="1.000000" stroke="none" 
	d="
M168.636261,45.640968 
	C162.425827,49.276211 156.174286,49.893547 149.519897,47.730816 
	C146.972427,46.902870 144.081177,46.483223 141.436066,46.753414 
	C137.195755,47.186558 132.986694,48.182423 128.846420,49.256508 
	C125.602364,50.098103 123.153549,51.986782 123.029083,55.800976 
	C122.859215,61.006557 122.997009,65.977287 126.426712,70.513832 
	C130.971329,76.525070 128.697647,83.674141 128.652405,90.368538 
	C128.646469,91.247581 126.481789,92.453148 125.115715,92.925468 
	C117.356537,95.608215 109.427017,97.833443 101.785812,100.806419 
	C98.318802,102.155334 96.214539,102.060661 94.317604,98.769753 
	C93.334801,97.064735 91.921272,95.594223 90.620308,94.088654 
	C83.205124,85.507263 81.147949,75.937416 84.812233,65.075424 
	C85.365311,63.435951 84.901314,61.199116 84.276962,59.465820 
	C82.605247,54.824764 82.528618,50.989563 86.772942,47.339962 
	C88.424751,45.919613 89.167824,42.652771 89.142998,40.239174 
	C89.093651,35.441811 88.466492,30.609806 87.622520,25.873289 
	C86.867760,21.637489 89.032494,19.734745 92.523819,19.315939 
	C97.466461,18.723038 102.482224,18.654564 107.469376,18.598909 
	C108.332047,18.589285 109.589653,19.563175 110.011444,20.408714 
	C111.837608,24.069510 114.814491,25.187786 118.648788,25.021383 
	C121.476143,24.898678 124.367058,24.666212 127.128578,25.110643 
	C129.248230,25.451773 131.703079,26.291384 133.136749,27.760424 
	C135.872833,30.563990 138.779877,31.782417 142.702988,32.235291 
	C151.255142,33.222527 159.954208,34.414726 166.627380,40.735966 
	C167.756714,41.805737 168.069382,43.737663 168.636261,45.640968 
z"/>
<path fill="#A08B76" opacity="1.000000" stroke="none" 
	d="
M41.143829,65.023811 
	C41.143829,65.023811 41.534103,65.009529 41.918171,64.781387 
	C42.528534,64.017021 42.754833,63.480808 42.981129,62.944595 
	C42.981129,62.944595 42.927616,62.994007 42.900028,62.969284 
	C49.700935,61.399399 54.978683,64.336617 60.232582,68.313133 
	C63.138073,70.512207 66.849892,71.752808 70.340584,73.039177 
	C73.313667,74.134804 75.801674,78.042694 74.756699,81.312790 
	C73.311447,85.835518 73.790237,90.123253 77.005066,93.455093 
	C81.699829,98.320740 81.621056,104.634216 82.848373,110.496811 
	C83.832504,115.197769 82.107643,119.466377 78.120911,122.382874 
	C72.511375,126.486549 71.757515,131.520432 74.279488,137.716400 
	C76.345642,142.792526 74.795937,144.855743 69.416573,144.991821 
	C68.250626,145.021317 67.083450,145.002029 65.031433,145.004425 
	C54.658226,145.166031 53.988956,145.830307 54.002079,155.079636 
	C54.003479,156.065933 54.014412,157.052231 54.020924,158.038528 
	C54.023800,158.470856 54.026676,158.903198 53.845078,159.960678 
	C53.899734,162.306961 54.104324,164.033737 54.385593,165.747955 
	C54.885098,168.792175 55.665230,171.811035 55.897041,174.873138 
	C56.172943,178.517639 54.227112,179.981949 50.389488,178.899872 
	C49.458271,177.746796 48.633331,176.884583 48.101688,175.868835 
	C35.195248,151.210297 29.599762,125.052444 33.506050,97.398994 
	C35.050457,86.465790 38.539974,75.807358 41.143829,65.023811 
M57.445244,89.624649 
	C58.671799,86.989975 60.122551,84.342781 56.422798,80.939064 
	C55.319546,84.204460 54.278008,86.728729 53.698051,89.354919 
	C53.530979,90.111465 54.693352,91.161613 55.246208,92.077148 
	C55.895809,91.474716 56.545410,90.872276 57.445244,89.624649 
z"/>
<path fill="#A08C77" opacity="1.000000" stroke="none" 
	d="
M160.613678,121.542747 
	C160.804443,123.318550 161.140289,124.680496 160.956635,125.968369 
	C159.996017,132.705185 162.381821,138.185059 166.541672,143.369598 
	C170.715469,148.571518 169.651489,152.121384 164.931091,156.680084 
	C160.598587,160.864197 157.213272,166.013611 153.139755,170.491302 
	C151.990219,171.754883 149.558426,173.181381 148.280304,172.771164 
	C142.369980,170.874100 136.412094,168.817947 130.960205,165.903976 
	C127.091255,163.836060 127.612389,159.349365 129.911072,155.386169 
	C134.358704,147.717911 139.509918,140.182449 139.028427,130.620346 
	C138.937317,128.811066 139.240204,126.969330 139.480637,125.158401 
	C140.096558,120.519135 140.658569,116.050232 137.875504,111.642937 
	C136.774734,109.899719 136.698547,107.008072 137.174240,104.865440 
	C138.564743,98.602463 140.512482,92.465080 142.154343,86.255348 
	C143.192383,82.329308 144.421402,78.404678 144.914581,74.399353 
	C145.302246,71.251053 146.513397,70.142113 149.586365,69.940361 
	C155.678009,69.540436 161.750061,68.815285 167.821625,68.146599 
	C171.794220,67.709084 179.389252,71.250130 180.445847,74.758583 
	C180.964493,76.480751 180.446548,79.149094 179.348114,80.587982 
	C177.269516,83.310852 174.380692,85.402687 171.926361,87.854637 
	C169.259628,90.518784 166.477890,92.392181 162.343445,92.188454 
	C160.503693,92.097801 158.579361,93.723801 156.693405,94.570618 
	C157.575821,96.025284 158.457535,97.480370 159.340790,98.934525 
	C161.587387,102.633286 163.795456,106.008820 161.533768,110.917435 
	C160.185165,113.844322 160.791550,117.671982 160.613678,121.542747 
z"/>
<path fill="#A08C78" opacity="1.000000" stroke="none" 
	d="
M197.223145,38.908875 
	C210.985474,53.386337 218.887161,70.835480 223.186371,90.515724 
	C223.130051,93.464256 222.903305,96.018768 223.054062,98.550797 
	C223.310349,102.854958 223.804337,107.144958 224.198441,111.440918 
	C223.685440,111.498985 223.172440,111.557053 222.659454,111.615120 
	C222.438614,110.757622 222.079208,109.909424 222.020950,109.041023 
	C221.768982,105.284622 220.230057,104.415726 216.787521,106.178093 
	C213.578964,107.820686 210.183334,109.131828 206.789612,110.368088 
	C204.002533,111.383369 202.063339,110.464706 200.959198,107.482018 
	C198.556244,100.990807 196.090652,94.513290 193.332306,88.168579 
	C192.439407,86.114746 190.822739,84.159004 189.065857,82.743195 
	C185.589325,79.941566 185.430328,76.584564 186.715576,72.869133 
	C190.725143,61.278076 190.758194,61.289509 185.948517,51.427841 
	C186.648438,51.059834 187.318329,50.485653 188.068192,50.348415 
	C194.122757,49.240334 195.164169,47.234138 192.439163,41.548645 
	C191.796509,40.207809 190.917694,38.980156 190.311432,37.231262 
	C192.724594,37.477680 194.973862,38.193279 197.223145,38.908875 
z"/>
<path fill="#6F5F52" opacity="1.000000" stroke="none" 
	d="
M40.794891,65.113693 
	C38.539974,75.807358 35.050457,86.465790 33.506050,97.398994 
	C29.599762,125.052444 35.195248,151.210297 48.101688,175.868835 
	C48.633331,176.884583 49.458271,177.746796 50.528797,179.232803 
	C55.611298,185.852676 60.311569,191.920303 65.011841,197.987915 
	C65.011841,197.987915 65.064583,198.402435 64.998108,198.994064 
	C61.949093,202.814926 57.275738,202.993744 53.785282,199.397064 
	C48.044918,193.482025 42.619545,187.258743 37.142178,181.093628 
	C36.291996,180.136703 35.570808,178.863022 35.305641,177.625351 
	C34.410202,173.445862 33.747002,169.216614 32.996288,164.580078 
	C31.911665,160.626419 30.806704,157.104736 29.750839,153.568405 
	C29.410521,152.428604 28.610722,150.538025 29.020199,150.199539 
	C33.157089,146.779953 31.951168,143.924805 28.666908,140.778992 
	C27.922375,140.065857 28.195917,138.289825 28.000839,137.003052 
	C28.000839,137.003052 28.498470,136.999603 29.063549,136.810150 
	C32.048115,131.716751 31.166218,127.798401 27.012487,124.996971 
	C26.668407,120.357185 27.459562,115.237823 25.744240,111.177307 
	C22.158049,102.688072 23.916906,93.806427 22.239515,85.272842 
	C21.955997,83.830482 21.012884,82.029938 19.825331,81.339516 
	C15.249360,78.679176 13.016637,73.837410 14.510056,68.331108 
	C14.804097,67.246971 15.804200,66.354340 16.478680,65.373383 
	C17.369045,66.183205 18.882162,66.883217 19.047506,67.820885 
	C20.032671,73.407776 22.988716,73.509148 27.276314,71.339653 
	C31.595335,69.154251 36.050461,67.237839 40.794891,65.113693 
z"/>
<path fill="#A08C79" opacity="1.000000" stroke="none" 
	d="
M145.081390,221.460205 
	C144.872574,221.662949 144.436996,221.586243 144.226669,221.517593 
	C139.759811,220.288345 135.490173,219.173050 131.252716,217.946533 
	C129.356369,217.397644 127.285217,216.975327 125.705330,215.893814 
	C119.161949,211.414551 111.936111,209.438736 104.107140,208.906631 
	C101.771141,208.747864 99.244644,207.773056 97.383804,206.392548 
	C96.806953,205.964600 97.572762,202.396255 98.714050,201.262115 
	C101.036011,198.954712 103.634468,197.548248 107.607834,199.200974 
	C112.393097,201.191391 117.733070,202.706512 122.868752,202.821106 
	C134.274521,203.075577 145.714081,202.525024 157.114197,201.861572 
	C160.261627,201.678406 163.420990,200.174698 166.393768,198.865585 
	C171.115723,196.786209 174.667664,192.745209 180.447220,192.103394 
	C183.246872,191.792496 185.680771,187.944687 188.226227,185.638550 
	C193.533066,180.830643 198.803986,175.983063 204.089661,171.151794 
	C204.419312,171.408585 204.748947,171.665375 205.078598,171.922165 
	C203.775803,175.459869 202.473007,178.997574 201.104095,183.254730 
	C198.520172,186.921814 196.002380,189.869461 193.484589,192.817108 
	C193.484589,192.817108 193.189438,192.956635 192.815002,193.233917 
	C190.243546,195.653625 188.046539,197.796036 185.849533,199.938446 
	C185.522079,199.991699 185.277924,200.163376 184.702652,200.764740 
	C177.786209,205.339691 171.284134,209.603378 164.782074,213.867081 
	C163.616791,214.326050 162.451508,214.784988 160.713257,215.549408 
	C155.760086,217.569550 151.379868,219.284256 146.999664,220.998962 
	C146.429840,221.085129 145.860031,221.171280 145.081390,221.460205 
z"/>
<path fill="#B4A396" opacity="1.000000" stroke="none" 
	d="
M186.941681,159.900772 
	C183.363785,163.002274 180.010361,165.822159 176.282852,168.956604 
	C174.366592,164.918915 174.201096,162.333557 176.756012,159.512238 
	C181.300308,154.494095 182.292343,148.102554 183.002213,141.602692 
	C183.238419,139.439926 184.353424,137.256821 185.495636,135.338409 
	C186.962814,132.874161 190.821838,130.970612 185.988708,127.871140 
	C185.290359,127.423279 186.020279,124.128456 186.722549,122.409889 
	C187.019363,121.683510 188.997803,121.220726 190.139435,121.338806 
	C194.370392,121.776413 198.554947,122.675323 202.787643,123.080017 
	C207.389145,123.519981 210.233673,125.690979 210.841934,130.330734 
	C211.440292,134.894913 207.297226,143.659439 204.097260,144.398087 
	C202.963074,144.659897 201.571274,144.060486 200.355682,143.671280 
	C194.820648,141.898941 192.976273,143.431198 191.836761,148.934601 
	C191.065628,152.658813 188.776398,156.068695 186.941681,159.900772 
z"/>
<path fill="#74695E" opacity="1.000000" stroke="none" 
	d="
M32.995003,165.006393 
	C33.747002,169.216614 34.410202,173.445862 35.305641,177.625351 
	C35.570808,178.863022 36.291996,180.136703 37.142178,181.093628 
	C42.619545,187.258743 48.044918,193.482025 53.785282,199.397064 
	C57.275738,202.993744 61.949093,202.814926 65.021179,199.201721 
	C70.573914,203.394745 76.037102,207.971741 81.428940,212.889832 
	C79.571655,213.150238 77.785706,213.069580 75.878586,212.732910 
	C74.504936,212.318344 73.252464,212.159775 71.667679,211.997589 
	C70.892387,211.984299 70.449417,211.974670 69.883606,211.671021 
	C68.375793,210.900406 66.998657,210.399307 65.604164,209.952362 
	C62.921585,209.092606 59.817444,208.846558 57.626987,207.299713 
	C53.133556,204.126556 48.873394,200.514771 45.001163,196.604324 
	C41.878719,193.451065 38.394661,192.618820 34.304230,192.919800 
	C33.976604,192.689957 33.648983,192.460114 33.189034,191.555252 
	C30.378693,185.259323 27.700680,179.638397 24.960007,173.685776 
	C24.287226,167.361282 30.076935,167.576660 32.995003,165.006393 
z"/>
<path fill="#B4A294" opacity="1.000000" stroke="none" 
	d="
M109.888870,160.209137 
	C117.250565,166.517975 125.867973,171.163223 129.760040,180.306671 
	C130.508316,182.064560 130.845093,185.051682 129.872101,186.190811 
	C128.905182,187.322815 125.887619,187.419830 124.062668,186.913467 
	C121.974693,186.334152 119.888130,184.895279 118.366203,183.292969 
	C114.061920,178.761368 109.605576,174.254608 106.120621,169.119492 
	C104.590256,166.864487 105.271584,163.108536 104.948685,160.034088 
	C106.494545,160.031296 108.040398,160.028488 109.888870,160.209137 
z"/>
<path fill="#A08B78" opacity="1.000000" stroke="none" 
	d="
M101.783829,4.220285 
	C106.812447,3.753192 111.497360,3.389123 116.595490,3.007179 
	C120.327415,3.950282 123.796150,4.591878 126.884811,6.042636 
	C127.990273,6.561882 128.544159,9.019766 128.616196,10.625720 
	C128.648239,11.340090 126.862221,12.797280 125.904297,12.794808 
	C113.163567,12.761936 100.423355,12.529625 87.322128,12.132856 
	C91.787529,9.386888 96.613831,6.855098 101.783829,4.220285 
z"/>
<path fill="#B4A296" opacity="1.000000" stroke="none" 
	d="
M75.516747,176.267303 
	C71.419426,171.711548 72.606834,166.575974 73.810562,161.967865 
	C74.256241,160.261703 78.101280,158.242538 80.153770,158.477966 
	C82.434486,158.739578 85.287735,160.992538 86.347473,163.140427 
	C87.658447,165.797531 87.853783,169.263031 87.693558,172.335587 
	C87.334618,179.218826 82.798935,180.708069 75.516747,176.267303 
z"/>
<path fill="#B4A294" opacity="1.000000" stroke="none" 
	d="
M177.200592,187.302673 
	C170.654648,191.628998 163.751434,192.822311 156.457047,191.927399 
	C154.130615,191.641983 151.870697,190.814423 149.580353,190.234924 
	C149.524277,189.719055 149.468185,189.203186 149.412109,188.687317 
	C150.695862,187.941208 151.936646,187.104736 153.273041,186.469330 
	C155.495392,185.412659 157.747192,184.399536 160.050369,183.538788 
	C161.217651,183.102539 162.836792,182.443970 163.716553,182.905640 
	C168.822693,185.585144 172.885742,182.098846 177.352371,180.987915 
	C178.911667,180.600082 180.542358,180.499176 182.140442,180.267242 
	C181.465149,181.795990 180.939407,183.418304 180.062057,184.820633 
	C179.476212,185.757065 178.389954,186.380402 177.200592,187.302673 
z"/>
<path fill="#9F8C79" opacity="1.000000" stroke="none" 
	d="
M65.144066,197.657486 
	C60.311569,191.920303 55.611298,185.852676 50.771721,179.452133 
	C54.227112,179.981949 56.172943,178.517639 55.897041,174.873138 
	C55.665230,171.811035 54.885098,168.792175 54.385593,165.747955 
	C54.104324,164.033737 53.899734,162.306961 53.842667,160.284912 
	C54.922829,160.907562 56.353497,161.694473 56.631298,162.777176 
	C58.253819,169.100754 59.448547,175.535172 61.112324,181.846619 
	C62.028488,185.322052 63.725254,188.585464 64.782013,192.032776 
	C65.290680,193.692108 65.132500,195.555862 65.144066,197.657486 
z"/>
<path fill="#A08F7C" opacity="1.000000" stroke="none" 
	d="
M161.957993,21.199991 
	C164.541428,21.831236 166.855850,22.107206 169.023956,22.825085 
	C170.042328,23.162277 170.778976,24.350321 171.643295,25.152782 
	C170.803528,26.030998 170.072647,27.480669 169.100845,27.665804 
	C167.208664,28.026283 165.109406,27.988924 163.226791,27.552145 
	C160.252441,26.862082 157.272217,25.947971 154.521286,24.648525 
	C153.125946,23.989416 151.742264,22.440514 151.264053,20.992998 
	C150.914337,19.934366 151.774368,17.516201 152.588272,17.257925 
	C153.810455,16.870071 155.542831,17.667856 156.914627,18.282206 
	C158.564713,19.021187 160.064285,20.096260 161.957993,21.199991 
z"/>
<path fill="#A49382" opacity="1.000000" stroke="none" 
	d="
M197.088318,38.597153 
	C194.973862,38.193279 192.724594,37.477680 190.204865,36.890980 
	C186.856155,35.491119 182.946228,34.654076 180.935913,32.237076 
	C178.965988,29.868599 178.929779,25.891804 178.056274,22.206514 
	C184.362946,27.289894 190.658203,32.787663 197.088318,38.597153 
z"/>
<path fill="#756C65" opacity="1.000000" stroke="none" 
	d="
M72.000000,212.001221 
	C73.252464,212.159775 74.504936,212.318344 75.666122,212.977966 
	C73.165260,216.930634 74.819031,217.820663 78.181732,217.570587 
	C79.257286,217.490616 81.053535,216.822250 81.280571,217.189438 
	C83.765381,221.208267 86.557739,218.828796 89.300308,217.787994 
	C90.068611,218.052795 90.836914,218.317612 91.648636,218.943909 
	C91.255058,220.017960 90.818069,220.730530 90.381081,221.443085 
	C90.624344,221.672028 90.867599,221.900955 91.110855,222.129883 
	C92.075829,221.414352 93.040802,220.698807 94.005783,219.983276 
	C95.571709,220.813370 97.137642,221.643478 98.835999,222.784790 
	C97.109886,223.438385 95.093277,224.422928 93.420372,224.011139 
	C86.444443,222.294006 79.571892,220.156876 72.263077,217.734711 
	C71.572563,216.552231 71.280411,215.808792 71.116783,214.766754 
	C71.496872,213.645859 71.748436,212.823532 72.000000,212.001221 
z"/>
<path fill="#B3A598" opacity="1.000000" stroke="none" 
	d="
M134.972916,3.648582 
	C135.762756,3.410457 136.579086,3.522792 137.708801,3.644491 
	C142.780838,5.031094 147.539459,6.408332 152.876266,8.004030 
	C153.974152,8.387851 154.493851,8.553213 155.013565,8.718577 
	C155.526047,9.026103 156.038513,9.333627 156.768387,9.846266 
	C150.623062,10.923343 144.080353,13.418489 138.227997,8.659424 
	C136.819763,7.514277 136.058304,5.573771 134.972916,3.648582 
z"/>
<path fill="#9F8C79" opacity="1.000000" stroke="none" 
	d="
M54.348251,157.920761 
	C54.014412,157.052231 54.003479,156.065933 54.002079,155.079636 
	C53.988956,145.830307 54.658226,145.166031 64.580276,145.005371 
	C61.568218,149.272415 58.121895,153.537704 54.348251,157.920761 
z"/>
<path fill="#7D726A" opacity="1.000000" stroke="none" 
	d="
M89.061203,217.571442 
	C86.557739,218.828796 83.765381,221.208267 81.280571,217.189438 
	C81.053535,216.822250 79.257286,217.490616 78.181732,217.570587 
	C74.819031,217.820663 73.165260,216.930634 75.787300,213.233978 
	C77.785706,213.069580 79.571655,213.150238 81.668793,213.119415 
	C82.575066,213.377930 83.170151,213.747971 83.988083,214.485565 
	C84.210938,214.853104 84.605980,215.047043 84.605980,215.047043 
	C84.605980,215.047043 85.045685,214.947281 85.045685,214.947266 
	C86.304489,215.749802 87.563293,216.552338 89.061203,217.571442 
z"/>
<path fill="#9E8D7D" opacity="1.000000" stroke="none" 
	d="
M62.862236,53.556671 
	C62.856976,52.808109 62.827766,52.088455 63.121132,51.915276 
	C64.579994,51.054119 66.123795,50.336868 67.637695,49.568947 
	C67.829506,50.431232 68.322884,51.981552 68.166763,52.049980 
	C66.499336,52.780792 64.729057,53.276955 62.862236,53.556671 
z"/>
<path fill="#9C8C7A" opacity="1.000000" stroke="none" 
	d="
M212.872299,158.744446 
	C211.939468,160.136932 211.136078,161.214752 210.332687,162.292587 
	C209.961334,162.061035 209.589981,161.829483 209.218628,161.597946 
	C210.350403,158.823395 211.482178,156.048843 212.613953,153.274292 
	C213.197510,153.464371 213.781067,153.654465 214.364624,153.844543 
	C213.910324,155.372955 213.456039,156.901367 212.872299,158.744446 
z"/>
<path fill="#7D726A" opacity="1.000000" stroke="none" 
	d="
M93.805222,219.792969 
	C93.040802,220.698807 92.075829,221.414352 91.110855,222.129883 
	C90.867599,221.900955 90.624344,221.672028 90.381081,221.443085 
	C90.818069,220.730530 91.255058,220.017960 91.898071,219.122162 
	C92.604279,219.160172 93.104462,219.381424 93.805222,219.792969 
z"/>
<path fill="#756C65" opacity="1.000000" stroke="none" 
	d="
M84.796272,214.850479 
	C85.045685,214.947281 84.605980,215.047043 84.605980,215.047043 
	C84.605980,215.047043 84.210938,214.853104 84.125717,214.716919 
	C84.209297,214.638382 84.378082,214.696030 84.796272,214.850479 
z"/>
<path fill="#A08C79" opacity="1.000000" stroke="none" 
	d="
M206.493378,169.496918 
	C206.514099,169.489120 206.472672,169.504730 206.493378,169.496918 
z"/>
<path fill="#706257" opacity="1.000000" stroke="none" 
	d="
M32.996288,164.580078 
	C30.076935,167.576660 24.287226,167.361282 24.532040,173.686157 
	C22.459702,174.009293 20.752666,174.000351 19.045633,173.991425 
	C15.896856,169.445633 10.974278,165.940247 10.829944,159.623108 
	C10.805368,158.547546 10.261642,157.223465 9.504135,156.470642 
	C6.424109,153.409607 5.816720,149.590347 5.445490,145.246506 
	C4.363763,140.614075 3.545990,136.287018 2.715597,131.540207 
	C4.382905,127.488670 8.620050,124.743713 6.577888,119.793159 
	C6.397562,119.356026 6.788429,118.251282 7.157674,118.114510 
	C7.810510,117.872719 9.266165,117.993141 9.317514,118.212280 
	C9.825102,120.378532 10.871424,122.833839 10.274326,124.740364 
	C9.497787,127.219887 8.821767,128.984985 11.257234,130.797394 
	C12.108983,131.431244 12.522488,132.660904 13.119895,133.628494 
	C16.238270,138.679230 19.351421,143.733185 23.032984,149.705109 
	C25.989698,144.813660 21.677454,139.302933 27.642937,137.065521 
	C28.195917,138.289825 27.922375,140.065857 28.666908,140.778992 
	C31.951168,143.924805 33.157089,146.779953 29.020199,150.199539 
	C28.610722,150.538025 29.410521,152.428604 29.750839,153.568405 
	C30.806704,157.104736 31.911665,160.626419 32.996288,164.580078 
z"/>
<path fill="#7A7065" opacity="1.000000" stroke="none" 
	d="
M46.612530,38.263435 
	C46.828171,37.085529 46.699928,36.109760 47.108433,35.484879 
	C48.169228,33.862202 49.466015,32.393799 50.668617,30.863827 
	C51.734753,32.885536 54.013752,35.222633 53.588852,36.856621 
	C52.915352,39.446663 50.494789,41.617668 48.649830,43.829533 
	C48.375324,44.158627 46.561916,43.792702 46.552155,43.664913 
	C46.424496,41.993851 46.493565,40.307762 46.612530,38.263435 
z"/>
<path fill="#797066" opacity="1.000000" stroke="none" 
	d="
M36.265442,54.274040 
	C34.730110,56.166451 33.417988,57.790810 31.912191,59.654926 
	C28.354315,55.862309 32.145500,53.681427 33.167389,51.306999 
	C33.698631,50.072617 35.849224,49.535156 37.268314,48.682877 
	C37.673920,49.135891 38.079525,49.588909 38.485130,50.041924 
	C37.819641,51.363277 37.154148,52.684635 36.265442,54.274040 
z"/>
<path fill="#706257" opacity="1.000000" stroke="none" 
	d="
M27.099804,125.370117 
	C31.166218,127.798401 32.048115,131.716751 29.312366,136.809082 
	C28.393112,133.246048 27.790117,129.494659 27.099804,125.370117 
z"/>
<path fill="#A99888" opacity="1.000000" stroke="none" 
	d="
M42.779228,63.159012 
	C42.754833,63.480808 42.528534,64.017021 42.113419,64.778473 
	C42.142178,64.460289 42.359753,63.916855 42.779228,63.159012 
z"/>
<path fill="#FBF8F3" opacity="1.000000" stroke="none" 
	d="
M154.929291,8.516476 
	C154.493851,8.553213 153.974152,8.387851 153.253632,8.031103 
	C153.650223,7.997936 154.247635,8.156156 154.929291,8.516476 
z"/>
<path fill="#736B63" opacity="1.000000" stroke="none" 
	d="
M70.988258,215.065338 
	C71.280411,215.808792 71.572563,216.552231 71.931549,217.588165 
	C57.662643,212.591888 45.504364,203.946518 34.394646,193.232605 
	C38.394661,192.618820 41.878719,193.451065 45.001163,196.604324 
	C48.873394,200.514771 53.133556,204.126556 57.626987,207.299713 
	C59.817444,208.846558 62.921585,209.092606 65.604164,209.952362 
	C66.998657,210.399307 68.375793,210.900406 69.736290,211.915482 
	C70.137291,213.324402 70.562775,214.194870 70.988258,215.065338 
M67.503311,213.523621 
	C67.503311,213.523621 67.488304,213.483505 67.503311,213.523621 
z"/>
<path fill="#736B63" opacity="1.000000" stroke="none" 
	d="
M19.110041,174.328766 
	C20.752666,174.000351 22.459702,174.009293 24.594700,174.017853 
	C27.700680,179.638397 30.378693,185.259323 33.071125,191.273438 
	C28.448513,185.999786 23.811480,180.332932 19.110041,174.328766 
z"/>
<path fill="#A7957F" opacity="1.000000" stroke="none" 
	d="
M57.320129,89.947243 
	C56.545410,90.872276 55.895809,91.474716 55.246208,92.077148 
	C54.693352,91.161613 53.530979,90.111465 53.698051,89.354919 
	C54.278008,86.728729 55.319546,84.204460 56.422798,80.939064 
	C60.122551,84.342781 58.671799,86.989975 57.320129,89.947243 
z"/>
<path fill="#7D726A" opacity="1.000000" stroke="none" 
	d="
M71.116783,214.766754 
	C70.562775,214.194870 70.137291,213.324402 69.859131,212.209473 
	C70.449417,211.974670 70.892387,211.984299 71.667679,211.997589 
	C71.748436,212.823532 71.496872,213.645859 71.116783,214.766754 
z"/>
<path fill="#7D726A" opacity="1.000000" stroke="none" 
	d="
M67.495804,213.503571 
	C67.488304,213.483505 67.503311,213.523621 67.495804,213.503571 
z"/>
</svg>