<?xml version="1.0" encoding="UTF-8"?>
<svg version="1.1" xmlns="http://www.w3.org/2000/svg" width="225" height="225">

<path d="M0 0 C1.41720481 1.18319511 2.81305962 2.39238742 4.1875 3.625 C4.94675781 4.30304687 5.70601562 4.98109375 6.48828125 5.6796875 C20.86366226 19.25777847 27.74412631 37.4791312 28.64331055 57.02490234 C29.17364756 83.72927531 17.43205493 109.10247609 -0.59399414 128.3112793 C-1.98816492 129.76082208 -3.40024237 131.19307304 -4.8125 132.625 C-5.67617187 133.5015625 -6.53984375 134.378125 -7.4296875 135.28125 C-22.2990416 149.57700884 -40.89151185 157.28467297 -60.8125 161.625 C-61.60914062 161.81835938 -62.40578125 162.01171875 -63.2265625 162.2109375 C-82.2677795 165.25983327 -103.08435143 160.82087944 -118.75 149.5625 C-120.45067357 148.26711515 -122.13875967 146.95500219 -123.8125 145.625 C-124.66199219 144.9753125 -125.51148437 144.325625 -126.38671875 143.65625 C-140.20072502 132.08896617 -147.28118959 113.82513861 -149.05078125 96.25976562 C-149.59028101 87.28094822 -148.84042469 78.38936418 -146.8125 69.625 C-146.56757813 68.5525 -146.32265625 67.48 -146.0703125 66.375 C-138.89015719 38.41687315 -120.33892869 14.96740045 -95.92431641 -0.12744141 C-66.49524649 -17.51270699 -28.53627752 -21.20540623 0 0 Z " fill="#736356" transform="translate(172.8125,41.375)"/>
<path d="M0 0 C1.32 0.33 2.64 0.66 4 1 C4.6497484 8.79698075 3.01887904 15.22078562 -1 22 C-3.10546875 23.1875 -3.10546875 23.1875 -5 24 C-5.68753301 25.65816784 -6.35561283 27.32459336 -7 29 C-7.99 29.33 -8.98 29.66 -10 30 C-10 30.66 -10 31.32 -10 32 C-10.99 32 -11.98 32 -13 32 C-13.20625 32.53625 -13.4125 33.0725 -13.625 33.625 C-15.53250426 36.91978009 -18.04819384 39.59363628 -21 42 C-21.66 42 -22.32 42 -23 42 C-23 42.66 -23 43.32 -23 44 C-24.875 46.125 -24.875 46.125 -27 48 C-27.66 48 -28.32 48 -29 48 C-30.86783046 53.48675196 -31.2358396 58.22192976 -31 64 C-26.18973196 66.77515464 -22.28736379 66.32868986 -17 65 C-12.15638863 63.03309058 -7.57158549 60.52293551 -3 58 C-2.01 58.66 -1.02 59.32 0 60 C-0.33 62.97 -0.66 65.94 -1 69 C-1.66 69 -2.32 69 -3 69 C-3 69.66 -3 70.32 -3 71 C-3.66 71 -4.32 71 -5 71 C-5 71.99 -5 72.98 -5 74 C-6.875 76.1875 -6.875 76.1875 -9 78 C-9.66 78 -10.32 78 -11 78 C-11.226875 78.598125 -11.45375 79.19625 -11.6875 79.8125 C-13 82 -13 82 -15.32421875 83.3359375 C-21.57639525 87.22415237 -26.10470258 94.34081592 -29 101 C-29.68382753 102.33522056 -30.37159101 103.66842995 -31.0625 105 C-32.69588715 108.25425792 -33.95162546 111.50541819 -35 115 C-43.66233929 111.40829834 -49.54085419 100.16370845 -53.20507812 91.98730469 C-59.87316 75.31709999 -60.71550347 58.46557838 -57 41 C-56.666224 39.33342193 -56.33275681 37.66678187 -56 36 C-55.2265625 35.8453125 -55.2265625 35.8453125 -54.4375 35.6875 C-51.75442764 34.98848555 -51.75442764 34.98848555 -48.375 33.4375 C-45 32 -45 32 -43 32 C-43 31.34 -43 30.68 -43 30 C-42.443125 29.81824219 -41.88625 29.63648437 -41.3125 29.44921875 C-31.42848505 26.30765276 -31.42848505 26.30765276 -22.125 21.8125 C-19 20 -19 20 -17 20 C-17 19.34 -17 18.68 -17 18 C-16.34 18 -15.68 18 -15 18 C-15 17.34 -15 16.68 -15 16 C-14.34 16 -13.68 16 -13 16 C-13 15.34 -13 14.68 -13 14 C-11.609375 12.703125 -11.609375 12.703125 -9.75 11.25 C-7.26530356 9.21204696 -5.388269 7.35399056 -3.6875 4.625 C-3.130625 3.75875 -2.57375 2.8925 -2 2 C-1.34 2 -0.68 2 0 2 C0 1.34 0 0.68 0 0 Z " fill="#968475" transform="translate(83,70)"/>
<path d="M0 0 C3.74001122 1.59410314 6.4865456 3.19948479 9.2578125 6.203125 C5.74645962 18.39279562 -4.00546998 28.34472618 -12.7421875 37.203125 C-13.60585937 38.0796875 -14.46953125 38.95625 -15.359375 39.859375 C-30.2287291 54.15513384 -48.82119935 61.86279797 -68.7421875 66.203125 C-69.90621094 66.50089844 -69.90621094 66.50089844 -71.09375 66.8046875 C-75.23927971 67.42835126 -79.36984435 67.30619395 -83.5546875 67.265625 C-84.43833984 67.26111328 -85.32199219 67.25660156 -86.23242188 67.25195312 C-88.40237309 67.24022366 -90.57228922 67.22228995 -92.7421875 67.203125 C-92.7421875 66.873125 -92.7421875 66.543125 -92.7421875 66.203125 C-91.69160156 66.03296875 -90.64101562 65.8628125 -89.55859375 65.6875 C-80.05401056 64.07603546 -72.23291635 61.85478394 -63.8671875 56.953125 C-60.7421875 55.203125 -60.7421875 55.203125 -57.7421875 55.203125 C-57.7421875 54.543125 -57.7421875 53.883125 -57.7421875 53.203125 C-55.2671875 52.708125 -55.2671875 52.708125 -52.7421875 52.203125 C-52.7421875 51.543125 -52.7421875 50.883125 -52.7421875 50.203125 C-52.0821875 50.203125 -51.4221875 50.203125 -50.7421875 50.203125 C-50.7421875 49.543125 -50.7421875 48.883125 -50.7421875 48.203125 C-48.7621875 47.708125 -48.7621875 47.708125 -46.7421875 47.203125 C-46.7421875 46.543125 -46.7421875 45.883125 -46.7421875 45.203125 C-46.0821875 45.203125 -45.4221875 45.203125 -44.7421875 45.203125 C-44.4946875 44.605 -44.2471875 44.006875 -43.9921875 43.390625 C-42.7421875 41.203125 -42.7421875 41.203125 -40.7421875 39.765625 C-38.28933493 37.84933393 -37.68878045 36.1217866 -36.7421875 33.203125 C-36.0821875 33.203125 -35.4221875 33.203125 -34.7421875 33.203125 C-34.58363281 32.63207031 -34.42507812 32.06101563 -34.26171875 31.47265625 C-27.2016226 6.93784699 -27.2016226 6.93784699 -18.4453125 0.51953125 C-12.84227715 -2.20911458 -5.89640336 -1.71348474 0 0 Z " fill="#968475" transform="translate(180.7421875,136.796875)"/>
<path d="M0 0 C-2.95503567 1.67023755 -5.31316601 2.30036166 -8.6875 2.5625 C-11.64181288 2.59506307 -11.64181288 2.59506307 -14 4 C-15.66617115 4.04063832 -17.33388095 4.042721 -19 4 C-19 4.66 -19 5.32 -19 6 C-34.43978106 14.45902899 -49.63721438 17.45404019 -66.984375 13.6328125 C-69 13 -69 13 -70.82421875 11.96484375 C-73.89143954 10.60469377 -76.72417585 10.60248553 -80.0625 10.4375 C-86.7133995 10.0955335 -86.7133995 10.0955335 -90 9 C-63.31605837 -7.98616601 -29.29753736 -15.19131567 0 0 Z " fill="#968477" transform="translate(163,35)"/>
<path d="M0 0 C4.94946102 6.06381335 9.15878348 15.06082602 9 23 C5.09903356 30.80193287 -2.24802502 37.13292283 -10 41 C-10.66 41 -11.32 41 -12 41 C-12 41.66 -12 42.32 -12 43 C-15.6441774 45.4294516 -17.71241272 45.16179575 -22 45 C-21.49287967 41.28111761 -20.88391785 38.26545761 -19 35 C-18.34 35 -17.68 35 -17 35 C-16.5978125 34.0409375 -16.5978125 34.0409375 -16.1875 33.0625 C-15 31 -15 31 -12 30 C-11.67 28.35 -11.34 26.7 -11 25 C-10.34 25 -9.68 25 -9 25 C-8.70996094 24.41089844 -8.41992188 23.82179688 -8.12109375 23.21484375 C-7.15361312 21.30347959 -6.11438381 19.42874548 -5.0625 17.5625 C-2.26356148 12.03800337 -1.21359428 6.0311958 0 0 Z " fill="#958476" transform="translate(190,61)"/>
<path d="M0 0 C0.3227506 4.62609198 -0.15549386 7.28026121 -3 11 C-3.66 11 -4.32 11 -5 11 C-5.33 11.99 -5.66 12.98 -6 14 C-8.375 14.125 -8.375 14.125 -11 14 C-13 12 -13 12 -13.42578125 9.12109375 C-13 6 -13 6 -10.91796875 3.84765625 C-10.01691406 3.25855469 -9.11585937 2.66945313 -8.1875 2.0625 C-7.29417969 1.45535156 -6.40085937 0.84820312 -5.48046875 0.22265625 C-3 -1 -3 -1 0 0 Z " fill="#948375" transform="translate(99,108)"/>
<path d="M0 0 C1.4540625 0.0309375 1.4540625 0.0309375 2.9375 0.0625 C3.5625 3.4375 3.5625 3.4375 3.9375 7.0625 C3.2775 7.7225 2.6175 8.3825 1.9375 9.0625 C-2.61805556 8.50694444 -2.61805556 8.50694444 -4.0625 7.0625 C-4.1875 4.0625 -4.1875 4.0625 -4.0625 1.0625 C-3.0625 0.0625 -3.0625 0.0625 0 0 Z " fill="#938173" transform="translate(156.0625,98.9375)"/>
<path d="M0 0 C0.66 0.33 1.32 0.66 2 1 C0.25 4.875 0.25 4.875 -2 6 C-3.44848582 6.08342159 -4.90070869 6.10732861 -6.3515625 6.09765625 C-7.20234375 6.09443359 -8.053125 6.09121094 -8.9296875 6.08789062 C-9.81914063 6.07951172 -10.70859375 6.07113281 -11.625 6.0625 C-12.5221875 6.05798828 -13.419375 6.05347656 -14.34375 6.04882812 C-16.56256648 6.03702591 -18.78125018 6.02056155 -21 6 C-21 5.67 -21 5.34 -21 5 C-19.90300781 4.80664062 -18.80601563 4.61328125 -17.67578125 4.4140625 C-16.22130418 4.15131825 -14.76687983 3.88828199 -13.3125 3.625 C-12.59126953 3.49867188 -11.87003906 3.37234375 -11.12695312 3.2421875 C-7.94053156 2.66019269 -5.12396969 2.04985556 -2.10546875 0.8359375 C-1.06326172 0.42214844 -1.06326172 0.42214844 0 0 Z " fill="#9A8E85" transform="translate(109,198)"/>
<path d="M0 0 C0.99 0.33 1.98 0.66 3 1 C1.40956621 6.08938811 -1.7446951 9.87456643 -5 14 C-5.66 13.67 -6.32 13.34 -7 13 C-7.40729228 10.67843403 -7.74438677 8.3431213 -8 6 C-6.68 6.33 -5.36 6.66 -4 7 C-1.02324541 3.90672105 -1.02324541 3.90672105 0 0 Z " fill="#978C83" transform="translate(184,148)"/>
<path d="M0 0 C0.99 0.99 1.98 1.98 3 3 C2.67 3.99 2.34 4.98 2 6 C2.33 6.66 2.66 7.32 3 8 C1.35 8 -0.3 8 -2 8 C-2.33 9.98 -2.66 11.96 -3 14 C-3.66 14 -4.32 14 -5 14 C-4.54636829 12.41531323 -4.08688548 10.83230076 -3.625 9.25 C-3.36976562 8.36828125 -3.11453125 7.4865625 -2.8515625 6.578125 C-2.0790066 4.23919428 -1.16374324 2.16557438 0 0 Z " fill="#776B64" transform="translate(34,88)"/>
<path d="M0 0 C0.33 0.99 0.66 1.98 1 3 C0.51789063 3.39832031 0.03578125 3.79664063 -0.4609375 4.20703125 C-1.09257812 4.73683594 -1.72421875 5.26664063 -2.375 5.8125 C-3.00148437 6.33457031 -3.62796875 6.85664063 -4.2734375 7.39453125 C-6.2221048 9.08225739 -6.2221048 9.08225739 -8 12 C-8.66 11.67 -9.32 11.34 -10 11 C-8.85455923 7.56367769 -7.7288492 6.66528415 -5 4.375 C-4.278125 3.76398438 -3.55625 3.15296875 -2.8125 2.5234375 C-2.214375 2.02070313 -1.61625 1.51796875 -1 1 C-0.67 0.67 -0.34 0.34 0 0 Z " fill="#F2ECE6" transform="translate(169,172)"/>
<path d="M0 0 C0.33 0 0.66 0 1 0 C1.0825 1.258125 1.165 2.51625 1.25 3.8125 C1.66557143 7.33811212 1.66557143 7.33811212 4.0625 10 C4.701875 10.33 5.34125 10.66 6 11 C3.36 11.33 0.72 11.66 -2 12 C-1.7834375 11.2575 -1.7834375 11.2575 -1.5625 10.5 C-0.78005593 7.02247078 -0.41305236 3.54044877 0 0 Z " fill="#8C7B6D" transform="translate(50,126)"/>
<path d="M0 0 C0.66 0.66 1.32 1.32 2 2 C0.875 4 0.875 4 -1 6 C-4.1875 6.25 -4.1875 6.25 -7 6 C-2.25 1.125 -2.25 1.125 0 0 Z " fill="#7C6E62" transform="translate(69,47)"/>
<path d="M0 0 C1.32 0 2.64 0 4 0 C4 1.65 4 3.3 4 5 C2.35 5 0.7 5 -1 5 C-0.67 3.35 -0.34 1.7 0 0 Z " fill="#938376" transform="translate(100,95)"/>
<path d="M0 0 C0.66 0.66 1.32 1.32 2 2 C1.34 3.65 0.68 5.3 0 7 C-1.32 6.34 -2.64 5.68 -4 5 C-3.67 4.34 -3.34 3.68 -3 3 C-2.34 3 -1.68 3 -1 3 C-0.67 2.01 -0.34 1.02 0 0 Z " fill="#7A695C" transform="translate(191,136)"/>
<path d="M0 0 C0.33 0.99 0.66 1.98 1 3 C-1.91482778 3.80967438 -3.46113217 4.21845993 -6.3125 3.0625 C-6.869375 2.711875 -7.42625 2.36125 -8 2 C-5.09399739 0.74335022 -3.20395416 0 0 0 Z " fill="#9F8F83" transform="translate(99,32)"/>
</svg>
