<svg version="1.1" id="Layer_1" xmlns="http://www.w3.org/2000/svg" xmlns:xlink="http://www.w3.org/1999/xlink" x="0px" y="0px"
	 width="100%" viewBox="0 0 225 225" enable-background="new 0 0 225 225" xml:space="preserve">
<path fill="#895F4E" opacity="1.000000" stroke="none" 
	d="
M124.000000,226.000000 
	C117.312355,226.000000 110.624710,226.000000 103.576706,225.692413 
	C104.042709,225.216751 104.869080,225.048691 105.695450,224.880615 
	C101.907631,222.676254 99.531517,221.651138 97.162674,220.609482 
	C92.123093,218.393463 87.087296,216.168854 81.995140,213.609955 
	C77.619354,209.520508 73.298378,205.768845 69.046997,201.659973 
	C72.329330,199.466675 75.643761,197.784607 78.725388,195.749939 
	C81.635216,193.828705 82.640709,191.696167 78.577530,189.641785 
	C76.542969,188.613083 74.660881,187.222076 72.858650,185.805588 
	C66.552917,180.849487 59.602345,179.688156 51.853832,181.696365 
	C47.147217,171.254349 42.582199,161.125687 38.290375,150.791824 
	C40.046062,148.075790 41.528553,145.564957 43.011040,143.054108 
	C42.585064,143.067520 42.159088,143.080933 41.733112,143.094345 
	C41.153061,140.397049 40.573009,137.699738 40.059296,134.649628 
	C41.775780,134.388596 43.452431,134.327866 45.069672,134.608948 
	C47.327675,135.001358 50.693462,136.805557 51.544735,135.957458 
	C53.597946,133.911942 55.687969,130.543091 55.404755,127.967186 
	C55.198963,126.095451 51.280064,124.549110 48.904419,123.033737 
	C47.716206,122.275810 45.518276,122.257507 45.085529,121.308189 
	C43.433525,117.684235 41.686790,113.895882 41.203304,110.015915 
	C40.849377,107.175629 42.621227,104.123672 43.028099,101.109703 
	C43.195873,99.866928 42.270306,98.476562 41.842026,97.153320 
	C40.801781,97.916466 39.252098,98.463829 38.819790,99.484482 
	C37.666359,102.207680 35.928635,103.420273 33.016060,102.544785 
	C34.288132,95.066574 35.568520,88.024872 37.198517,80.848938 
	C40.707722,77.318649 42.002323,73.525009 40.063412,68.673065 
	C42.713524,62.198212 45.337978,56.086853 48.269295,49.831001 
	C51.393257,45.463081 54.210358,41.239651 57.277794,36.899918 
	C58.005352,36.507706 58.482578,36.231792 59.227745,36.206802 
	C59.336487,42.565201 58.451618,48.771267 59.263435,54.746822 
	C59.841526,59.001961 57.822353,61.623112 56.220886,64.716660 
	C55.261803,66.569321 52.993530,68.152985 52.882442,69.954285 
	C52.617760,74.246201 52.177319,79.159401 53.986671,82.711960 
	C55.086433,84.871269 60.289005,85.868820 63.558167,85.694420 
	C66.059807,85.560959 68.976181,83.226463 70.728569,81.073647 
	C74.523895,76.411057 78.799759,71.645348 80.818092,66.163048 
	C83.045113,60.113899 82.483978,53.030373 88.371666,48.501724 
	C88.791718,48.178627 89.062233,47.226486 88.927704,46.684658 
	C87.670158,41.619591 91.931976,40.430534 94.742126,38.197071 
	C95.560600,37.546555 96.255386,36.740417 97.357437,35.964775 
	C100.479134,33.593960 103.139297,31.210482 102.009323,26.626286 
	C102.009560,25.504576 102.010826,24.756769 102.357643,23.951216 
	C103.987091,22.923891 105.491310,22.139235 106.499390,20.938160 
	C107.773987,19.419558 108.644585,17.561872 109.689445,15.850443 
	C108.125626,14.901107 106.561806,13.951771 104.538177,13.000990 
	C94.839996,11.262071 87.552399,17.152250 79.309921,19.310106 
	C77.897484,19.679876 76.409332,19.760382 75.112152,19.671253 
	C82.075241,14.548055 88.299606,8.713060 97.316422,6.977305 
	C103.840385,6.991113 109.987907,6.432471 115.976166,7.168878 
	C121.047684,7.792549 128.228531,5.165653 129.824692,13.694454 
	C129.915344,14.178797 130.815567,14.529932 131.363449,14.907602 
	C137.781311,19.331722 145.285324,20.464214 152.215363,18.310301 
	C156.342163,17.027657 159.889343,16.009020 164.337433,16.995930 
	C165.113541,16.999121 165.557068,16.999023 166.054016,17.343466 
	C167.073563,18.126135 168.039703,18.564266 169.347168,19.058796 
	C173.696274,22.387030 177.411926,26.257381 183.137772,25.765797 
	C183.007690,25.789555 183.258362,25.705088 183.199829,26.014692 
	C183.757812,26.555792 184.374329,26.787287 185.221954,27.095036 
	C185.743103,27.349018 185.940628,27.599640 185.932831,28.220943 
	C186.297623,30.126528 186.574692,33.028049 187.284546,33.138096 
	C193.134262,34.044991 194.339294,39.190094 196.628281,42.969963 
	C194.851227,42.274944 193.434464,41.623859 191.754272,40.851707 
	C191.435883,41.879669 190.912933,42.670536 191.123657,43.023975 
	C193.780762,47.480770 196.503586,51.900707 199.343292,56.242638 
	C199.619598,56.665123 201.088013,56.860779 201.467377,56.535999 
	C202.065338,56.024105 202.584854,54.922794 202.468964,54.174553 
	C202.195770,52.410725 201.528015,50.708004 201.414230,48.991596 
	C204.427292,52.214520 207.480850,55.173138 209.540985,58.710342 
	C211.554565,62.167625 212.554611,66.215202 213.675964,70.177895 
	C212.948959,71.203331 212.005127,72.243591 212.226440,72.876244 
	C214.255005,78.674843 212.577774,83.882515 209.627167,89.161301 
	C205.366196,89.880974 201.488708,90.546944 197.583511,90.930458 
	C196.377991,91.048851 194.538345,90.812325 193.952118,90.023026 
	C191.966217,87.349129 190.128998,84.483681 188.749298,81.456963 
	C185.529480,74.393425 180.386856,69.171265 174.004272,64.606819 
	C173.209503,59.320675 172.424286,54.419353 171.600220,49.275555 
	C169.914871,49.174824 168.457428,49.087719 166.751038,48.999313 
	C166.502075,48.998016 166.004150,48.997917 165.963348,48.644928 
	C163.399811,46.614445 161.051926,44.284954 158.278763,43.541187 
	C156.940720,43.182316 153.244537,45.854588 153.281174,47.074306 
	C153.504898,54.522411 147.279678,57.860889 143.665634,63.016678 
	C142.889816,63.016510 142.446472,63.018726 141.665192,63.016785 
	C140.551086,63.340878 139.774933,63.669121 138.548920,63.997261 
	C135.399796,64.002129 132.700546,64.007095 129.695435,63.781078 
	C127.917259,63.033478 126.479332,62.359669 124.966408,62.028702 
	C119.703789,60.877441 114.419067,59.825443 109.134979,58.774799 
	C105.992447,58.149967 102.614189,56.640167 99.751122,57.301037 
	C97.220924,57.885075 93.957886,60.602741 93.373238,62.961929 
	C92.643852,65.905197 93.290642,70.482346 95.252769,72.445808 
	C97.324890,74.519333 101.150467,72.954300 103.463699,70.148651 
	C104.274940,69.164726 105.540154,68.479576 106.712784,67.883812 
	C109.792290,66.319237 111.741417,66.959435 113.083374,70.514198 
	C115.314667,76.424698 117.448334,82.536087 120.824402,87.791100 
	C122.973816,91.136780 123.030479,93.746826 121.999695,96.999695 
	C122.000000,97.000000 121.999390,96.999390 121.626251,97.046684 
	C116.906593,99.769127 119.023598,102.364288 121.633286,104.468071 
	C123.532051,105.998756 125.898422,106.995827 128.144989,108.040024 
	C135.260010,111.347031 140.350189,115.867928 139.036667,124.711662 
	C138.617676,127.532654 139.892502,129.206680 142.985367,129.453247 
	C142.989563,132.259918 142.991119,134.623688 142.625946,136.997742 
	C140.928619,138.091553 139.251892,138.938492 138.323318,140.296844 
	C132.120026,149.371399 135.257736,156.688156 144.375946,160.994431 
	C145.500153,160.995010 146.249664,160.993057 147.343307,160.959671 
	C149.128571,159.287537 150.569672,157.646820 152.228546,155.897568 
	C152.717026,155.588867 152.902512,155.328094 153.357910,154.944305 
	C157.296005,151.743164 157.919510,148.384766 155.628250,145.636917 
	C153.810074,143.456421 151.645691,141.294128 150.729492,138.732346 
	C150.170456,137.169144 151.292755,134.606537 152.376511,132.966278 
	C153.453064,131.336975 155.427048,130.300644 157.386429,129.003143 
	C159.131149,128.270920 160.508209,127.560074 161.860275,126.804482 
	C164.585281,125.281639 166.711853,121.276230 170.652924,124.838913 
	C171.127243,125.267693 172.279205,125.079315 173.092728,124.979141 
	C178.875076,124.267128 182.425140,127.721336 185.450241,131.809769 
	C189.117798,136.766479 197.365555,139.644287 202.883713,136.931183 
	C207.384460,134.718292 211.445419,131.610870 215.870285,128.792480 
	C217.698776,131.355453 219.694275,133.264923 220.575058,135.595642 
	C221.887085,139.067612 216.950546,150.512802 213.987732,153.077988 
	C211.059952,155.612854 207.367981,158.107529 206.002548,161.436569 
	C202.730286,169.414688 200.627319,177.872406 197.928070,186.432037 
	C197.061676,187.130081 196.319641,187.532639 195.269562,187.858551 
	C192.341476,186.048859 187.362869,187.873901 185.146240,190.803192 
	C178.475677,199.618362 171.530182,208.194916 159.628540,211.008911 
	C158.166687,211.667465 157.080307,212.327820 155.620560,212.987808 
	C154.500549,212.999283 153.753922,213.011108 152.564270,213.014389 
	C144.004456,213.689377 135.826004,213.981598 127.800781,215.246277 
	C124.524483,215.762573 120.282303,216.694046 119.263588,221.670120 
	C120.606956,222.144852 121.817757,222.572723 123.149948,223.296021 
	C123.514236,224.394287 123.757118,225.197144 124.000000,226.000000 
M152.794617,198.580276 
	C158.063644,197.379974 163.379150,196.348145 168.583313,194.912674 
	C171.450851,194.121735 174.626297,193.225739 176.785355,191.361023 
	C180.434189,188.209610 183.129639,183.970139 186.702759,180.710892 
	C190.396530,177.341599 193.950653,173.914810 195.963531,169.344421 
	C196.838943,167.356705 197.600586,163.497223 196.719910,162.871307 
	C192.787827,160.076645 194.879532,155.775177 193.293106,152.554504 
	C192.884171,151.724304 192.458145,150.902512 192.645920,151.273239 
	C186.887589,151.911407 182.002243,152.750397 177.093063,152.927063 
	C169.745041,153.191483 166.038818,155.574570 162.984299,162.440735 
	C158.696671,172.078720 153.807007,180.906158 142.166580,183.768219 
	C138.116837,184.763962 134.521439,188.012680 130.994858,190.607925 
	C127.964012,192.838379 128.823288,194.676300 131.936539,196.562057 
	C138.365768,200.456467 145.140717,199.689911 152.794617,198.580276 
M114.194283,168.861633 
	C118.907959,164.725403 120.202652,159.638016 118.705490,154.576279 
	C116.017593,152.865250 114.104034,150.821899 111.866501,150.364944 
	C101.909042,148.331436 91.875114,146.638062 81.814537,145.202209 
	C80.908791,145.072952 79.063972,147.526825 78.677078,149.041992 
	C78.375580,150.222763 79.406204,152.816696 80.288940,153.041916 
	C84.196541,154.038849 88.272682,154.358582 92.270409,155.027420 
	C93.792664,155.282104 96.095985,155.357895 96.618919,156.303207 
	C98.662262,159.996918 99.987953,164.079880 101.884041,167.866104 
	C102.817749,169.730606 104.136253,172.275742 105.772041,172.725464 
	C108.768204,173.549179 112.102264,172.988541 114.194283,168.861633 
M124.845924,130.021255 
	C124.502769,128.472855 124.596550,126.604752 123.738998,125.432755 
	C120.451675,120.940048 116.955200,116.588043 113.324844,112.365746 
	C112.146927,110.995781 110.409790,109.466660 108.771980,109.261902 
	C105.070549,108.799164 101.271614,109.116447 96.932076,109.116447 
	C97.175125,111.671043 96.673988,114.705879 97.649956,115.295425 
	C103.380692,118.757118 101.839027,124.147339 101.992775,129.120636 
	C102.153587,134.322571 104.796143,136.582062 109.855858,137.101273 
	C116.129456,137.745041 120.630196,135.115891 124.845924,130.021255 
M102.213326,209.784927 
	C106.175659,206.075806 109.866539,209.385193 113.746681,210.039627 
	C116.072929,210.431976 119.197701,210.453857 120.897308,209.198563 
	C123.605293,207.198547 121.531075,197.477570 118.718796,195.303329 
	C113.409225,191.198395 107.651695,192.264526 101.617744,192.817566 
	C97.114075,193.230331 95.029854,195.401459 94.039734,199.150040 
	C93.371788,201.678879 93.002701,204.383423 93.102188,206.986343 
	C93.176399,208.928009 94.214050,210.832825 94.822662,212.754044 
	C97.151711,211.973007 99.480766,211.191971 102.213326,209.784927 
M169.984390,32.802910 
	C168.123245,31.511698 166.276978,30.198376 164.397446,28.934521 
	C161.662277,27.095310 159.484894,28.058399 158.345795,30.751505 
	C157.188828,33.486816 158.299576,35.817684 161.254715,36.523373 
	C166.252350,37.716812 171.327728,38.584717 176.691467,39.653461 
	C176.691467,37.749260 176.691467,36.188251 176.691467,34.633648 
	C174.521545,34.054008 172.627075,33.547955 169.984390,32.802910 
M58.008877,115.361771 
	C58.957802,116.029198 59.835167,116.855888 60.874214,117.322731 
	C62.103436,117.875023 63.962059,118.822998 64.669144,118.332565 
	C65.816505,117.536758 67.128212,115.462669 66.819420,114.364311 
	C65.859985,110.951706 65.592888,106.528275 60.070061,106.915291 
	C58.590237,107.018982 57.043674,106.170227 53.942837,105.328468 
	C55.344967,109.088577 56.412468,111.951309 58.008877,115.361771 
z"/>
<path fill="#8F6B5E" opacity="1.000000" stroke="none" 
	d="
M198.052414,186.136551 
	C200.627319,177.872406 202.730286,169.414688 206.002548,161.436569 
	C207.367981,158.107529 211.059952,155.612854 213.987732,153.077988 
	C216.950546,150.512802 221.887085,139.067612 220.575058,135.595642 
	C219.694275,133.264923 217.698776,131.355453 215.870285,128.792480 
	C211.445419,131.610870 207.384460,134.718292 202.883713,136.931183 
	C197.365555,139.644287 189.117798,136.766479 185.450241,131.809769 
	C182.425140,127.721336 178.875076,124.267128 173.092728,124.979141 
	C172.279205,125.079315 171.127243,125.267693 170.652924,124.838913 
	C166.711853,121.276230 164.585281,125.281639 161.860275,126.804482 
	C160.508209,127.560074 159.131149,128.270920 156.931976,129.001465 
	C154.788116,129.000610 153.477661,128.995300 152.167236,129.000885 
	C145.817596,129.027954 145.750244,129.280029 146.702118,135.833420 
	C146.973312,137.700607 146.117661,139.731476 145.778748,141.687302 
	C145.238251,141.636185 144.697754,141.585068 144.157257,141.533951 
	C143.769058,140.018463 143.380859,138.502960 142.992676,136.987457 
	C142.991119,134.623688 142.989563,132.259918 143.241333,129.238739 
	C143.165771,126.267227 141.813187,122.478119 142.675156,121.879898 
	C148.015991,118.173248 143.441803,116.790344 141.203491,114.989861 
	C145.779404,110.336273 143.725006,104.925522 143.614746,99.868965 
	C143.601044,99.240494 142.006332,98.303123 141.020203,98.094200 
	C133.916718,96.589233 130.885254,98.147827 127.289131,106.088982 
	C125.212242,102.520172 123.605812,99.759781 121.999390,96.999390 
	C121.999390,96.999390 122.000000,97.000000 122.364197,96.957214 
	C126.957672,94.362129 126.398170,89.916817 126.978477,85.969063 
	C128.052887,78.659882 129.000732,71.332100 130.001282,64.012062 
	C132.700546,64.007095 135.399796,64.002129 138.747864,64.251450 
	C140.265503,64.010811 141.134323,63.515873 142.003143,63.020935 
	C142.446472,63.018726 142.889816,63.016510 143.754395,63.402225 
	C150.391617,66.751328 153.261429,65.415276 154.021774,59.206264 
	C155.092133,50.465572 156.807404,49.004280 166.004150,48.997917 
	C166.004150,48.997917 166.502075,48.998016 166.751923,49.404282 
	C167.853439,53.072845 170.201660,56.878693 169.254135,59.487488 
	C167.092270,65.439590 170.715347,64.691422 174.013824,64.991646 
	C180.386856,69.171265 185.529480,74.393425 188.749298,81.456963 
	C190.128998,84.483681 191.966217,87.349129 193.952118,90.023026 
	C194.538345,90.812325 196.377991,91.048851 197.583511,90.930458 
	C201.488708,90.546944 205.366196,89.880974 209.979248,89.218849 
	C212.287292,91.158722 213.870453,93.203552 216.108215,96.093895 
	C217.001190,92.750671 217.502731,90.872978 218.366486,89.039162 
	C219.813507,90.772324 220.864761,92.484436 221.993774,94.143646 
	C222.890808,95.461952 223.882996,96.715523 224.907013,98.360214 
	C225.030075,99.460304 225.079056,100.198021 224.856796,101.128204 
	C225.057037,102.213768 225.528519,103.106880 226.000000,104.000000 
	C226.000000,111.687576 226.000000,119.375153 225.671356,127.661667 
	C225.150024,129.642990 224.957352,131.025391 224.529572,132.668060 
	C224.232407,133.613266 224.170380,134.298203 224.001862,135.312744 
	C223.664536,136.756409 223.433670,137.870453 223.060913,139.307556 
	C222.665955,140.758331 222.412872,141.886002 222.058487,143.324585 
	C221.908340,144.068405 221.859497,144.501358 221.579865,145.115540 
	C221.262451,145.866104 221.175827,146.435440 220.910706,147.324921 
	C216.535156,160.637756 209.936600,172.357498 201.724976,183.193878 
	C200.806259,184.406250 199.291016,185.166580 198.052414,186.136551 
z"/>
<path fill="#5E4238" opacity="1.000000" stroke="none" 
	d="
M9.184303,72.015984 
	C12.930618,64.791893 16.676931,57.567799 20.812483,50.404213 
	C24.328011,53.360477 27.217897,53.536423 28.536518,50.830444 
	C30.749578,46.288960 33.148624,41.765862 31.872061,36.407269 
	C43.366016,23.566887 57.581360,14.756966 74.127121,8.135685 
	C77.322914,6.997700 79.812828,6.077099 82.302750,5.156496 
	C84.524017,4.015947 86.745285,2.875400 88.983276,1.367427 
	C93.689255,1.000000 98.378510,1.000000 103.679863,1.267651 
	C104.853363,1.820727 105.414757,2.106152 105.869125,2.337162 
	C102.909264,3.859869 99.890099,5.413080 96.870941,6.966292 
	C88.299606,8.713060 82.075241,14.548055 74.827713,19.801357 
	C73.604958,20.493834 72.822632,20.752941 71.680840,21.012520 
	C70.553154,21.684399 69.784943,22.355808 69.008621,23.013037 
	C69.000496,22.998857 69.027107,23.018547 68.661240,23.018166 
	C62.431568,26.080404 57.556427,30.188765 54.004871,36.394711 
	C55.243092,36.649315 56.135273,36.832767 57.027458,37.016220 
	C54.210358,41.239651 51.393257,45.463081 47.976673,49.709366 
	C44.249741,51.342560 40.753036,52.500645 38.087654,54.676899 
	C34.701309,57.441818 32.515591,61.938599 28.865532,64.059273 
	C23.061813,67.431229 21.854191,72.585182 22.192209,78.016663 
	C22.578930,84.230759 24.383461,90.356613 25.571955,96.520813 
	C29.152899,91.913857 31.518217,86.933044 34.091927,82.062347 
	C34.571465,81.154823 35.888012,80.689583 36.849571,80.260208 
	C36.880871,80.500191 36.848911,80.983170 36.848907,80.983170 
	C35.568520,88.024872 34.288132,95.066574 33.003185,102.884415 
	C32.979313,104.113007 32.960003,104.565445 32.573395,105.021309 
	C29.714218,107.893784 27.222342,110.762833 24.145935,114.304901 
	C16.428267,98.491791 14.477276,82.355339 16.953053,65.115555 
	C15.534350,65.982666 14.781392,67.294899 13.737571,68.307205 
	C12.337592,69.664909 10.712656,70.790649 9.184303,72.015984 
z"/>
<path fill="#5E4136" opacity="1.000000" stroke="none" 
	d="
M45.922112,203.217407 
	C38.665173,196.057419 31.408234,188.897430 24.038204,181.091553 
	C23.495741,180.047531 23.066370,179.649399 22.637001,179.251266 
	C22.637003,179.251266 22.876404,179.087051 22.864216,178.826065 
	C23.197489,176.731049 23.263374,174.783463 23.951799,173.088745 
	C25.076488,170.320084 27.836926,167.642471 27.682148,165.059799 
	C27.440695,161.030807 25.657444,156.968079 23.936939,153.188461 
	C22.126341,149.210953 19.179535,145.731323 17.523808,141.707199 
	C15.030723,135.647903 11.594995,133.182602 6.722301,133.971451 
	C4.750012,131.954529 3.324563,130.496826 1.899114,129.039124 
	C1.899114,129.039124 1.448113,129.052765 1.224056,129.026382 
	C1.000000,121.979050 1.000000,114.958107 1.327734,107.604530 
	C4.007568,109.405060 6.748452,111.247307 8.615910,113.743103 
	C11.095293,117.056664 12.774672,120.956139 15.021344,124.460548 
	C16.818312,127.263512 19.326136,129.655579 20.852209,132.577957 
	C23.920332,138.453308 26.248682,144.723343 29.446051,150.519547 
	C31.254955,153.798737 34.281300,154.503387 37.276649,150.976501 
	C37.523170,150.986343 38.017181,150.997009 38.017181,150.997009 
	C42.582199,161.125687 47.147217,171.254349 51.958652,181.953979 
	C52.476421,183.009552 52.747772,183.494171 52.730797,184.244522 
	C50.308491,193.549347 56.504158,197.810226 65.322723,200.180939 
	C66.722069,200.923111 67.849739,201.470154 68.977402,202.017181 
	C73.298378,205.768845 77.619354,209.520508 81.981079,213.624786 
	C82.021828,213.977432 81.995926,214.004272 81.624023,213.999268 
	C75.572929,214.328094 70.790337,212.067184 66.286964,208.905746 
	C63.313175,206.818085 60.427567,204.507294 57.200748,202.903458 
	C53.562405,201.095062 49.515789,198.005051 45.922112,203.217407 
M46.482975,194.587296 
	C46.482975,194.587296 46.418892,194.478973 46.482975,194.587296 
z"/>
<path fill="#5A3A2A" opacity="1.000000" stroke="none" 
	d="
M37.030125,150.966644 
	C34.281300,154.503387 31.254955,153.798737 29.446051,150.519547 
	C26.248682,144.723343 23.920332,138.453308 20.852209,132.577957 
	C19.326136,129.655579 16.818312,127.263512 15.021344,124.460548 
	C12.774672,120.956139 11.095293,117.056664 8.615910,113.743103 
	C6.748452,111.247307 4.007568,109.405060 1.327734,107.135956 
	C1.000000,101.645073 1.000000,96.290138 1.000000,90.467606 
	C6.494502,85.533272 4.967621,77.872658 9.030365,72.350311 
	C10.712656,70.790649 12.337592,69.664909 13.737571,68.307205 
	C14.781392,67.294899 15.534350,65.982666 16.953053,65.115555 
	C14.477276,82.355339 16.428267,98.491791 24.145935,114.304901 
	C27.222342,110.762833 29.714218,107.893784 32.585808,105.446732 
	C32.730186,110.656242 32.164513,115.456650 32.350857,120.227684 
	C32.543743,125.166191 33.466248,130.076187 34.092445,135.389771 
	C35.086895,140.842819 36.058510,145.904724 37.030125,150.966644 
M25.516008,120.410950 
	C25.516008,120.410950 25.581293,120.521027 25.516008,120.410950 
z"/>
<path fill="#8E6C5E" opacity="1.000000" stroke="none" 
	d="
M97.316422,6.977305 
	C99.890099,5.413080 102.909264,3.859869 105.869125,2.337162 
	C105.414757,2.106152 104.853363,1.820727 104.145981,1.267651 
	C111.354256,1.000000 118.708504,1.000000 126.711899,1.344009 
	C132.907227,2.892475 138.453415,4.096931 144.015366,5.656608 
	C144.299866,6.576199 144.459473,7.536873 144.853714,7.645428 
	C150.661179,9.244558 154.535904,15.286630 161.326935,14.763058 
	C162.157364,14.699035 163.109268,16.211025 164.004883,16.992641 
	C159.889343,16.009020 156.342163,17.027657 152.215363,18.310301 
	C145.285324,20.464214 137.781311,19.331722 131.363449,14.907602 
	C130.815567,14.529932 129.915344,14.178797 129.824692,13.694454 
	C128.228531,5.165653 121.047684,7.792549 115.976166,7.168878 
	C109.987907,6.432471 103.840385,6.991113 97.316422,6.977305 
z"/>
<path fill="#5E4136" opacity="1.000000" stroke="none" 
	d="
M100.375000,226.000000 
	C94.203346,224.487808 88.406693,222.975601 82.308426,220.889038 
	C82.673782,219.092834 83.340759,217.870956 83.994141,216.674026 
	C83.420914,215.908157 82.708420,214.956207 81.995926,214.004272 
	C81.995926,214.004272 82.021828,213.977432 82.035889,213.962585 
	C87.087296,216.168854 92.123093,218.393463 97.162674,220.609482 
	C99.531517,221.651138 101.907631,222.676254 105.695450,224.880615 
	C104.869080,225.048691 104.042709,225.216751 103.108170,225.692413 
	C102.250000,226.000000 101.500000,226.000000 100.375000,226.000000 
z"/>
<path fill="#8E6F62" opacity="1.000000" stroke="none" 
	d="
M128.001358,224.855789 
	C127.108803,225.035583 126.216240,225.215363 125.161842,225.697571 
	C125.000000,226.000000 124.500000,226.000000 124.250000,226.000000 
	C123.757118,225.197144 123.514236,224.394287 123.535362,223.296875 
	C125.200027,223.620163 126.600693,224.237976 128.001358,224.855789 
z"/>
<path fill="#896B5F" opacity="1.000000" stroke="none" 
	d="
M224.856796,101.128204 
	C225.128036,100.935745 225.568176,100.911560 225.784088,100.955780 
	C226.000000,101.750000 226.000000,102.500000 226.000000,103.625000 
	C225.528519,103.106880 225.057037,102.213768 224.856796,101.128204 
z"/>
<path fill="#81523B" opacity="1.000000" stroke="none" 
	d="
M72.040314,21.012049 
	C72.822632,20.752941 73.604958,20.493834 74.671715,20.104618 
	C76.409332,19.760382 77.897484,19.679876 79.309921,19.310106 
	C87.552399,17.152250 94.839996,11.262071 104.584045,13.318152 
	C105.077675,15.099063 105.418861,16.681190 104.972771,17.996256 
	C104.261200,20.093887 103.025917,22.013865 102.012085,24.008963 
	C102.010826,24.756769 102.009560,25.504576 101.730881,26.827520 
	C99.971275,30.270309 98.489075,33.137962 97.006866,36.005615 
	C96.255386,36.740417 95.560600,37.546555 94.742126,38.197071 
	C91.931976,40.430534 87.670158,41.619591 88.927704,46.684658 
	C89.062233,47.226486 88.791718,48.178627 88.371666,48.501724 
	C82.483978,53.030373 83.045113,60.113899 80.818092,66.163048 
	C78.799759,71.645348 74.523895,76.411057 70.728569,81.073647 
	C68.976181,83.226463 66.059807,85.560959 63.558167,85.694420 
	C60.289005,85.868820 55.086433,84.871269 53.986671,82.711960 
	C52.177319,79.159401 52.617760,74.246201 52.882442,69.954285 
	C52.993530,68.152985 55.261803,66.569321 56.220886,64.716660 
	C57.822353,61.623112 59.841526,59.001961 59.263435,54.746822 
	C58.451618,48.771267 59.336487,42.565201 59.385704,35.912083 
	C61.287838,33.038483 63.367100,30.764299 65.289253,28.364288 
	C66.645576,26.670773 67.788765,24.806555 69.027107,23.018547 
	C69.027107,23.018547 69.000496,22.998857 69.330017,22.985981 
	C70.453125,22.319418 71.246719,21.665733 72.040314,21.012049 
z"/>
<path fill="#81523B" opacity="1.000000" stroke="none" 
	d="
M152.401413,198.717194 
	C145.140717,199.689911 138.365768,200.456467 131.936539,196.562057 
	C128.823288,194.676300 127.964012,192.838379 130.994858,190.607925 
	C134.521439,188.012680 138.116837,184.763962 142.166580,183.768219 
	C153.807007,180.906158 158.696671,172.078720 162.984299,162.440735 
	C166.038818,155.574570 169.745041,153.191483 177.093063,152.927063 
	C182.002243,152.750397 186.887589,151.911407 192.645920,151.273239 
	C192.458145,150.902512 192.884171,151.724304 193.293106,152.554504 
	C194.879532,155.775177 192.787827,160.076645 196.719910,162.871307 
	C197.600586,163.497223 196.838943,167.356705 195.963531,169.344421 
	C193.950653,173.914810 190.396530,177.341599 186.702759,180.710892 
	C183.129639,183.970139 180.434189,188.209610 176.785355,191.361023 
	C174.626297,193.225739 171.450851,194.121735 168.583313,194.912674 
	C163.379150,196.348145 158.063644,197.379974 152.401413,198.717194 
z"/>
<path fill="#8F6A5B" opacity="1.000000" stroke="none" 
	d="
M129.695435,63.781078 
	C129.000732,71.332100 128.052887,78.659882 126.978477,85.969063 
	C126.398170,89.916817 126.957672,94.362129 122.363892,96.956909 
	C123.030479,93.746826 122.973816,91.136780 120.824402,87.791100 
	C117.448334,82.536087 115.314667,76.424698 113.083374,70.514198 
	C111.741417,66.959435 109.792290,66.319237 106.712784,67.883812 
	C105.540154,68.479576 104.274940,69.164726 103.463699,70.148651 
	C101.150467,72.954300 97.324890,74.519333 95.252769,72.445808 
	C93.290642,70.482346 92.643852,65.905197 93.373238,62.961929 
	C93.957886,60.602741 97.220924,57.885075 99.751122,57.301037 
	C102.614189,56.640167 105.992447,58.149967 109.134979,58.774799 
	C114.419067,59.825443 119.703789,60.877441 124.966408,62.028702 
	C126.479332,62.359669 127.917259,63.033478 129.695435,63.781078 
z"/>
<path fill="#8F6A5C" opacity="1.000000" stroke="none" 
	d="
M113.905304,169.096848 
	C112.102264,172.988541 108.768204,173.549179 105.772041,172.725464 
	C104.136253,172.275742 102.817749,169.730606 101.884041,167.866104 
	C99.987953,164.079880 98.662262,159.996918 96.618919,156.303207 
	C96.095985,155.357895 93.792664,155.282104 92.270409,155.027420 
	C88.272682,154.358582 84.196541,154.038849 80.288940,153.041916 
	C79.406204,152.816696 78.375580,150.222763 78.677078,149.041992 
	C79.063972,147.526825 80.908791,145.072952 81.814537,145.202209 
	C91.875114,146.638062 101.909042,148.331436 111.866501,150.364944 
	C114.104034,150.821899 116.017593,152.865250 118.705490,154.576279 
	C120.202652,159.638016 118.907959,164.725403 113.905304,169.096848 
z"/>
<path fill="#81523C" opacity="1.000000" stroke="none" 
	d="
M124.691849,130.373444 
	C120.630196,135.115891 116.129456,137.745041 109.855858,137.101273 
	C104.796143,136.582062 102.153587,134.322571 101.992775,129.120636 
	C101.839027,124.147339 103.380692,118.757118 97.649956,115.295425 
	C96.673988,114.705879 97.175125,111.671043 96.932076,109.116447 
	C101.271614,109.116447 105.070549,108.799164 108.771980,109.261902 
	C110.409790,109.466660 112.146927,110.995781 113.324844,112.365746 
	C116.955200,116.588043 120.451675,120.940048 123.738998,125.432755 
	C124.596550,126.604752 124.502769,128.472855 124.691849,130.373444 
z"/>
<path fill="#62483D" opacity="1.000000" stroke="none" 
	d="
M36.818272,80.020226 
	C35.888012,80.689583 34.571465,81.154823 34.091927,82.062347 
	C31.518217,86.933044 29.152899,91.913857 25.571955,96.520813 
	C24.383461,90.356613 22.578930,84.230759 22.192209,78.016663 
	C21.854191,72.585182 23.061813,67.431229 28.865532,64.059273 
	C32.515591,61.938599 34.701309,57.441818 38.087654,54.676899 
	C40.753036,52.500645 44.249741,51.342560 47.669811,49.853859 
	C45.337978,56.086853 42.713524,62.198212 40.002785,69.038696 
	C38.883759,73.185295 37.851017,76.602760 36.818272,80.020226 
z"/>
<path fill="#81523D" opacity="1.000000" stroke="none" 
	d="
M34.069611,134.998657 
	C33.466248,130.076187 32.543743,125.166191 32.350857,120.227684 
	C32.164513,115.456650 32.730186,110.656242 32.953110,105.443314 
	C32.960003,104.565445 32.979313,104.113007 33.011497,103.320930 
	C35.928635,103.420273 37.666359,102.207680 38.819790,99.484482 
	C39.252098,98.463829 40.801781,97.916466 41.842026,97.153320 
	C42.270306,98.476562 43.195873,99.866928 43.028099,101.109703 
	C42.621227,104.123672 40.849377,107.175629 41.203304,110.015915 
	C41.686790,113.895882 43.433525,117.684235 45.085529,121.308189 
	C45.518276,122.257507 47.716206,122.275810 48.904419,123.033737 
	C51.280064,124.549110 55.198963,126.095451 55.404755,127.967186 
	C55.687969,130.543091 53.597946,133.911942 51.544735,135.957458 
	C50.693462,136.805557 47.327675,135.001358 45.069672,134.608948 
	C43.452431,134.327866 41.775780,134.388596 39.634926,134.648773 
	C37.452679,135.000046 35.761143,134.999359 34.069611,134.998657 
z"/>
<path fill="#81523B" opacity="1.000000" stroke="none" 
	d="
M102.011574,210.097931 
	C99.480766,211.191971 97.151711,211.973007 94.822662,212.754059 
	C94.214050,210.832825 93.176399,208.928009 93.102188,206.986343 
	C93.002701,204.383423 93.371788,201.678879 94.039734,199.150040 
	C95.029854,195.401459 97.114075,193.230331 101.617744,192.817566 
	C107.651695,192.264526 113.409225,191.198395 118.718796,195.303329 
	C121.531075,197.477570 123.605293,207.198547 120.897308,209.198563 
	C119.197701,210.453857 116.072929,210.431976 113.746681,210.039627 
	C109.866539,209.385193 106.175659,206.075806 102.011574,210.097931 
z"/>
<path fill="#7F523C" opacity="1.000000" stroke="none" 
	d="
M69.046997,201.659973 
	C67.849739,201.470154 66.722069,200.923111 65.173416,199.872742 
	C60.841324,194.239227 56.930225,189.109009 53.019123,183.978806 
	C52.747772,183.494171 52.476421,183.009552 52.100246,182.267303 
	C59.602345,179.688156 66.552917,180.849487 72.858650,185.805588 
	C74.660881,187.222076 76.542969,188.613083 78.577530,189.641785 
	C82.640709,191.696167 81.635216,193.828705 78.725388,195.749939 
	C75.643761,197.784607 72.329330,199.466675 69.046997,201.659973 
z"/>
<path fill="#8F6A5B" opacity="1.000000" stroke="none" 
	d="
M121.626251,97.046684 
	C123.605812,99.759781 125.212242,102.520172 127.289131,106.088982 
	C130.885254,98.147827 133.916718,96.589233 141.020203,98.094200 
	C142.006332,98.303123 143.601044,99.240494 143.614746,99.868965 
	C143.725006,104.925522 145.779404,110.336273 141.203491,114.989861 
	C143.441803,116.790344 148.015991,118.173248 142.675156,121.879898 
	C141.813187,122.478119 143.165771,126.267227 143.238708,128.795837 
	C139.892502,129.206680 138.617676,127.532654 139.036667,124.711662 
	C140.350189,115.867928 135.260010,111.347031 128.144989,108.040024 
	C125.898422,106.995827 123.532051,105.998756 121.633286,104.468071 
	C119.023598,102.364288 116.906593,99.769127 121.626251,97.046684 
z"/>
<path fill="#8E6F62" opacity="1.000000" stroke="none" 
	d="
M195.269562,187.858551 
	C194.941757,189.375809 194.652679,191.159103 193.618301,192.205933 
	C176.504684,209.525375 156.019684,220.423065 131.623108,223.919800 
	C137.413086,221.370605 143.525665,219.301590 149.473618,216.835464 
	C150.928345,216.232315 151.843857,214.328674 153.007278,213.022949 
	C153.753922,213.011108 154.500549,212.999283 155.812897,213.233765 
	C157.587051,212.656982 158.795532,211.833847 160.003998,211.010712 
	C171.530182,208.194916 178.475677,199.618362 185.146240,190.803192 
	C187.362869,187.873901 192.341476,186.048859 195.269562,187.858551 
z"/>
<path fill="#8F6A5B" opacity="1.000000" stroke="none" 
	d="
M142.625946,136.997742 
	C143.380859,138.502960 143.769058,140.018463 144.157257,141.533951 
	C144.697754,141.585068 145.238251,141.636185 145.778748,141.687302 
	C146.117661,139.731476 146.973312,137.700607 146.702118,135.833420 
	C145.750244,129.280029 145.817596,129.027954 152.167236,129.000885 
	C153.477661,128.995300 154.788116,129.000610 156.553009,129.002594 
	C155.427048,130.300644 153.453064,131.336975 152.376511,132.966278 
	C151.292755,134.606537 150.170456,137.169144 150.729492,138.732346 
	C151.645691,141.294128 153.810074,143.456421 155.628250,145.636917 
	C157.919510,148.384766 157.296005,151.743164 153.356766,154.520721 
	C152.609421,151.737106 152.878387,148.872559 151.637238,147.019440 
	C150.451416,145.248901 147.693893,144.530991 145.627243,143.350388 
	C144.751648,145.138443 143.189087,146.907852 143.139954,148.718338 
	C143.029251,152.798737 143.667648,156.899445 144.001221,160.991898 
	C135.257736,156.688156 132.120026,149.371399 138.323318,140.296844 
	C139.251892,138.938492 140.928619,138.091553 142.625946,136.997742 
z"/>
<path fill="#896B5F" opacity="1.000000" stroke="none" 
	d="
M185.932831,28.220943 
	C204.077087,42.333118 215.284149,61.193958 221.764862,83.059364 
	C223.130692,87.667542 223.845810,92.468590 224.846848,97.589310 
	C223.882996,96.715523 222.890808,95.461952 221.993774,94.143646 
	C220.864761,92.484436 219.813507,90.772324 218.365326,88.574463 
	C217.624817,81.833084 219.778305,75.039528 213.999573,70.003654 
	C212.554611,66.215202 211.554565,62.167625 209.540985,58.710342 
	C207.480850,55.173138 204.427292,52.214520 201.302444,48.774044 
	C200.598373,48.270184 200.337799,48.081364 199.905945,47.764336 
	C199.602280,47.281555 199.348602,47.091873 198.908508,46.687927 
	C198.183350,45.268116 197.585968,44.141003 196.988586,43.013893 
	C194.339294,39.190094 193.134262,34.044991 187.284546,33.138096 
	C186.574692,33.028049 186.297623,30.126528 185.932831,28.220943 
z"/>
<path fill="#8F6A5D" opacity="1.000000" stroke="none" 
	d="
M152.564270,213.014389 
	C151.843857,214.328674 150.928345,216.232315 149.473618,216.835464 
	C143.525665,219.301590 137.413086,221.370605 131.195297,223.904480 
	C130.231873,224.464249 129.434265,224.705368 128.319000,224.901138 
	C126.600693,224.237976 125.200027,223.620163 123.413956,223.001465 
	C121.817757,222.572723 120.606956,222.144852 119.263588,221.670120 
	C120.282303,216.694046 124.524483,215.762573 127.800781,215.246277 
	C135.826004,213.981598 144.004456,213.689377 152.564270,213.014389 
z"/>
<path fill="#8F6A5B" opacity="1.000000" stroke="none" 
	d="
M165.963348,48.644928 
	C156.807404,49.004280 155.092133,50.465572 154.021774,59.206264 
	C153.261429,65.415276 150.391617,66.751328 144.086884,63.404610 
	C147.279678,57.860889 153.504898,54.522411 153.281174,47.074306 
	C153.244537,45.854588 156.940720,43.182316 158.278763,43.541187 
	C161.051926,44.284954 163.399811,46.614445 165.963348,48.644928 
z"/>
<path fill="#8E6B5E" opacity="1.000000" stroke="none" 
	d="
M144.375946,160.994431 
	C143.667648,156.899445 143.029251,152.798737 143.139954,148.718338 
	C143.189087,146.907852 144.751648,145.138443 145.627243,143.350388 
	C147.693893,144.530991 150.451416,145.248901 151.637238,147.019440 
	C152.878387,148.872559 152.609421,151.737106 153.001678,154.583130 
	C152.902512,155.328094 152.717026,155.588867 151.866531,155.901337 
	C149.857544,157.672821 148.428360,159.331970 146.999161,160.991119 
	C146.249664,160.993057 145.500153,160.995010 144.375946,160.994431 
z"/>
<path fill="#896B5F" opacity="1.000000" stroke="none" 
	d="
M146.695084,5.893147 
	C147.408508,6.035114 147.809036,6.215658 148.527161,6.485207 
	C150.677307,7.294372 152.509842,8.014533 154.677368,8.754638 
	C155.334412,8.919944 155.656464,9.065307 156.470490,9.467024 
	C157.977936,10.098024 158.993393,10.472672 160.008865,10.847317 
	C167.660477,15.616267 175.312103,20.385220 183.115784,25.448105 
	C177.411926,26.257381 173.696274,22.387030 169.292023,18.714455 
	C167.930557,17.875450 166.965576,17.437189 166.000610,16.998928 
	C165.557068,16.999023 165.113541,16.999121 164.337433,16.995930 
	C163.109268,16.211025 162.157364,14.699035 161.326935,14.763058 
	C154.535904,15.286630 150.661179,9.244558 144.853714,7.645428 
	C144.459473,7.536873 144.299866,6.576199 144.015366,5.656610 
	C144.793777,5.511503 145.587982,5.721614 146.695084,5.893147 
z"/>
<path fill="#815440" opacity="1.000000" stroke="none" 
	d="
M170.358505,32.922401 
	C172.627075,33.547955 174.521545,34.054008 176.691467,34.633648 
	C176.691467,36.188251 176.691467,37.749260 176.691467,39.653461 
	C171.327728,38.584717 166.252350,37.716812 161.254715,36.523373 
	C158.299576,35.817684 157.188828,33.486816 158.345795,30.751505 
	C159.484894,28.058399 161.662277,27.095310 164.397446,28.934521 
	C166.276978,30.198376 168.123245,31.511698 170.358505,32.922401 
z"/>
<path fill="#8F6C5E" opacity="1.000000" stroke="none" 
	d="
M213.675964,70.177895 
	C219.778305,75.039528 217.624817,81.833084 218.003113,88.530586 
	C217.502731,90.872978 217.001190,92.750671 216.108215,96.093895 
	C213.870453,93.203552 212.287292,91.158722 210.352081,89.056335 
	C212.577774,83.882515 214.255005,78.674843 212.226440,72.876244 
	C212.005127,72.243591 212.948959,71.203331 213.675964,70.177895 
z"/>
<path fill="#8F695A" opacity="1.000000" stroke="none" 
	d="
M57.744423,115.087906 
	C56.412468,111.951309 55.344967,109.088577 53.942837,105.328468 
	C57.043674,106.170227 58.590237,107.018982 60.070061,106.915291 
	C65.592888,106.528275 65.859985,110.951706 66.819420,114.364311 
	C67.128212,115.462669 65.816505,117.536758 64.669144,118.332565 
	C63.962059,118.822998 62.103436,117.875023 60.874214,117.322731 
	C59.835167,116.855888 58.957802,116.029198 57.744423,115.087906 
z"/>
<path fill="#82503D" opacity="1.000000" stroke="none" 
	d="
M196.628281,42.969963 
	C197.585968,44.141003 198.183350,45.268116 199.003098,46.913288 
	C199.419662,47.713028 199.682709,47.895580 200.014557,47.979004 
	C200.337799,48.081364 200.598373,48.270184 200.908081,48.763012 
	C201.528015,50.708004 202.195770,52.410725 202.468964,54.174553 
	C202.584854,54.922794 202.065338,56.024105 201.467377,56.535999 
	C201.088013,56.860779 199.619598,56.665123 199.343292,56.242638 
	C196.503586,51.900707 193.780762,47.480770 191.123657,43.023975 
	C190.912933,42.670536 191.435883,41.879669 191.754272,40.851707 
	C193.434464,41.623859 194.851227,42.274944 196.628281,42.969963 
z"/>
<path fill="#7C523F" opacity="1.000000" stroke="none" 
	d="
M34.092445,135.389771 
	C35.761143,134.999359 37.452679,135.000046 39.568584,135.001587 
	C40.573009,137.699738 41.153061,140.397049 41.733112,143.094345 
	C42.159088,143.080933 42.585064,143.067520 43.011040,143.054108 
	C41.528553,145.564957 40.046062,148.075790 38.290379,150.791824 
	C38.017181,150.997009 37.523170,150.986343 37.276649,150.976501 
	C36.058510,145.904724 35.086895,140.842819 34.092445,135.389771 
z"/>
<path fill="#8F6A5B" opacity="1.000000" stroke="none" 
	d="
M174.004272,64.606819 
	C170.715347,64.691422 167.092270,65.439590 169.254135,59.487488 
	C170.201660,56.878693 167.853439,53.072845 167.000885,49.405579 
	C168.457428,49.087719 169.914871,49.174824 171.600220,49.275555 
	C172.424286,54.419353 173.209503,59.320675 174.004272,64.606819 
z"/>
<path fill="#5E3A2B" opacity="1.000000" stroke="none" 
	d="
M68.661240,23.018166 
	C67.788765,24.806555 66.645576,26.670773 65.289253,28.364288 
	C63.367100,30.764299 61.287838,33.038483 59.117760,35.661163 
	C58.482578,36.231792 58.005352,36.507706 57.277794,36.899918 
	C56.135273,36.832767 55.243092,36.649315 54.004871,36.394711 
	C57.556427,30.188765 62.431568,26.080404 68.661240,23.018166 
z"/>
<path fill="#855845" opacity="1.000000" stroke="none" 
	d="
M102.357643,23.951216 
	C103.025917,22.013865 104.261200,20.093887 104.972771,17.996256 
	C105.418861,16.681190 105.077675,15.099063 105.043854,13.319598 
	C106.561806,13.951771 108.125626,14.901107 109.689445,15.850443 
	C108.644585,17.561872 107.773987,19.419558 106.499390,20.938160 
	C105.491310,22.139235 103.987091,22.923891 102.357643,23.951216 
z"/>
<path fill="#8E6A5F" opacity="1.000000" stroke="none" 
	d="
M36.849571,80.260208 
	C37.851017,76.602760 38.883759,73.185295 39.977127,69.402191 
	C42.002323,73.525009 40.707722,77.318649 37.198517,80.848938 
	C36.848911,80.983170 36.880871,80.500191 36.849571,80.260208 
z"/>
<path fill="#855845" opacity="1.000000" stroke="none" 
	d="
M97.357437,35.964771 
	C98.489075,33.137962 99.971275,30.270309 101.731918,27.201424 
	C103.139297,31.210482 100.479134,33.593960 97.357437,35.964771 
z"/>
<path fill="#8F6A5B" opacity="1.000000" stroke="none" 
	d="
M147.343307,160.959686 
	C148.428360,159.331970 149.857544,157.672821 151.648743,156.009888 
	C150.569672,157.646820 149.128571,159.287537 147.343307,160.959686 
z"/>
<path fill="#8F6A5D" opacity="1.000000" stroke="none" 
	d="
M159.628540,211.008911 
	C158.795532,211.833847 157.587051,212.656982 156.186249,213.234131 
	C157.080307,212.327820 158.166687,211.667465 159.628540,211.008911 
z"/>
<path fill="#8E6C5E" opacity="1.000000" stroke="none" 
	d="
M166.054016,17.343468 
	C166.965576,17.437189 167.930557,17.875450 168.950684,18.658054 
	C168.039703,18.564266 167.073563,18.126135 166.054016,17.343468 
z"/>
<path fill="#8F6A5B" opacity="1.000000" stroke="none" 
	d="
M141.665192,63.016785 
	C141.134323,63.515873 140.265503,64.010811 139.197723,64.251556 
	C139.774933,63.669121 140.551086,63.340878 141.665192,63.016785 
z"/>
<path fill="#896B5F" opacity="1.000000" stroke="none" 
	d="
M183.199829,26.014694 
	C183.755997,25.967930 184.253632,26.230768 184.871048,26.756195 
	C184.374329,26.787287 183.757812,26.555792 183.199829,26.014694 
z"/>
<path fill="#F8F4EC" opacity="1.000000" stroke="none" 
	d="
M221.579880,145.115540 
	C221.766541,145.596237 221.722412,146.258179 221.383743,146.962448 
	C221.175827,146.435440 221.262451,145.866104 221.579880,145.115540 
z"/>
<path fill="#F8F4EC" opacity="1.000000" stroke="none" 
	d="
M224.529556,132.668060 
	C224.712280,133.100632 224.659897,133.793472 224.357925,134.734726 
	C224.170380,134.298203 224.232407,133.613266 224.529556,132.668060 
z"/>
<path fill="#624A42" opacity="1.000000" stroke="none" 
	d="
M1.998755,129.427856 
	C3.324563,130.496826 4.750012,131.954529 6.722301,133.971451 
	C11.594995,133.182602 15.030723,135.647903 17.523808,141.707199 
	C19.179535,145.731323 22.126341,149.210953 23.936939,153.188461 
	C25.657444,156.968079 27.440695,161.030807 27.682148,165.059799 
	C27.836926,167.642471 25.076488,170.320084 23.951799,173.088745 
	C23.263374,174.783463 23.197489,176.731049 22.761658,178.928787 
	C12.298206,166.111969 6.440278,150.944519 3.051767,134.692108 
	C2.713807,133.071152 2.415243,131.441956 1.998755,129.427856 
M8.483521,137.586105 
	C8.483521,137.586105 8.418716,137.476379 8.483521,137.586105 
z"/>
<path fill="#634C43" opacity="1.000000" stroke="none" 
	d="
M81.624023,213.999268 
	C82.708420,214.956207 83.420914,215.908157 83.994141,216.674026 
	C83.340759,217.870956 82.673782,219.092834 82.001099,220.666122 
	C69.831047,218.086807 58.953651,212.411438 48.695641,205.411850 
	C47.885197,204.858826 47.044430,204.350250 46.069931,203.519211 
	C49.515789,198.005051 53.562405,201.095062 57.200748,202.903458 
	C60.427567,204.507294 63.313175,206.818085 66.286964,208.905746 
	C70.790337,212.067184 75.572929,214.328094 81.624023,213.999268 
z"/>
<path fill="#624A42" opacity="1.000000" stroke="none" 
	d="
M22.708731,179.539368 
	C23.066370,179.649399 23.495741,180.047531 23.943417,180.768982 
	C23.567968,180.670700 23.174215,180.249100 22.708731,179.539368 
z"/>
<path fill="#59382C" opacity="1.000000" stroke="none" 
	d="
M31.572975,36.603439 
	C33.148624,41.765862 30.749578,46.288960 28.536518,50.830444 
	C27.217897,53.536423 24.328011,53.360477 21.083059,50.196564 
	C24.400898,45.552147 27.837395,41.175880 31.572975,36.603439 
z"/>
<path fill="#F6F0ED" opacity="1.000000" stroke="none" 
	d="
M81.970947,4.988762 
	C79.812828,6.077099 77.322914,6.997700 74.411804,7.914892 
	C75.141006,3.027563 77.308434,2.151796 81.970947,4.988762 
z"/>
<path fill="#FBF8F5" opacity="1.000000" stroke="none" 
	d="
M160.000031,10.500677 
	C158.993393,10.472672 157.977936,10.098024 156.737122,9.479951 
	C157.671585,9.542361 158.831375,9.848199 160.000031,10.500677 
z"/>
<path fill="#5E3A2B" opacity="1.000000" stroke="none" 
	d="
M71.680840,21.012520 
	C71.246719,21.665733 70.453125,22.319418 69.338135,23.000160 
	C69.784943,22.355808 70.553154,21.684399 71.680840,21.012520 
z"/>
<path fill="#5E3929" opacity="1.000000" stroke="none" 
	d="
M52.730797,184.244522 
	C56.930225,189.109009 60.841324,194.239227 64.901733,199.677628 
	C56.504158,197.810226 50.308491,193.549347 52.730797,184.244522 
z"/>
<path fill="#634C43" opacity="1.000000" stroke="none" 
	d="
M46.450935,194.533142 
	C46.418892,194.478973 46.482975,194.587296 46.450935,194.533142 
z"/>
<path fill="#5E4238" opacity="1.000000" stroke="none" 
	d="
M25.548651,120.465988 
	C25.581293,120.521027 25.516008,120.410950 25.548651,120.465988 
z"/>
<path fill="#895F4E" opacity="1.000000" stroke="none" 
	d="
M199.905945,47.764336 
	C199.682709,47.895580 199.419662,47.713028 199.130859,47.205986 
	C199.348602,47.091873 199.602280,47.281555 199.905945,47.764336 
z"/>
<path fill="#5E4136" opacity="1.000000" stroke="none" 
	d="
M8.451118,137.531250 
	C8.418716,137.476379 8.483521,137.586105 8.451118,137.531250 
z"/>
</svg>