<?xml version="1.0" encoding="UTF-8"?>
<svg version="1.1" xmlns="http://www.w3.org/2000/svg" width="225" height="225">
<path d="M0 0 C15.80614773 12.48534725 25.86888754 29.7346294 28.80078125 49.76171875 C30.4784677 69.56660272 24.96505302 88.44004109 12.86328125 104.26171875 C0.2987516 118.79477238 -16.91460344 128.74470541 -36.19921875 130.76171875 C-57.97891154 132.28445151 -76.59015607 125.67999798 -93.26171875 111.63671875 C-107.23691066 98.71625831 -115.1382549 80.53675644 -116.5859375 61.67578125 C-116.95054195 48.87690763 -114.2894572 36.10290484 -108.19921875 24.76171875 C-107.80347656 23.98957031 -107.40773438 23.21742187 -107 22.421875 C-100.9281293 11.40899778 -92.01452813 2.15557186 -81.19921875 -4.23828125 C-80.30976562 -4.77066406 -79.4203125 -5.30304687 -78.50390625 -5.8515625 C-53.23688833 -19.72432575 -23.21611539 -16.2427767 0 0 Z " fill="#A87C65" transform="translate(156.19921875,54.23828125)"/>
<path d="M0 0 C1.65 0 3.3 0 5 0 C5.495 3.465 5.495 3.465 6 7 C7.32 7.33 8.64 7.66 10 8 C10 6.02 10 4.04 10 2 C10.99 2 11.98 2 13 2 C13.495 6.95 13.495 6.95 14 12 C12.02 12 10.04 12 8 12 C7.79106552 15.87921683 8.39121334 18.60800007 9.875 22.1875 C10.22304687 23.04730469 10.57109375 23.90710938 10.9296875 24.79296875 C11.91662501 27.13508544 11.91662501 27.13508544 14 29 C14.1953125 31.6015625 14.1953125 31.6015625 14.125 34.625 C14.10695313 35.62789062 14.08890625 36.63078125 14.0703125 37.6640625 C14.04710937 38.43492188 14.02390625 39.20578125 14 40 C14.66 40 15.32 40 16 40 C16.26423124 44.75616239 16.01058779 48.40573663 14.5 52.9375 C13.0979515 57.17640364 12.75414461 60.74403281 12.9921875 65.1875 C13 67 13 67 12 69 C13.32 68.67 14.64 68.34 16 68 C16.33 68.66 16.66 69.32 17 70 C17 68.02 17 66.04 17 64 C21.63851904 62.69541652 25.32822823 63.08096293 30 64 C32 67 32 67 32 70 C32.66 70 33.32 70 34 70 C34.67154933 71.28913487 35.33708859 72.58140204 36 73.875 C36.37125 74.59429687 36.7425 75.31359375 37.125 76.0546875 C38 78 38 78 38 80 C38.66 80 39.32 80 40 80 C40.33 79.34 40.66 78.68 41 78 C41.598125 78.309375 42.19625 78.61875 42.8125 78.9375 C45.08956772 80.10209704 45.08956772 80.10209704 48 81 C48 81.66 48 82.32 48 83 C46.68 83 45.36 83 44 83 C44.33 84.32 44.66 85.64 45 87 C43.71073008 87.36279456 42.41846728 87.71496698 41.125 88.0625 C40.40570313 88.25972656 39.68640625 88.45695312 38.9453125 88.66015625 C37 89 37 89 35 88 C34.814375 89.36125 34.814375 89.36125 34.625 90.75 C34.07890323 93.58970323 33.42736197 95.52590591 32 98 C31.34 98 30.68 98 30 98 C30 99.32 30 100.64 30 102 C28.5390625 103.34375 28.5390625 103.34375 26.625 104.5 C23.74805743 106.29863532 23.74805743 106.29863532 22 109.125 C20.3201425 112.27473281 17.2585263 112.79313841 14 114 C14 114.66 14 115.32 14 116 C-6.06008437 123.42966088 -26.12229701 122.63097387 -45.7109375 114.1796875 C-53.5490039 110.14027444 -64.98342127 103.03315746 -69 95 C-67.35 95.33 -65.7 95.66 -64 96 C-64 95.34 -64 94.68 -64 94 C-63.34 94 -62.68 94 -62 94 C-62 94.66 -62 95.32 -62 96 C-60.0085944 96.38133299 -58.00720923 96.71325582 -56 97 C-55.505 96.505 -55.505 96.505 -55 96 C-52.50941086 95.90002358 -50.05272605 95.86120373 -47.5625 95.875 C-46.86833984 95.87113281 -46.17417969 95.86726563 -45.45898438 95.86328125 C-40.25327988 95.87336006 -40.25327988 95.87336006 -38 97 C-38 95.68 -38 94.36 -38 93 C-36.783125 92.71125 -35.56625 92.4225 -34.3125 92.125 C-29.52170334 90.93508416 -29.52170334 90.93508416 -25 89 C-23.86649466 86.98330173 -23.86649466 86.98330173 -23 85 C-22.01 84.67 -21.02 84.34 -20 84 C-20 83.34 -20 82.68 -20 82 C-19.34 82 -18.68 82 -18 82 C-18 77.38 -18 72.76 -18 68 C-18.66 68 -19.32 68 -20 68 C-20 69.98 -20 71.96 -20 74 C-21.65 73.67 -23.3 73.34 -25 73 C-25 66.73 -25 60.46 -25 54 C-26.65 54 -28.3 54 -30 54 C-30.66 53.34 -31.32 52.68 -32 52 C-31.69347955 49.0574037 -31.32728846 46.65457692 -30 44 C-30.66 44 -31.32 44 -32 44 C-32.33 43.34 -32.66 42.68 -33 42 C-33.66 42.66 -34.32 43.32 -35 44 C-36.32 44 -37.64 44 -39 44 C-39 46.97 -39 49.94 -39 53 C-43 52 -43 52 -44.25 50.4375 C-45.38094518 46.76192818 -45.30598832 43.85545278 -45 40 C-43.5625 38.25 -43.5625 38.25 -42 37 C-41.28552357 34.89667109 -41.28552357 34.89667109 -41 33 C-42.65 33 -44.3 33 -46 33 C-46.45375 33.969375 -46.9075 34.93875 -47.375 35.9375 C-49 39 -49 39 -51 40 C-51 39.34 -51 38.68 -51 38 C-52.485 37.505 -52.485 37.505 -54 37 C-53.9690625 35.1746875 -53.9690625 35.1746875 -53.9375 33.3125 C-53.92401453 30.76374582 -54.05575559 28.75467538 -54.625 26.25 C-55.08442433 23.49345399 -54.4631818 22.32387698 -53 20 C-52.01 20 -51.02 20 -50 20 C-50 21.65 -50 23.3 -50 25 C-48.9275 24.95875 -47.855 24.9175 -46.75 24.875 C-43.19952819 24.99334906 -41.96350304 25.36496384 -39 27 C-37.68 27 -36.36 27 -35 27 C-35 27.99 -35 28.98 -35 30 C-34.34 30 -33.68 30 -33 30 C-32.81824219 29.13181641 -32.81824219 29.13181641 -32.6328125 28.24609375 C-30.65456532 21.22453739 -26.1229832 16.63552128 -20 13 C-19.319375 12.566875 -18.63875 12.13375 -17.9375 11.6875 C-15.22262688 10.72415792 -12.85454205 10.81383421 -10 11 C-9.34 11.33 -8.68 11.66 -8 12 C-8 12.66 -8 13.32 -8 14 C-6.35 13.34 -4.7 12.68 -3 12 C-3.53725895 8.62294375 -4.11064623 5.303314 -5 2 C-4.01 2 -3.02 2 -2 2 C-1.01 4.97 -0.02 7.94 1 11 C1.020625 9.741875 1.04125 8.48375 1.0625 7.1875 C1.07410156 6.47980469 1.08570312 5.77210937 1.09765625 5.04296875 C1.08263217 2.79694539 1.08263217 2.79694539 0 0 Z " fill="#CAA085" transform="translate(126,64)"/>
<path d="M0 0 C15.80614773 12.48534725 25.86888754 29.7346294 28.80078125 49.76171875 C30.4784677 69.56660272 24.96505302 88.44004109 12.86328125 104.26171875 C6.82746176 111.24318888 0.37226343 116.67157284 -7.57421875 121.32421875 C-8.18152832 121.68338379 -8.78883789 122.04254883 -9.41455078 122.41259766 C-11.16015625 123.390625 -11.16015625 123.390625 -14.19921875 124.76171875 C-15.18921875 124.43171875 -16.17921875 124.10171875 -17.19921875 123.76171875 C-10.44921875 119.88671875 -10.44921875 119.88671875 -8.19921875 118.76171875 C-7.86921875 117.77171875 -7.53921875 116.78171875 -7.19921875 115.76171875 C-2.74207589 111.76171875 -2.74207589 111.76171875 -0.19921875 111.76171875 C-0.19921875 110.44171875 -0.19921875 109.12171875 -0.19921875 107.76171875 C0.46078125 107.76171875 1.12078125 107.76171875 1.80078125 107.76171875 C2.79078125 104.46171875 3.78078125 101.16171875 4.80078125 97.76171875 C7.44078125 97.76171875 10.08078125 97.76171875 12.80078125 97.76171875 C13.13078125 96.11171875 13.46078125 94.46171875 13.80078125 92.76171875 C15.12078125 92.76171875 16.44078125 92.76171875 17.80078125 92.76171875 C17.47078125 92.10171875 17.14078125 91.44171875 16.80078125 90.76171875 C13.65632674 89.91186618 11.09306046 89.76171875 7.80078125 89.76171875 C7.12923192 88.47258388 6.46369266 87.18031671 5.80078125 85.88671875 C5.42953125 85.16742188 5.05828125 84.448125 4.67578125 83.70703125 C3.80078125 81.76171875 3.80078125 81.76171875 3.80078125 79.76171875 C3.14078125 79.76171875 2.48078125 79.76171875 1.80078125 79.76171875 C1.14078125 78.11171875 0.48078125 76.46171875 -0.19921875 74.76171875 C-1.84921875 74.76171875 -3.49921875 74.76171875 -5.19921875 74.76171875 C-5.52921875 74.10171875 -5.85921875 73.44171875 -6.19921875 72.76171875 C-5.5959375 72.32601562 -4.99265625 71.8903125 -4.37109375 71.44140625 C0.40067252 67.88567074 3.71534489 64.82183437 6.80078125 59.76171875 C7.46078125 59.76171875 8.12078125 59.76171875 8.80078125 59.76171875 C9.00574219 59.07464844 9.21070313 58.38757813 9.421875 57.6796875 C9.69128906 56.77863281 9.96070313 55.87757812 10.23828125 54.94921875 C10.50511719 54.05589844 10.77195312 53.16257812 11.046875 52.2421875 C11.60465998 50.4069882 12.194227 48.58138149 12.80078125 46.76171875 C12.92467065 43.87480754 12.99061555 41.02366186 12.98828125 38.13671875 C12.98924805 36.92363037 12.98924805 36.92363037 12.99023438 35.68603516 C12.94085652 30.11419273 12.39091836 25.12843148 10.80078125 19.76171875 C10.14078125 19.76171875 9.48078125 19.76171875 8.80078125 19.76171875 C8.30578125 18.49328125 8.30578125 18.49328125 7.80078125 17.19921875 C5.57169021 13.36796853 3.12292196 11.1634824 -0.26171875 8.375 C-2.19921875 6.76171875 -2.19921875 6.76171875 -3.578125 5.24609375 C-5.85202441 3.16396898 -8.36693431 2.03789083 -11.13671875 0.69921875 C-12.17699219 0.19261719 -13.21726562 -0.31398438 -14.2890625 -0.8359375 C-15.24941406 -1.29871094 -16.20976562 -1.76148438 -17.19921875 -2.23828125 C-18.53386441 -2.90231678 -19.86781589 -3.56776752 -21.19921875 -4.23828125 C-21.19921875 -4.89828125 -21.19921875 -5.55828125 -21.19921875 -6.23828125 C-22.52953125 -5.92890625 -22.52953125 -5.92890625 -23.88671875 -5.61328125 C-27.52296786 -5.08025678 -30.6521731 -5.54477266 -34.26171875 -6.17578125 C-46.83967317 -8.30346744 -59.72760716 -8.38378746 -71.19921875 -2.23828125 C-73.55804783 -0.256699 -75.81055042 1.80763882 -78.0546875 3.91796875 C-80.19921875 5.76171875 -80.19921875 5.76171875 -83.57421875 7.26171875 C-87.57279821 9.5466213 -87.92093961 12.42977277 -89.19921875 16.76171875 C-91.50921875 17.09171875 -93.81921875 17.42171875 -96.19921875 17.76171875 C-96.52921875 18.75171875 -96.85921875 19.74171875 -97.19921875 20.76171875 C-97.85921875 20.76171875 -98.51921875 20.76171875 -99.19921875 20.76171875 C-99.28558594 21.39078125 -99.37195313 22.01984375 -99.4609375 22.66796875 C-100.20930454 27.22682853 -100.87291792 30.65894833 -103.76171875 34.32421875 C-108.01887882 40.34684814 -107.1106556 48.67666661 -107.19921875 55.76171875 C-106.53921875 55.76171875 -105.87921875 55.76171875 -105.19921875 55.76171875 C-105.25142578 54.22451172 -105.25142578 54.22451172 -105.3046875 52.65625 C-105.3328391 51.29558939 -105.36013779 49.93491095 -105.38671875 48.57421875 C-105.42442383 47.56391602 -105.42442383 47.56391602 -105.46289062 46.53320312 C-105.52791632 42.08978035 -105.00306718 39.25804306 -102.19921875 35.76171875 C-101.53921875 35.76171875 -100.87921875 35.76171875 -100.19921875 35.76171875 C-100.19921875 35.10171875 -100.19921875 34.44171875 -100.19921875 33.76171875 C-98.87921875 33.76171875 -97.55921875 33.76171875 -96.19921875 33.76171875 C-95.86921875 33.10171875 -95.53921875 32.44171875 -95.19921875 31.76171875 C-95.52921875 35.06171875 -95.85921875 38.36171875 -96.19921875 41.76171875 C-96.85921875 41.76171875 -97.51921875 41.76171875 -98.19921875 41.76171875 C-97.53921875 45.06171875 -96.87921875 48.36171875 -96.19921875 51.76171875 C-95.20921875 50.77171875 -95.20921875 50.77171875 -94.19921875 49.76171875 C-93.94527344 50.35339844 -93.69132812 50.94507812 -93.4296875 51.5546875 C-91.57512096 55.81255001 -89.60899138 59.78559391 -87.19921875 63.76171875 C-87.19921875 64.42171875 -87.19921875 65.08171875 -87.19921875 65.76171875 C-85.71421875 66.25671875 -85.71421875 66.25671875 -84.19921875 66.76171875 C-82.53255208 68.76171875 -80.86588542 70.76171875 -79.19921875 72.76171875 C-78.20921875 73.09171875 -77.21921875 73.42171875 -76.19921875 73.76171875 C-75.78671875 74.22320312 -75.37421875 74.6846875 -74.94921875 75.16015625 C-72.36185333 77.52805764 -69.50051027 78.26565517 -66.19921875 79.38671875 C-64.96171875 79.81210938 -63.72421875 80.2375 -62.44921875 80.67578125 C-60.36612614 81.3718146 -58.28281265 82.06718745 -56.19921875 82.76171875 C-56.85921875 84.41171875 -57.51921875 86.06171875 -58.19921875 87.76171875 C-58.85921875 87.76171875 -59.51921875 87.76171875 -60.19921875 87.76171875 C-60.19921875 88.42171875 -60.19921875 89.08171875 -60.19921875 89.76171875 C-61.18921875 89.76171875 -62.17921875 89.76171875 -63.19921875 89.76171875 C-63.52921875 92.07171875 -63.85921875 94.38171875 -64.19921875 96.76171875 C-65.51921875 96.76171875 -66.83921875 96.76171875 -68.19921875 96.76171875 C-69.93171875 97.07109375 -69.93171875 97.07109375 -71.69921875 97.38671875 C-75.17456253 97.75907701 -76.38223332 97.67726885 -79.19921875 95.76171875 C-75.61028689 98.2227006 -73.51526216 98.97752092 -69.19921875 98.76171875 C-68.40644531 98.98472656 -67.61367187 99.20773438 -66.796875 99.4375 C-64.18580036 100.0211923 -64.18580036 100.0211923 -62.1015625 98.609375 C-57.41699717 94.35321923 -54.65998263 90.60603295 -52.19921875 84.76171875 C-51.53921875 84.76171875 -50.87921875 84.76171875 -50.19921875 84.76171875 C-50.19921875 82.45171875 -50.19921875 80.14171875 -50.19921875 77.76171875 C-49.53921875 77.76171875 -48.87921875 77.76171875 -48.19921875 77.76171875 C-48.00388914 79.53170555 -47.81822993 81.30276154 -47.63671875 83.07421875 C-47.48009766 84.55341797 -47.48009766 84.55341797 -47.3203125 86.0625 C-47.19921875 88.76171875 -47.19921875 88.76171875 -48.19921875 91.76171875 C-48.85921875 91.76171875 -49.51921875 91.76171875 -50.19921875 91.76171875 C-50.19921875 92.42171875 -50.19921875 93.08171875 -50.19921875 93.76171875 C-51.80859375 95.41796875 -51.80859375 95.41796875 -53.94921875 97.26171875 C-54.6453125 97.87015625 -55.34140625 98.47859375 -56.05859375 99.10546875 C-60.21321078 102.31998995 -62.92709452 103.00136076 -68.19921875 102.76171875 C-68.19921875 104.08171875 -68.19921875 105.40171875 -68.19921875 106.76171875 C-88.57421875 106.76171875 -88.57421875 106.76171875 -92.19921875 105.76171875 C-92.19921875 105.10171875 -92.19921875 104.44171875 -92.19921875 103.76171875 C-92.85921875 103.76171875 -93.51921875 103.76171875 -94.19921875 103.76171875 C-94.19921875 104.42171875 -94.19921875 105.08171875 -94.19921875 105.76171875 C-97.10600973 105.42383535 -98.7928915 105.12328857 -101.0078125 103.15234375 C-112.47129365 88.08762511 -118.42123555 68.70395286 -116.19921875 49.76171875 C-114.77655456 41.08507471 -112.37026577 32.52900419 -108.19921875 24.76171875 C-107.80347656 23.98957031 -107.40773438 23.21742187 -107 22.421875 C-100.9281293 11.40899778 -92.01452813 2.15557186 -81.19921875 -4.23828125 C-80.30976562 -4.77066406 -79.4203125 -5.30304687 -78.50390625 -5.8515625 C-53.23688833 -19.72432575 -23.21611539 -16.2427767 0 0 Z " fill="#8C5F44" transform="translate(156.19921875,54.23828125)"/>
<path d="M0 0 C0.99 1.98 0.99 1.98 2 4 C2.66 4 3.32 4 4 4 C4.33 3.34 4.66 2.68 5 2 C5.598125 2.309375 6.19625 2.61875 6.8125 2.9375 C9.08956772 4.10209704 9.08956772 4.10209704 12 5 C12 5.66 12 6.32 12 7 C10.68 7 9.36 7 8 7 C8.495 8.98 8.495 8.98 9 11 C7.71073008 11.36279456 6.41846728 11.71496698 5.125 12.0625 C4.40570313 12.25972656 3.68640625 12.45695313 2.9453125 12.66015625 C1 13 1 13 -1 12 C-1.185625 13.36125 -1.185625 13.36125 -1.375 14.75 C-1.92109677 17.58970323 -2.57263803 19.52590591 -4 22 C-4.66 22 -5.32 22 -6 22 C-6 23.32 -6 24.64 -6 26 C-7.4609375 27.34375 -7.4609375 27.34375 -9.375 28.5 C-12.25194257 30.29863532 -12.25194257 30.29863532 -14 33.125 C-15.6798575 36.27473281 -18.7414737 36.79313841 -22 38 C-22 38.66 -22 39.32 -22 40 C-42.06008437 47.42966088 -62.12229701 46.63097387 -81.7109375 38.1796875 C-89.5490039 34.14027444 -100.98342127 27.03315746 -105 19 C-103.35 19.33 -101.7 19.66 -100 20 C-100 19.34 -100 18.68 -100 18 C-99.34 18 -98.68 18 -98 18 C-98 18.66 -98 19.32 -98 20 C-96.0085944 20.38133299 -94.00720923 20.71325582 -92 21 C-91.67 20.67 -91.34 20.34 -91 20 C-88.50941086 19.90002358 -86.05272605 19.86120373 -83.5625 19.875 C-82.86833984 19.87113281 -82.17417969 19.86726563 -81.45898438 19.86328125 C-76.25327988 19.87336006 -76.25327988 19.87336006 -74 21 C-74 19.68 -74 18.36 -74 17 C-72.783125 16.71125 -71.56625 16.4225 -70.3125 16.125 C-65.52170334 14.93508416 -65.52170334 14.93508416 -61 13 C-59.86649466 10.98330173 -59.86649466 10.98330173 -59 9 C-58.01 8.67 -57.02 8.34 -56 8 C-56 7.34 -56 6.68 -56 6 C-55.34 6 -54.68 6 -54 6 C-53.67 4.35 -53.34 2.7 -53 1 C-48.68278665 0.79919938 -45.95808571 1.39791769 -42 3 C-39.33597622 3.45313302 -36.69122279 3.72631633 -34 4 C-34 4.66 -34 5.32 -34 6 C-31.06217531 5.85924795 -28.12484829 5.7126162 -25.1875 5.5625 C-24.35412109 5.52318359 -23.52074219 5.48386719 -22.66210938 5.44335938 C-21.85966797 5.40146484 -21.05722656 5.35957031 -20.23046875 5.31640625 C-19.49207764 5.27974854 -18.75368652 5.24309082 -17.99291992 5.20532227 C-15.792505 5.05157859 -15.792505 5.05157859 -13 4 C-10.66700175 3.96045766 -8.33291811 3.95598268 -6 4 C-6 3.34 -6 2.68 -6 2 C-4.02 1.34 -2.04 0.68 0 0 Z " fill="#B48559" transform="translate(162,140)"/>
<path d="M0 0 C2.31 0 4.62 0 7 0 C7 0.66 7 1.32 7 2 C4.03 3.32 1.06 4.64 -2 6 C0.832168 6.33448259 0.832168 6.33448259 4 6 C4.66 5.34 5.32 4.68 6 4 C8 2 8 2 11.25 1.75 C12.61125 1.87375 12.61125 1.87375 14 2 C14 2.66 14 3.32 14 4 C14.845625 3.649375 15.69125 3.29875 16.5625 2.9375 C20.45017533 1.87722491 23.08425639 2.21685128 27 3 C28 8.75 28 8.75 28 11 C28.804375 11.268125 29.60875 11.53625 30.4375 11.8125 C31.283125 12.204375 32.12875 12.59625 33 13 C33.495 14.485 33.495 14.485 34 16 C32.68 16 31.36 16 30 16 C29.67 16.66 29.34 17.32 29 18 C27.35 18 25.7 18 24 18 C23.835 17.38125 23.67 16.7625 23.5 16.125 C21.09818625 12.72243051 17.99837866 12.77387974 14 12 C14 11.34 14 10.68 14 10 C9.38 10 4.76 10 0 10 C-0.598125 11.258125 -1.19625 12.51625 -1.8125 13.8125 C-3.22262585 16.77862679 -4.68694995 18.69955513 -7 21 C-9.55936608 27.82497621 -10.98221151 35.90338018 -9 43 C-9.04125 43.86625 -9.0825 44.7325 -9.125 45.625 C-9.08375 46.40875 -9.0425 47.1925 -9 48 C-8.01 48.66 -7.02 49.32 -6 50 C-4.0549 47.08235 -3.54723683 45.37462715 -3 42 C-2.67 42.66 -2.34 43.32 -2 44 C-0.35 44 1.3 44 3 44 C2.67 45.98 2.34 47.96 2 50 C1.01 50.33 0.02 50.66 -1 51 C-0.69106068 52.6256807 -0.3777305 54.25052748 -0.0625 55.875 C0.11152344 56.77992187 0.28554687 57.68484375 0.46484375 58.6171875 C0.89963701 60.99956317 0.89963701 60.99956317 2 63 C2.99 63.33 3.98 63.66 5 64 C4.814375 63.2575 4.62875 62.515 4.4375 61.75 C3.99476513 58.9670951 3.77858167 57.53008082 5 55 C7.4375 53.875 7.4375 53.875 10 53 C10.66 52.34 11.32 51.68 12 51 C12 52.32 12 53.64 12 55 C12.66 55 13.32 55 14 55 C13.67 57.64 13.34 60.28 13 63 C15.97 63.99 15.97 63.99 19 65 C19.55653762 69.84982786 20.07622795 74.55398593 19.8125 79.4375 C19.60435072 83.05032721 19.60435072 83.05032721 22 85 C22.99 85.495 22.99 85.495 24 86 C23.01 86.495 23.01 86.495 22 87 C20.92405935 89.02120024 20.02152534 91.09289801 19.09765625 93.1875 C18 95 18 95 15 96 C14.505 97.485 14.505 97.485 14 99 C11.8713573 101.04368579 10.63148038 101.94182342 7.66796875 102.21484375 C1.81319397 101.56021539 -2.10288076 100.30023253 -7 97 C-5.125 96.375 -5.125 96.375 -3 96 C-2.34 96.66 -1.68 97.32 -1 98 C1.3381615 97.70241581 3.67182036 97.36760731 6 97 C6.99 97.33 7.98 97.66 9 98 C9.66 95.69 10.32 93.38 11 91 C11.99 91 12.98 91 14 91 C14 90.34 14 89.68 14 89 C14.97850195 87.97895449 15.97980427 86.9793879 17 86 C17.33 85.34 17.66 84.68 18 84 C16.63875 83.9071875 16.63875 83.9071875 15.25 83.8125 C9.56749937 83.00572522 4.01599293 80.73743463 -1 78 C-1.33 77.01 -1.66 76.02 -2 75 C-2.5775 74.896875 -3.155 74.79375 -3.75 74.6875 C-7.30011381 73.602743 -8.76806311 70.86145755 -11 68 C-11.515625 67.505 -12.03125 67.01 -12.5625 66.5 C-15.46014351 63.47637199 -17.5863327 60.09500167 -19.0625 56.1875 C-19.371875 55.465625 -19.68125 54.74375 -20 54 C-20.99 53.67 -21.98 53.34 -23 53 C-23.33 49.7 -23.66 46.4 -24 43 C-23.34 43 -22.68 43 -22 43 C-22 40.36 -22 37.72 -22 35 C-23.32 35 -24.64 35 -26 35 C-26 35.66 -26 36.32 -26 37 C-26.97850195 38.02104551 -27.97980427 39.0206121 -29 40 C-30.52106634 43.04213267 -30.37429338 46.28047572 -30.5625 49.625 C-30.60568359 50.33140625 -30.64886719 51.0378125 -30.69335938 51.765625 C-30.79944751 53.51018537 -30.90022889 55.25506697 -31 57 C-31.66 57 -32.32 57 -33 57 C-34.07393118 39.85687629 -34.07393118 39.85687629 -28.45703125 32.1484375 C-26.93530124 29.90459969 -26.35956021 28.19790308 -25.8125 25.5625 C-25 22 -25 22 -23.8125 20.0625 C-21.01973748 18.42536335 -18.18017159 18.30001619 -15 18 C-14.896875 16.906875 -14.79375 15.81375 -14.6875 14.6875 C-13.80080483 9.93158954 -13.80080483 9.93158954 -11 8 C-8.02626193 6.38922521 -5.20876376 5.06958792 -2 4 C-0.79117904 1.99983534 -0.79117904 1.99983534 0 0 Z " fill="#B5886E" transform="translate(82,53)"/>
<path d="M0 0 C17.51430161 7.60054598 29.0315557 22.49018944 35.8984375 39.87890625 C42.46442931 58.48254972 41.51737064 77.52042236 33.26391602 95.37695312 C26.45618295 109.21207643 16.94562749 119.76330514 3.625 127.5625 C3.01769043 127.92166504 2.41038086 128.28083008 1.78466797 128.65087891 C0.0390625 129.62890625 0.0390625 129.62890625 -3 131 C-3.99 130.67 -4.98 130.34 -6 130 C0.75 126.125 0.75 126.125 3 125 C3.33 124.01 3.66 123.02 4 122 C8.45714286 118 8.45714286 118 11 118 C11 116.68 11 115.36 11 114 C11.66 114 12.32 114 13 114 C13.99 110.7 14.98 107.4 16 104 C18.64 104 21.28 104 24 104 C24.33 102.35 24.66 100.7 25 99 C26.32 99 27.64 99 29 99 C28.67 98.34 28.34 97.68 28 97 C24.85554549 96.15014743 22.29227921 96 19 96 C18.32845067 94.71086513 17.66291141 93.41859796 17 92.125 C16.62875 91.40570313 16.2575 90.68640625 15.875 89.9453125 C15 88 15 88 15 86 C14.34 86 13.68 86 13 86 C12.34 84.35 11.68 82.7 11 81 C9.35 81 7.7 81 6 81 C5.67 80.34 5.34 79.68 5 79 C5.60328125 78.56429687 6.2065625 78.12859375 6.828125 77.6796875 C11.59989127 74.12395199 14.91456364 71.06011562 18 66 C18.66 66 19.32 66 20 66 C20.20496094 65.31292969 20.40992188 64.62585938 20.62109375 63.91796875 C20.89050781 63.01691406 21.15992188 62.11585937 21.4375 61.1875 C21.70433594 60.29417969 21.97117188 59.40085938 22.24609375 58.48046875 C22.80387873 56.64526945 23.39344575 54.81966274 24 53 C24.1238894 50.11308879 24.1898343 47.26194311 24.1875 44.375 C24.18814453 43.56627441 24.18878906 42.75754883 24.18945312 41.92431641 C24.14007527 36.35247398 23.59013711 31.36671273 22 26 C21.34 26 20.68 26 20 26 C19.67 25.154375 19.34 24.30875 19 23.4375 C16.77090896 19.60624978 14.32214071 17.40176365 10.9375 14.61328125 C9 13 9 13 7.4375 11.35546875 C5.92893963 9.7425564 5.92893963 9.7425564 3 9 C1.11420063 5.78715662 0 3.75366417 0 0 Z " fill="#8B6850" transform="translate(145,48)"/>
<path d="M0 0 C0.495 1.485 0.495 1.485 1 3 C-0.1446875 3.0309375 -0.1446875 3.0309375 -1.3125 3.0625 C-2.6428125 3.5265625 -2.6428125 3.5265625 -4 4 C-5.68390585 7.3734758 -5.68390585 7.3734758 -7 11 C-8.5625 12.9375 -8.5625 12.9375 -10 14 C-10.66 14 -11.32 14 -12 14 C-12 14.66 -12 15.32 -12 16 C-13.32 16 -14.64 16 -16 16 C-16 16.66 -16 17.32 -16 18 C-16.66 18 -17.32 18 -18 18 C-18 18.66 -18 19.32 -18 20 C-20.64 20.66 -23.28 21.32 -26 22 C-26 22.66 -26 23.32 -26 24 C-26.81984375 24.19335938 -27.6396875 24.38671875 -28.484375 24.5859375 C-30.10085937 24.97652344 -30.10085937 24.97652344 -31.75 25.375 C-32.81734375 25.63023437 -33.8846875 25.88546875 -34.984375 26.1484375 C-37.88427983 26.84031042 -37.88427983 26.84031042 -39.84692383 28.03662109 C-42.51596993 29.23086714 -44.54576962 29.25871303 -47.46484375 29.265625 C-48.51220703 29.26820313 -49.55957031 29.27078125 -50.63867188 29.2734375 C-51.72728516 29.26570313 -52.81589844 29.25796875 -53.9375 29.25 C-55.02224609 29.25773437 -56.10699219 29.26546875 -57.22460938 29.2734375 C-58.27326172 29.27085937 -59.32191406 29.26828125 -60.40234375 29.265625 C-61.35616943 29.26336914 -62.30999512 29.26111328 -63.29272461 29.25878906 C-66.20311191 28.98058449 -68.33079146 28.15780895 -71 27 C-72.9924325 26.62406934 -74.9918674 26.28020455 -77 26 C-77 25.34 -77 24.68 -77 24 C-78.175625 24.0928125 -78.175625 24.0928125 -79.375 24.1875 C-80.24125 24.125625 -81.1075 24.06375 -82 24 C-82.66 23.01 -83.32 22.02 -84 21 C-80.7 21 -77.4 21 -74 21 C-74 19.68 -74 18.36 -74 17 C-72.783125 16.71125 -71.56625 16.4225 -70.3125 16.125 C-65.52170334 14.93508416 -65.52170334 14.93508416 -61 13 C-59.86649466 10.98330173 -59.86649466 10.98330173 -59 9 C-58.01 8.67 -57.02 8.34 -56 8 C-56 7.34 -56 6.68 -56 6 C-55.34 6 -54.68 6 -54 6 C-53.67 4.35 -53.34 2.7 -53 1 C-48.68278665 0.79919938 -45.95808571 1.39791769 -42 3 C-39.33597622 3.45313302 -36.69122279 3.72631633 -34 4 C-34 4.66 -34 5.32 -34 6 C-31.06217531 5.85924795 -28.12484829 5.7126162 -25.1875 5.5625 C-23.93743164 5.50352539 -23.93743164 5.50352539 -22.66210938 5.44335938 C-21.85966797 5.40146484 -21.05722656 5.35957031 -20.23046875 5.31640625 C-19.49207764 5.27974854 -18.75368652 5.24309082 -17.99291992 5.20532227 C-15.792505 5.05157859 -15.792505 5.05157859 -13 4 C-10.66700175 3.96045766 -8.33291811 3.95598268 -6 4 C-6 3.34 -6 2.68 -6 2 C-4.02 1.34 -2.04 0.68 0 0 Z " fill="#BC8F6F" transform="translate(162,140)"/>
<path d="M0 0 C0.33 0.66 0.66 1.32 1 2 C2.65 2 4.3 2 6 2 C5.67 3.98 5.34 5.96 5 8 C4.01 8.33 3.02 8.66 2 9 C2.30893932 10.6256807 2.6222695 12.25052748 2.9375 13.875 C3.11152344 14.77992187 3.28554687 15.68484375 3.46484375 16.6171875 C3.89963701 18.99956317 3.89963701 18.99956317 5 21 C5.99 21.33 6.98 21.66 8 22 C7.814375 21.2575 7.62875 20.515 7.4375 19.75 C6.99476513 16.9670951 6.77858167 15.53008082 8 13 C10.4375 11.875 10.4375 11.875 13 11 C13.66 10.34 14.32 9.68 15 9 C15 10.32 15 11.64 15 13 C15.66 13 16.32 13 17 13 C16.67 15.64 16.34 18.28 16 21 C17.98 21.66 19.96 22.32 22 23 C22.55653762 27.84982786 23.07622795 32.55398593 22.8125 37.4375 C22.60435072 41.05032721 22.60435072 41.05032721 25 43 C25.99 43.495 25.99 43.495 27 44 C26.01 44.495 26.01 44.495 25 45 C23.92405935 47.02120024 23.02152534 49.09289801 22.09765625 51.1875 C21 53 21 53 18 54 C17.67 54.99 17.34 55.98 17 57 C14.8713573 59.04368579 13.63148038 59.94182342 10.66796875 60.21484375 C4.81319397 59.56021539 0.89711924 58.30023253 -4 55 C-2.125 54.375 -2.125 54.375 0 54 C0.66 54.66 1.32 55.32 2 56 C4.3381615 55.70241581 6.67182036 55.36760731 9 55 C10.485 55.495 10.485 55.495 12 56 C12.66 53.69 13.32 51.38 14 49 C14.99 49 15.98 49 17 49 C17 48.34 17 47.68 17 47 C17.97850195 45.97895449 18.97980427 44.9793879 20 44 C20.33 43.34 20.66 42.68 21 42 C19.63875 41.9071875 19.63875 41.9071875 18.25 41.8125 C12.56749937 41.00572522 7.01599293 38.73743463 2 36 C1.505 34.515 1.505 34.515 1 33 C0.4225 32.896875 -0.155 32.79375 -0.75 32.6875 C-4.30011381 31.602743 -5.76806311 28.86145755 -8 26 C-8.98290968 24.98319689 -9.97334787 23.97261781 -11 23 C-10.505 21.515 -10.505 21.515 -10 20 C-9.34 20 -8.68 20 -8 20 C-7.95875 18.824375 -7.9175 17.64875 -7.875 16.4375 C-7.34863882 11.92355414 -5.43716366 9.81155109 -2.3671875 6.609375 C-0.59835903 4.5272112 -0.16376358 2.70209908 0 0 Z " fill="#AA7E65" transform="translate(79,95)"/>
<path d="M0 0 C4.57782516 0.48187633 4.57782516 0.48187633 6.375 2.6875 C7.19215562 5.71097581 6.68693763 7.97747444 6 11 C4.0549 8.08235 3.54723683 6.37462715 3 3 C2.34 3 1.68 3 1 3 C1.495 4.19625 1.99 5.3925 2.5 6.625 C4.26107782 11.34335943 4.36746425 15.04019069 3.4375 20 C2.84178271 22.96590613 2.84178271 22.96590613 3.50390625 25.76171875 C4.04266901 29.27852448 3.85538254 32.27886683 3.5 35.8125 C3.29525644 37.87156875 3.11821707 39.93415665 3 42 C3.33 42.33 3.66 42.66 4 43 C4.07179964 44.51928038 4.08392007 46.04167482 4.0625 47.5625 C4.05347656 48.38878906 4.04445312 49.21507812 4.03515625 50.06640625 C4.02355469 50.70449219 4.01195312 51.34257813 4 52 C4.99 52.33 5.98 52.66 7 53 C6.34 53.66 5.68 54.32 5 55 C5.33 55.99 5.66 56.98 6 58 C6.6966836 60.65960237 7.34345768 63.33006123 8 66 C8.433125 65.525625 8.86625 65.05125 9.3125 64.5625 C11 63 11 63 14 62 C15.03547047 58.97717357 15.03547047 58.97717357 15.6875 55.4375 C15.93886719 54.23996094 16.19023437 53.04242188 16.44921875 51.80859375 C16.63097656 50.88175781 16.81273437 49.95492187 17 49 C17.66 49.99 18.32 50.98 19 52 C22.12474627 50.36526484 22.12474627 50.36526484 22.6875 47.875 C22.790625 47.25625 22.89375 46.6375 23 46 C23.33 46.99 23.66 47.98 24 49 C24.66 49 25.32 49 26 49 C25.505 46.03 25.505 46.03 25 43 C27.62766009 45.62766009 27.44567546 47.21415477 27.75 50.875 C27.89695312 52.44894531 27.89695312 52.44894531 28.046875 54.0546875 C27.99947282 57.03312427 27.56327605 58.51078353 26 61 C25.34 61 24.68 61 24 61 C23.7525 61.556875 23.505 62.11375 23.25 62.6875 C20.36119366 68.03179173 16.41395303 72.20570166 11 75 C7.5625 75.3125 7.5625 75.3125 5 75 C5 77.64 5 80.28 5 83 C3 82 1 81 -1 80 C-1.34474478 73.28386093 -0.89663133 67.74567018 1.265625 61.37109375 C2.33139338 57.93002242 2.66850121 54.58018694 3 51 C2.34 51 1.68 51 1 51 C0.96261719 50.25234375 0.92523438 49.5046875 0.88671875 48.734375 C0.78810547 47.25710937 0.78810547 47.25710937 0.6875 45.75 C0.62949219 44.77546875 0.57148438 43.8009375 0.51171875 42.796875 C-0.05747129 39.6858821 -1.00914657 38.39897838 -3 36 C-5.28772817 31.3492275 -6.39243145 27.2324193 -6 22 C-3.69 22.33 -1.38 22.66 1 23 C0.67 19.7 0.34 16.4 0 13 C-0.99 13 -1.98 13 -3 13 C-3 14.98 -3 16.96 -3 19 C-4.32 18.67 -5.64 18.34 -7 18 C-7.12375 16.865625 -7.2475 15.73125 -7.375 14.5625 C-7.58125 13.386875 -7.7875 12.21125 -8 11 C-8.66 10.67 -9.32 10.34 -10 10 C-4.25 10.875 -4.25 10.875 -2 12 C-2 11.34 -2 10.68 -2 10 C-2.99 10 -3.98 10 -5 10 C-5 9.34 -5 8.68 -5 8 C-3.68 7.67 -2.36 7.34 -1 7 C-0.67 4.69 -0.34 2.38 0 0 Z M7 51 C11 52 11 52 11 52 Z " fill="#AE836C" transform="translate(139,53)"/>
<path d="M0 0 C1.49441811 2.67964626 2.19928762 4.99732857 3 8 C-1.8274799 6.58707905 -5.7162359 4.57025846 -10 2 C-10 1.34 -10 0.68 -10 0 C-11.3303125 0.309375 -11.3303125 0.309375 -12.6875 0.625 C-16.32374911 1.15802447 -19.45295435 0.69350859 -23.0625 0.0625 C-35.64045442 -2.06518619 -48.52838841 -2.14550621 -60 4 C-62.35882908 5.98158225 -64.61133167 8.04592007 -66.85546875 10.15625 C-69 12 -69 12 -72.375 13.5 C-75.43086546 15.24620884 -75.55847009 15.91406421 -76.625 19.125 C-76.80289063 19.82882813 -76.98078125 20.53265625 -77.1640625 21.2578125 C-78 23 -78 23 -79.8515625 23.73828125 C-82.90843182 24.11066351 -85.92491854 24.05913618 -89 24 C-89.734375 22.296875 -89.734375 22.296875 -90 20 C-80.78727738 5.74452394 -63.70967069 -3.24380073 -47.56005859 -6.86621094 C-32.75155813 -9.81673976 -12.72985161 -9.16549316 0 0 Z " fill="#865D45" transform="translate(145,48)"/>
<path d="M0 0 C2.31 0 4.62 0 7 0 C7 0.66 7 1.32 7 2 C4.03 3.32 1.06 4.64 -2 6 C0.832168 6.33448259 0.832168 6.33448259 4 6 C4.66 5.34 5.32 4.68 6 4 C8 2 8 2 11.25 1.75 C12.1575 1.8325 13.065 1.915 14 2 C14 2.66 14 3.32 14 4 C14.845625 3.649375 15.69125 3.29875 16.5625 2.9375 C20.45017533 1.87722491 23.08425639 2.21685128 27 3 C28 8.75 28 8.75 28 11 C28.804375 11.268125 29.60875 11.53625 30.4375 11.8125 C31.283125 12.204375 32.12875 12.59625 33 13 C33.495 14.485 33.495 14.485 34 16 C32.68 16 31.36 16 30 16 C29.67 16.66 29.34 17.32 29 18 C27.35 18 25.7 18 24 18 C23.835 17.38125 23.67 16.7625 23.5 16.125 C21.09818625 12.72243051 17.99837866 12.77387974 14 12 C14 11.34 14 10.68 14 10 C11.75059705 9.91880497 9.50035129 9.86072181 7.25 9.8125 C5.99703125 9.77769531 4.7440625 9.74289063 3.453125 9.70703125 C-0.23488759 10.01992825 -1.28067655 10.6665265 -4 13 C-4.99 13 -5.98 13 -7 13 C-6.67 11.68 -6.34 10.36 -6 9 C-6.99 9.66 -7.98 10.32 -9 11 C-9.33 10.34 -9.66 9.68 -10 9 C-9.34 9 -8.68 9 -8 9 C-8 8.34 -8 7.68 -8 7 C-4.53846154 4 -4.53846154 4 -2 4 C-1.34 2.68 -0.68 1.36 0 0 Z " fill="#C89E83" transform="translate(82,53)"/>
<path d="M0 0 C0.33 0 0.66 0 1 0 C2.01633584 20.97604242 -2.95828315 40.64396194 -16.95703125 56.8359375 C-22.56291565 62.77410185 -28.338391 67.44258262 -35.375 71.5625 C-35.98230957 71.92166504 -36.58961914 72.28083008 -37.21533203 72.65087891 C-38.9609375 73.62890625 -38.9609375 73.62890625 -42 75 C-42.99 74.67 -43.98 74.34 -45 74 C-38.25 70.125 -38.25 70.125 -36 69 C-35.67 68.01 -35.34 67.02 -35 66 C-30.54285714 62 -30.54285714 62 -28 62 C-28 60.68 -28 59.36 -28 58 C-27.34 58 -26.68 58 -26 58 C-25.01 54.7 -24.02 51.4 -23 48 C-20.36 48 -17.72 48 -15 48 C-14.67 46.35 -14.34 44.7 -14 43 C-12.68 43 -11.36 43 -10 43 C-7.41532727 36.55265924 -7.41532727 36.55265924 -8 30 C-6.68 29.67 -5.36 29.34 -4 29 C-3.67 27.35 -3.34 25.7 -3 24 C-4.65 24.33 -6.3 24.66 -8 25 C-6.33333333 23.33333333 -4.66666667 21.66666667 -3 20 C-1.85809315 16.75382456 -1.89682497 13.66670275 -1.9375 10.25 C-1.94652344 9.26515625 -1.95554688 8.2803125 -1.96484375 7.265625 C-1.97644531 6.51796875 -1.98804688 5.7703125 -2 5 C-1.34 5 -0.68 5 0 5 C0 3.35 0 1.7 0 0 Z " fill="#9D7B57" transform="translate(184,104)"/>
<path d="M0 0 C5.45746324 -0.1113768 10.59246907 0.13479505 16 1 C16.99 1 17.98 1 19 1 C19 1.66 19 2.32 19 3 C19.928125 3.185625 19.928125 3.185625 20.875 3.375 C23 4 23 4 25 6 C24.34 6 23.68 6 23 6 C22.67 8.31 22.34 10.62 22 13 C20.68 13.33 19.36 13.66 18 14 C18 14.66 18 15.32 18 16 C18.99 16 19.98 16 21 16 C21 16.66 21 17.32 21 18 C19.741875 17.835 18.48375 17.67 17.1875 17.5 C14.73543415 17.17841759 12.48349306 17 10 17 C10.66 17.99 11.32 18.98 12 20 C12.1953125 23.13671875 12.1953125 23.13671875 12.125 26.6875 C12.10695312 27.86699219 12.08890625 29.04648438 12.0703125 30.26171875 C12.03550781 31.61716797 12.03550781 31.61716797 12 33 C11.67 33 11.34 33 11 33 C10.74476562 31.78763672 10.74476562 31.78763672 10.484375 30.55078125 C8.91157422 23.61539907 7.42074693 19.29857739 2.25 14.3125 C1 13 1 13 1 11 C2.98 11.495 2.98 11.495 5 12 C4.7525 10.63875 4.7525 10.63875 4.5 9.25 C4 6 4 6 4 2 C2.68 1.67 1.36 1.34 0 1 C0 0.67 0 0.34 0 0 Z " fill="#A27862" transform="translate(116,47)"/>
<path d="M0 0 C0.33 0.66 0.66 1.32 1 2 C1.66 2 2.32 2 3 2 C3.33 1.34 3.66 0.68 4 0 C4.598125 0.309375 5.19625 0.61875 5.8125 0.9375 C8.08956772 2.10209704 8.08956772 2.10209704 11 3 C11 3.66 11 4.32 11 5 C9.68 5 8.36 5 7 5 C7.33 6.32 7.66 7.64 8 9 C6.71073008 9.36279456 5.41846728 9.71496698 4.125 10.0625 C3.40570313 10.25972656 2.68640625 10.45695313 1.9453125 10.66015625 C0 11 0 11 -2 10 C-2.12375 10.9075 -2.2475 11.815 -2.375 12.75 C-2.92109677 15.58970323 -3.57263803 17.52590591 -5 20 C-5.66 20 -6.32 20 -7 20 C-7 21.32 -7 22.64 -7 24 C-7.66 23.67 -8.32 23.34 -9 23 C-8.67 21.35 -8.34 19.7 -8 18 C-10.19067819 18.86421401 -10.19067819 18.86421401 -11.25 21.1875 C-13.45874347 24.7372663 -15.91303947 27.17575952 -19 30 C-19.66 30 -20.32 30 -21 30 C-19.59023295 26.96147295 -17.91129772 24.4060405 -15.875 21.75 C-15.33617187 21.04359375 -14.79734375 20.3371875 -14.2421875 19.609375 C-13.83226562 19.07828125 -13.42234375 18.5471875 -13 18 C-13.99 18.66 -14.98 19.32 -16 20 C-16.99 20 -17.98 20 -19 20 C-19 18.68 -19 17.36 -19 16 C-18.34 16 -17.68 16 -17 16 C-17 15.34 -17 14.68 -17 14 C-15.68 14 -14.36 14 -13 14 C-13 13.34 -13 12.68 -13 12 C-11.8553125 11.1646875 -11.8553125 11.1646875 -10.6875 10.3125 C-7.71972498 8.11460489 -7.71972498 8.11460489 -6.5 4.3125 C-6.005 3.219375 -5.51 2.12625 -5 1 C-2.3125 0.0625 -2.3125 0.0625 0 0 Z " fill="#AD7D53" transform="translate(163,142)"/>
<path d="M0 0 C0.66 0.66 1.32 1.32 2 2 C4.06874034 2.6425235 4.06874034 2.6425235 6 3 C5.67 3.99 5.34 4.98 5 6 C4.34 6 3.68 6 3 6 C2.91363281 6.6290625 2.82726563 7.258125 2.73828125 7.90625 C1.98131238 12.51750993 1.21774696 16.06622237 -1.5625 19.875 C-4.60642561 24.20947887 -4.63838845 28.37222994 -4.76171875 33.55859375 C-4.87966797 34.76708984 -4.87966797 34.76708984 -5 36 C-5.99 36.495 -5.99 36.495 -7 37 C-8.04449911 33.86650268 -7.93423645 33.01031744 -7 30 C-7.99 30.66 -8.98 31.32 -10 32 C-10.99 32 -11.98 32 -13 32 C-11.42270444 19.8289283 -6.4913086 10.28348202 0 0 Z " fill="#986A50" transform="translate(54,69)"/>
<path d="M0 0 C8.39207685 0.55947179 16.91091813 2.27394542 24 7 C24.94921875 8.9453125 24.94921875 8.9453125 25.6875 11.125 C25.93886719 11.84945312 26.19023437 12.57390625 26.44921875 13.3203125 C26.63097656 13.87460937 26.81273437 14.42890625 27 15 C22.1725201 13.58707905 18.2837641 11.57025846 14 9 C14 8.34 14 7.68 14 7 C13.113125 7.20625 12.22625 7.4125 11.3125 7.625 C7.67625089 8.15802447 4.54704565 7.69350859 0.9375 7.0625 C-10.57494891 5.11505467 -21.26264553 5.37221924 -32.3125 9.125 C-35 10 -35 10 -39 10 C-39 9.34 -39 8.68 -39 8 C-38.11248047 7.83564453 -38.11248047 7.83564453 -37.20703125 7.66796875 C-36.41683594 7.50941406 -35.62664062 7.35085937 -34.8125 7.1875 C-34.03519531 7.03667969 -33.25789063 6.88585938 -32.45703125 6.73046875 C-29.91671951 6.11723229 -29.91671951 6.11723229 -27.78515625 4.44140625 C-23.74230069 2.34910092 -20.10526739 2.63903363 -15.625 2.75 C-14.8 2.75515625 -13.975 2.7603125 -13.125 2.765625 C-8.32817497 2.82653706 -3.73085367 3.20939912 1 4 C0.505 2.02 0.505 2.02 0 0 Z " fill="#603E2F" transform="translate(121,41)"/>
<path d="M0 0 C1.9808859 0.01166943 3.96160192 0.10903224 5.9375 0.25 C7.55978516 0.35054688 7.55978516 0.35054688 9.21484375 0.453125 C10.59349609 0.72382812 10.59349609 0.72382812 12 1 C14 4 14 4 14 7 C14.66 7 15.32 7 16 7 C17.42944945 9.35438733 18.08661261 10.48032433 17.625 13.25 C17.315625 14.11625 17.315625 14.11625 17 15 C15.35 15 13.7 15 12 15 C12 15.66 12 16.32 12 17 C8.37 17.33 4.74 17.66 1 18 C1.33 15.36 1.66 12.72 2 10 C1.34 10 0.68 10 0 10 C-0.19412181 8.52168779 -0.38012131 7.04230684 -0.5625 5.5625 C-0.66691406 4.73878906 -0.77132812 3.91507813 -0.87890625 3.06640625 C-0.91886719 2.38449219 -0.95882812 1.70257813 -1 1 C-0.67 0.67 -0.34 0.34 0 0 Z " fill="#CEA98D" transform="translate(144,127)"/>
<path d="M0 0 C5.24167563 0.52416756 9.63017685 2.08678457 14 5 C17 8.9375 17 8.9375 17 12 C17.66 12 18.32 12 19 12 C18.835 12.804375 18.67 13.60875 18.5 14.4375 C17.90752652 18.65887352 17.91493291 22.74664545 18 27 C17.34 27 16.68 27 16 27 C15.67 24.36 15.34 21.72 15 19 C14.34 21.97 13.68 24.94 13 28 C10.62921161 25.62921161 10.74370777 24.97879299 10.5625 21.75 C10.17386984 17.59567764 9.37833142 14.52345395 7 11 C4.97536745 10.34786708 4.97536745 10.34786708 3 10 C0.85150175 6.9468709 0.49698389 3.64454851 0 0 Z " fill="#AE846C" transform="translate(148,62)"/>
<path d="M0 0 C0.99 1.32 1.98 2.64 3 4 C3.33 3.34 3.66 2.68 4 2 C4.66 2 5.32 2 6 2 C5.979375 3.11375 5.95875 4.2275 5.9375 5.375 C5.92269179 9.53610732 6.34704053 13.5795241 6.87890625 17.703125 C7 20 7 20 6.46484375 22.109375 C5.77155165 24.20396683 5.77155165 24.20396683 7 27 C6.22265625 29.04296875 6.22265625 29.04296875 5.0625 31.1875 C4.49208984 32.26064453 4.49208984 32.26064453 3.91015625 33.35546875 C3.45962891 34.16951172 3.45962891 34.16951172 3 35 C2.34 35 1.68 35 1 35 C0.93941406 34.36191406 0.87882813 33.72382812 0.81640625 33.06640625 C0.73261719 32.24011719 0.64882812 31.41382812 0.5625 30.5625 C0.48128906 29.73878906 0.40007812 28.91507813 0.31640625 28.06640625 C0.21069185 26.01337975 0.21069185 26.01337975 -1 25 C-0.88078051 22.83020532 -0.70340848 20.66352657 -0.5 18.5 C-0.03172962 12.7636879 -0.24249301 7.68130244 -1 2 C-0.67 1.34 -0.34 0.68 0 0 Z " fill="#9E735C" transform="translate(142,70)"/>
<path d="M0 0 C1.97805311 1.63880917 2.91505716 2.51226372 3.36328125 5.0859375 C3.34652344 5.84132813 3.32976562 6.59671875 3.3125 7.375 C3.30863281 8.12523438 3.30476562 8.87546875 3.30078125 9.6484375 C3 12 3 12 2.04296875 14.19140625 C0.26121698 18.9894569 0.20435943 24.0666659 -0.2109375 29.13867188 C-0.28570312 29.96044922 -0.36046875 30.78222656 -0.4375 31.62890625 C-0.49808594 32.37213135 -0.55867187 33.11535645 -0.62109375 33.88110352 C-1.04428801 36.24766474 -1.75538678 37.94767073 -3 40 C-5 41.125 -5 41.125 -7 42 C-7.66 42.66 -8.32 43.32 -9 44 C-10.41029891 40.20982169 -11.43881648 37.05905248 -11 33 C-10.34 32.01 -9.68 31.02 -9 30 C-7.68 30 -6.36 30 -5 30 C-4.67 26.04 -4.34 22.08 -4 18 C-3.34 18.66 -2.68 19.32 -2 20 C-1.01857619 15.75266168 -0.69079621 11.52675467 -0.4375 7.1875 C-0.39431641 6.49462891 -0.35113281 5.80175781 -0.30664062 5.08789062 C-0.20138547 3.39211314 -0.10027137 1.69607948 0 0 Z " fill="#9E735E" transform="translate(156,76)"/>
<path d="M0 0 C4.455 0.99 4.455 0.99 9 2 C8.34 3.65 7.68 5.3 7 7 C6.34 7 5.68 7 5 7 C5 7.66 5 8.32 5 9 C4.01 9 3.02 9 2 9 C1.67 11.31 1.34 13.62 1 16 C-0.32 16 -1.64 16 -3 16 C-5.33634657 16.31151288 -7.67038557 16.64159778 -10 17 C-12 14 -12 14 -11.875 12 C-10.71036588 9.33797916 -9.53215555 8.40675308 -7 7 C-4.25 6.8125 -4.25 6.8125 -2 7 C-1.855625 6.401875 -1.71125 5.80375 -1.5625 5.1875 C-1.1127561 3.43849596 -0.57107659 1.71322977 0 0 Z " fill="#956950" transform="translate(91,135)"/>
<path d="M0 0 C6.09796608 2.07330847 9.1638618 4.87109727 13 10 C10.33333333 9.33333333 7.66666667 8.66666667 5 8 C4.85070243 10.68735631 4.74982147 12.51527911 6 14.9375 C7.33343743 17.6877147 7.1370035 19.98592292 7 23 C5.68 23.33 4.36 23.66 3 24 C2.06576355 20.98968256 1.95550089 20.13349732 3 17 C2.34 17 1.68 17 1 17 C0.67 17.99 0.34 18.98 0 20 C-2.02762727 15.59211464 -3.38098055 11.84898568 -4 7 C-4.185625 5.88625 -4.37125 4.7725 -4.5625 3.625 C-4.706875 2.75875 -4.85125 1.8925 -5 1 C-4.34 1 -3.68 1 -3 1 C-2.34 2.65 -1.68 4.3 -1 6 C0.15811388 3.05270463 0.15811388 3.05270463 0 0 Z " fill="#A98069" transform="translate(145,55)"/>
<path d="M0 0 C2.31 0 4.62 0 7 0 C6.01 0.495 6.01 0.495 5 1 C4.005081 3.53252108 3.92059472 4.74362232 4.734375 7.37109375 C5 10 5 10 3.40234375 12.17578125 C-1.60842559 16.51950681 -6.72015108 20.28559085 -12.4375 23.625 C-13.04021729 23.97989502 -13.64293457 24.33479004 -14.26391602 24.70043945 C-15.99609375 25.6640625 -15.99609375 25.6640625 -19 27 C-19.99 26.67 -20.98 26.34 -22 26 C-15.25 22.125 -15.25 22.125 -13 21 C-12.67 20.01 -12.34 19.02 -12 18 C-7.54285714 14 -7.54285714 14 -5 14 C-5 12.68 -5 11.36 -5 10 C-4.34 10 -3.68 10 -3 10 C-2.01 6.7 -1.02 3.4 0 0 Z " fill="#9A7957" transform="translate(161,152)"/>
<path d="M0 0 C0.80050781 0.20882812 1.60101563 0.41765625 2.42578125 0.6328125 C3.23402344 0.83648437 4.04226562 1.04015625 4.875 1.25 C5.48988281 1.41757812 6.10476562 1.58515625 6.73828125 1.7578125 C6.73828125 1.0978125 6.73828125 0.4378125 6.73828125 -0.2421875 C12.01828125 -0.2421875 17.29828125 -0.2421875 22.73828125 -0.2421875 C23.99369682 3.52405921 23.10890083 5.12970184 21.73828125 8.7578125 C21.07828125 7.4378125 20.41828125 6.1178125 19.73828125 4.7578125 C15.26400201 4.66832692 11.13264336 4.90037599 6.73828125 5.7578125 C6.73828125 5.0978125 6.73828125 4.4378125 6.73828125 3.7578125 C4.09828125 4.4178125 1.45828125 5.0778125 -1.26171875 5.7578125 C-1.26171875 6.0878125 -1.26171875 6.4178125 -1.26171875 6.7578125 C-0.27171875 7.0878125 0.71828125 7.4178125 1.73828125 7.7578125 C0.73828125 8.7578125 0.73828125 8.7578125 -1.765625 8.85546875 C-3.27962891 8.83806641 -3.27962891 8.83806641 -4.82421875 8.8203125 C-5.83613281 8.81128906 -6.84804687 8.80226563 -7.890625 8.79296875 C-8.67308594 8.78136719 -9.45554687 8.76976562 -10.26171875 8.7578125 C-8.73470831 5.70379162 -6.31013963 5.09911769 -3.26171875 3.7578125 C-2.27171875 3.7578125 -1.28171875 3.7578125 -0.26171875 3.7578125 C-0.26171875 3.0978125 -0.26171875 2.4378125 -0.26171875 1.7578125 C-1.91171875 1.7578125 -3.56171875 1.7578125 -5.26171875 1.7578125 C-2.26171875 -0.2421875 -2.26171875 -0.2421875 0 0 Z " fill="#AE846C" transform="translate(89.26171875,51.2421875)"/>
<path d="M0 0 C0.66 0 1.32 0 2 0 C2.19532961 1.7699868 2.38098882 3.54104279 2.5625 5.3125 C2.66691406 6.29863281 2.77132812 7.28476563 2.87890625 8.30078125 C3 11 3 11 2 14 C1.34 14 0.68 14 0 14 C0 14.66 0 15.32 0 16 C-1.609375 17.65625 -1.609375 17.65625 -3.75 19.5 C-4.44609375 20.1084375 -5.1421875 20.716875 -5.859375 21.34375 C-9.39401237 24.07857891 -11.02154852 25.10299489 -15.5625 24.625 C-16.696875 24.41875 -17.83125 24.2125 -19 24 C-19.99 24 -20.98 24 -22 24 C-24.1875 23 -24.1875 23 -26 22 C-22.91089916 20.84158719 -21.58823856 21.09607767 -18.25 21.875 C-15.47494882 22.27365474 -14.31887895 22.17850289 -11.84375 20.79296875 C-7.02873983 16.81339878 -4.40820005 12.71947512 -2 7 C-1.34 7 -0.68 7 0 7 C0 4.69 0 2.38 0 0 Z " fill="#9D7055" transform="translate(106,132)"/>
<path d="M0 0 C2.475 0.495 2.475 0.495 5 1 C2.79035353 4.75639899 0.54964086 8.46340139 -2 12 C-2.66 12 -3.32 12 -4 12 C-4.33 12.99 -4.66 13.98 -5 15 C-7.1286427 17.04368579 -8.36851962 17.94182342 -11.33203125 18.21484375 C-17.18680603 17.56021539 -21.10288076 16.30023253 -26 13 C-24.125 12.375 -24.125 12.375 -22 12 C-21.34 12.66 -20.68 13.32 -20 14 C-17.6618385 13.70241581 -15.32817964 13.36760731 -13 13 C-12.01 13.33 -11.02 13.66 -10 14 C-9.34 11.69 -8.68 9.38 -8 7 C-7.01 7 -6.02 7 -5 7 C-5 6.34 -5 5.68 -5 5 C-3.625 3.375 -3.625 3.375 -2 2 C-1.34 2 -0.68 2 0 2 C0 1.34 0 0.68 0 0 Z " fill="#B98D72" transform="translate(101,137)"/>
<path d="M0 0 C0.73605469 0.00451172 1.47210938 0.00902344 2.23046875 0.01367188 C4.02868158 0.02534858 5.82685197 0.04327989 7.625 0.0625 C8.285 1.7125 8.945 3.3625 9.625 5.0625 C8.86356689 5.04678955 8.10213379 5.0310791 7.31762695 5.01489258 C3.8576606 4.95241547 0.3978131 4.91346828 -3.0625 4.875 C-4.26068359 4.84986328 -5.45886719 4.82472656 -6.69335938 4.79882812 C-8.42875977 4.78432617 -8.42875977 4.78432617 -10.19921875 4.76953125 C-11.79382935 4.74596558 -11.79382935 4.74596558 -13.4206543 4.72192383 C-16.77661664 5.10879826 -18.56660907 6.25652737 -21.375 8.0625 C-24.125 7.875 -24.125 7.875 -26.375 7.0625 C-26.705 6.4025 -27.035 5.7425 -27.375 5.0625 C-25.33490245 4.41172704 -23.29284331 3.76710176 -21.25 3.125 C-19.54457031 2.58552734 -19.54457031 2.58552734 -17.8046875 2.03515625 C-11.7697971 0.32366683 -6.2211351 -0.07312365 0 0 Z " fill="#876C5D" transform="translate(112.375,39.9375)"/>
<path d="M0 0 C2.23915424 0.73602403 2.23915424 0.73602403 5.0625 -0.5 C8.35236304 3.10823688 9.75622878 5.59966055 10.0625 10.5 C9.625 13.375 9.625 13.375 9.0625 15.5 C4.62427819 14.14557714 2.85795219 12.39757289 0.3125 8.5625 C-0.28046875 7.68722656 -0.8734375 6.81195313 -1.484375 5.91015625 C-2.9375 3.5 -2.9375 3.5 -3.9375 0.5 C-1.9375 -0.5 -1.9375 -0.5 0 0 Z " fill="#9E6D47" transform="translate(51.9375,144.5)"/>
<path d="M0 0 C11.99287411 0.99287411 11.99287411 0.99287411 15 4 C16.80811184 4.20896317 18.62216032 4.36780361 20.4375 4.5 C25.78015267 4.89007634 25.78015267 4.89007634 28 6 C29.44848582 6.08342159 30.90070869 6.10732861 32.3515625 6.09765625 C33.20234375 6.09443359 34.053125 6.09121094 34.9296875 6.08789062 C36.26386719 6.07532227 36.26386719 6.07532227 37.625 6.0625 C38.97078125 6.05573242 38.97078125 6.05573242 40.34375 6.04882812 C42.56256648 6.03702591 44.78125018 6.02056155 47 6 C47 6.66 47 7.32 47 8 C30.99654768 11.76371823 14.64685309 7.61925092 0 1 C0 0.67 0 0.34 0 0 Z " fill="#B09270" transform="translate(78,176)"/>
<path d="M0 0 C0.33 0 0.66 0 1 0 C1.02578125 0.81082031 1.0515625 1.62164062 1.078125 2.45703125 C1.43837436 9.49008135 2.47758697 15.33520249 5.16015625 21.85546875 C6 24 6 24 6 26 C6.66 26 7.32 26 8 26 C8 27.98 8 29.96 8 32 C8.66 32 9.32 32 10 32 C9.25 37.75 9.25 37.75 7 40 C1.04263267 26.8756476 -0.4984564 14.21523803 0 0 Z " fill="#9C7D63" transform="translate(40,104)"/>
<path d="M0 0 C-0.33 1.32 -0.66 2.64 -1 4 C-4.15506142 4.93619813 -6.96586502 5.1057123 -10.25 5.0625 C-11.14203125 5.05347656 -12.0340625 5.04445313 -12.953125 5.03515625 C-13.62859375 5.02355469 -14.3040625 5.01195312 -15 5 C-15 5.66 -15 6.32 -15 7 C-18.63 6.67 -22.26 6.34 -26 6 C-19.15503753 -0.84496247 -9.11580167 -0.16507488 0 0 Z " fill="#9A725F" transform="translate(111,46)"/>
<path d="M0 0 C11.25643961 5.13451631 11.25643961 5.13451631 15 10 C15.4375 13.875 15.4375 13.875 15 17 C11.16867684 15.43909056 8.8924866 12.8924866 6 10 C5.01 9.67 4.02 9.34 3 9 C1.11420063 5.78715662 0 3.75366417 0 0 Z " fill="#7A5748" transform="translate(145,48)"/>
<path d="M0 0 C2.92885909 1.46442954 3.28163759 3.7831068 4.34375 6.73046875 C4.99123977 8.96970421 5.325452 11.05954895 5.5625 13.375 C5.6261733 17.03769787 5.6261733 17.03769787 8 19 C7.58279051 23.48500198 6.28941817 27.70193944 5 32 C4.67 32 4.34 32 4 32 C3.67 29.69 3.34 27.38 3 25 C2.34 25.33 1.68 25.66 1 26 C0.875 20.25 0.875 20.25 2 18 C2.37437522 12.29077789 2.03446958 9.88153803 -1 5 C-0.6875 2.1875 -0.6875 2.1875 0 0 Z " fill="#82614B" transform="translate(170,70)"/>
<path d="M0 0 C1.32 0.33 2.64 0.66 4 1 C4.12375 1.639375 4.2475 2.27875 4.375 2.9375 C4.684375 3.9584375 4.684375 3.9584375 5 5 C5.66 5.33 6.32 5.66 7 6 C6.34 6 5.68 6 5 6 C5.515625 6.886875 6.03125 7.77375 6.5625 8.6875 C8.0868937 12.20023331 8.14947895 13.44706507 7 17 C5.35 17.33 3.7 17.66 2 18 C2 17.34 2 16.68 2 16 C1.34 15.67 0.68 15.34 0 15 C0.52268466 12.23723823 1.10869587 9.6739124 2 7 C0.68 6.67 -0.64 6.34 -2 6 C0 5 0 5 3 5 C2.01 3.35 1.02 1.7 0 0 Z " fill="#AF8469" transform="translate(116,60)"/>
<path d="M0 0 C0.66 0 1.32 0 2 0 C1.71949194 2.81403301 1.42618696 5.62567253 1.125 8.4375 C1.00705078 9.64116211 1.00705078 9.64116211 0.88671875 10.86914062 C0.66154237 12.92170994 0.33777413 14.96293009 0 17 C-0.66 17.33 -1.32 17.66 -2 18 C-3.04449911 14.86650268 -2.93423645 14.01031744 -2 11 C-2.99 11.66 -3.98 12.32 -5 13 C-5.99 13 -6.98 13 -8 13 C-7.67 10.69 -7.34 8.38 -7 6 C-6.21625 5.7525 -5.4325 5.505 -4.625 5.25 C-1.67682892 3.84610901 -1.0975223 2.99324263 0 0 Z " fill="#8E6245" transform="translate(49,88)"/>
<path d="M0 0 C-3 2 -3 2 -5 2 C-5 2.66 -5 3.32 -5 4 C-4.01 4.33 -3.02 4.66 -2 5 C-5.88717131 7.68399924 -9.72121973 9.96248559 -14 12 C-14 11.34 -14 10.68 -14 10 C-14.66 9.67 -15.32 9.34 -16 9 C-15.34 8.01 -14.68 7.02 -14 6 C-13.01 6 -12.02 6 -11 6 C-10.95875 5.401875 -10.9175 4.80375 -10.875 4.1875 C-10 2 -10 2 -7.1875 0.1875 C-4.05184556 -0.98068499 -3.0006419 -1.26950234 0 0 Z " fill="#7C5542" transform="translate(87,47)"/>
<path d="M0 0 C0.33 1.32 0.66 2.64 1 4 C-0.32 4.33 -1.64 4.66 -3 5 C-3 5.66 -3 6.32 -3 7 C-2.34 7.33 -1.68 7.66 -1 8 C-3.35438733 9.42944945 -4.48032433 10.08661261 -7.25 9.625 C-7.8275 9.41875 -8.405 9.2125 -9 9 C-9.33 7.35 -9.66 5.7 -10 4 C-6.58908673 0.88145073 -4.68377325 -0.53528837 0 0 Z " fill="#9A6E55" transform="translate(89,142)"/>
<path d="M0 0 C3.85940746 3.85940746 3.94344336 10.35985738 4.125 15.625 C4.08375 16.40875 4.0425 17.1925 4 18 C2 17 0 16 -2 15 C-2.05429959 13.25034642 -2.09292823 11.50020213 -2.125 9.75 C-2.15980469 8.28820312 -2.15980469 8.28820312 -2.1953125 6.796875 C-1.99862781 3.9803502 -1.44568916 2.39050964 0 0 Z " fill="#C39A81" transform="translate(140,118)"/>
<path d="M0 0 C2.31 0 4.62 0 7 0 C6.01 0.495 6.01 0.495 5 1 C3.86382617 3.99536737 4.02889514 5.97878489 5 9 C4.01 9 3.02 9 2 9 C2 9.66 2 10.32 2 11 C0.824375 11.2165625 0.824375 11.2165625 -0.375 11.4375 C-2.96421018 11.87798925 -2.96421018 11.87798925 -5 13 C-5 12.01 -5 11.02 -5 10 C-4.34 10 -3.68 10 -3 10 C-2.01 6.7 -1.02 3.4 0 0 Z " fill="#9F6E43" transform="translate(161,152)"/>
<path d="M0 0 C0.33 1.32 0.66 2.64 1 4 C1.66 4 2.32 4 3 4 C2.34 6.31 1.68 8.62 1 11 C0.67 10.01 0.34 9.02 0 8 C-0.99 8 -1.98 8 -3 8 C-3 10.64 -3 13.28 -3 16 C-5.31 15.34 -7.62 14.68 -10 14 C-9.67 13.34 -9.34 12.68 -9 12 C-8.01 12.33 -7.02 12.66 -6 13 C-6.185625 12.2575 -6.37125 11.515 -6.5625 10.75 C-7.00523487 7.9670951 -7.22141833 6.53008082 -6 4 C-3.5 2.875 -3.5 2.875 -1 2 C-0.67 1.34 -0.34 0.68 0 0 Z " fill="#B0846C" transform="translate(93,104)"/>
<path d="M0 0 C0.66 0 1.32 0 2 0 C2.33 0.66 2.66 1.32 3 2 C3.66 2 4.32 2 5 2 C5.33 4.97 5.66 7.94 6 11 C3.69 11 1.38 11 -1 11 C-1 9.35 -1 7.7 -1 6 C-1.99 5.67 -2.98 5.34 -4 5 C-3.01 4.67 -2.02 4.34 -1 4 C-0.26676204 1.98491642 -0.26676204 1.98491642 0 0 Z " fill="#AD8067" transform="translate(77,78)"/>
<path d="M0 0 C1.4835001 0.42257276 2.96176424 0.86356322 4.4375 1.3125 C5.67306641 1.67794922 5.67306641 1.67794922 6.93359375 2.05078125 C7.95646484 2.52064453 7.95646484 2.52064453 9 3 C9.33 3.99 9.66 4.98 10 6 C8.68 6 7.36 6 6 6 C5.67 6.66 5.34 7.32 5 8 C3.35 8 1.7 8 0 8 C-0.66 6.68 -1.32 5.36 -2 4 C-2.66 4 -3.32 4 -4 4 C-4 3.34 -4 2.68 -4 2 C-3.01 1.67 -2.02 1.34 -1 1 C1.1875 2.4375 1.1875 2.4375 3 4 C3 3.34 3 2.68 3 2 C2.01 1.67 1.02 1.34 0 1 C0 0.67 0 0.34 0 0 Z " fill="#CA9E85" transform="translate(106,63)"/>
<path d="M0 0 C0.8971875 0.309375 0.8971875 0.309375 1.8125 0.625 C1.1525 0.625 0.4925 0.625 -0.1875 0.625 C-0.435 1.511875 -0.6825 2.39875 -0.9375 3.3125 C-2.2442747 6.77545296 -3.65864269 8.94287861 -6.1875 11.625 C-7.1775 11.955 -8.1675 12.285 -9.1875 12.625 C-8.8575 9.985 -8.5275 7.345 -8.1875 4.625 C-7.1975 4.295 -6.2075 3.965 -5.1875 3.625 C-5.1875 2.965 -5.1875 2.305 -5.1875 1.625 C-2.1875 -0.375 -2.1875 -0.375 0 0 Z " fill="#BD9177" transform="translate(72.1875,67.375)"/>
<path d="M0 0 C2.375 -0.1875 2.375 -0.1875 5 0 C5.66 0.99 6.32 1.98 7 3 C9.56282742 3.72965366 9.56282742 3.72965366 12 4 C11.67 6.31 11.34 8.62 11 11 C6.71616238 9.6717914 5.0216474 8.17477484 2.6875 4.375 C2.17574219 3.55773437 1.66398437 2.74046875 1.13671875 1.8984375 C0.76160156 1.27195313 0.38648438 0.64546875 0 0 Z " fill="#9B7759" transform="translate(50,149)"/>
<path d="M0 0 C0.33 0 0.66 0 1 0 C1.3690205 16.70842825 1.3690205 16.70842825 -1 25 C-1.66 24.67 -2.32 24.34 -3 24 C-4.67654729 24.27942455 -6.34608154 24.60828247 -8 25 C-6.33333333 23.33333333 -4.66666667 21.66666667 -3 20 C-1.85809315 16.75382456 -1.89682497 13.66670275 -1.9375 10.25 C-1.95103516 8.77273437 -1.95103516 8.77273437 -1.96484375 7.265625 C-1.97644531 6.51796875 -1.98804688 5.7703125 -2 5 C-1.34 5 -0.68 5 0 5 C0 3.35 0 1.7 0 0 Z " fill="#8B6E53" transform="translate(184,104)"/>
<path d="M0 0 C1.65 0 3.3 0 5 0 C5 0.66 5 1.32 5 2 C5.99 2.33 6.98 2.66 8 3 C8 3.33 8 3.66 8 4 C6.88625 4.12375 5.7725 4.2475 4.625 4.375 C0.96896323 4.6465813 0.96896323 4.6465813 -1 7 C-5.13830989 6.69903201 -7.51847024 6.32101984 -11 4 C-11 3.34 -11 2.68 -11 2 C-7.37 2.33 -3.74 2.66 0 3 C0 2.01 0 1.02 0 0 Z " fill="#AE815A" transform="translate(80,164)"/>
<path d="M0 0 C1.2380014 3.57644848 0.74926071 6.33694766 0 10 C-0.99 10 -1.98 10 -3 10 C-3.33 11.32 -3.66 12.64 -4 14 C-4 13.34 -4 12.68 -4 12 C-4.99 11.67 -5.98 11.34 -7 11 C-6.01 8.03 -5.02 5.06 -4 2 C-2.68 2 -1.36 2 0 2 C0 1.34 0 0.68 0 0 Z " fill="#8D5F45" transform="translate(60,86)"/>
<path d="M0 0 C1.98 0 3.96 0 6 0 C6 0.99 6 1.98 6 3 C6.886875 3.226875 7.77375 3.45375 8.6875 3.6875 C12.43380532 5.17188513 14.33729434 7.02403485 17 10 C14 11 14 11 11.9140625 9.9609375 C7.53220485 6.92504295 3.59602817 3.9440309 0 0 Z " fill="#B2916F" transform="translate(63,165)"/>
<path d="M0 0 C0.33 0.66 0.66 1.32 1 2 C1.66 2 2.32 2 3 2 C3 3.98 3 5.96 3 8 C3.66 8 4.32 8 5 8 C4.25 13.75 4.25 13.75 2 16 C-1.06475363 10.23826317 -1.19937786 6.37259801 0 0 Z " fill="#9B6F4F" transform="translate(45,128)"/>
<path d="M0 0 C0.66 0 1.32 0 2 0 C1.979375 0.886875 1.95875 1.77375 1.9375 2.6875 C1.99286219 5.62169631 2.3305734 8.15493696 3 11 C2.34 10.67 1.68 10.34 1 10 C0.34 12.64 -0.32 15.28 -1 18 C-3 16 -3 16 -3.3125 12.375 C-3.21983697 7.77554395 -1.80103851 4.20242319 0 0 Z " fill="#C2947A" transform="translate(63,82)"/>
<path d="M0 0 C0.99 0 1.98 0 3 0 C3 1.98 3 3.96 3 6 C4.65 6 6.3 6 8 6 C7.67 6.66 7.34 7.32 7 8 C5.68 8 4.36 8 3 8 C2.34 9.32 1.68 10.64 1 12 C-0.5625 10.4375 -0.5625 10.4375 -2 8 C-1.56363636 1.56363636 -1.56363636 1.56363636 0 0 Z " fill="#CEA086" transform="translate(73,84)"/>
<path d="M0 0 C2.31 0 4.62 0 7 0 C7 0.66 7 1.32 7 2 C6.06027344 2.38091797 6.06027344 2.38091797 5.1015625 2.76953125 C4.28429687 3.11371094 3.46703125 3.45789062 2.625 3.8125 C1.81289062 4.14894531 1.00078125 4.48539063 0.1640625 4.83203125 C-2.30147458 5.94439082 -2.30147458 5.94439082 -4 9 C-6.625 10.1875 -6.625 10.1875 -9 11 C-9.33 10.34 -9.66 9.68 -10 9 C-9.34 9 -8.68 9 -8 9 C-8 8.34 -8 7.68 -8 7 C-4.53846154 4 -4.53846154 4 -2 4 C-1.34 2.68 -0.68 1.36 0 0 Z " fill="#BF977D" transform="translate(82,53)"/>
<path d="M0 0 C0.33 0.99 0.66 1.98 1 3 C0.236875 3.020625 -0.52625 3.04125 -1.3125 3.0625 C-4.41389118 3.79660949 -4.41389118 3.79660949 -5.8125 7.5625 C-6.204375 8.696875 -6.59625 9.83125 -7 11 C-7.99 11 -8.98 11 -10 11 C-9.01 9.02 -8.02 7.04 -7 5 C-7.66 5 -8.32 5 -9 5 C-9.66 6.32 -10.32 7.64 -11 9 C-11.66 9 -12.32 9 -13 9 C-12.34 7.35 -11.68 5.7 -11 4 C-9.35 4 -7.7 4 -6 4 C-6 3.34 -6 2.68 -6 2 C-4.02 1.34 -2.04 0.68 0 0 Z " fill="#C29774" transform="translate(162,140)"/>
<path d="M0 0 C2.04209893 3.06314839 2.25016253 3.6774293 2.23046875 7.125 C2.22853516 7.91390625 2.22660156 8.7028125 2.22460938 9.515625 C2.21236328 10.33546875 2.20011719 11.1553125 2.1875 12 C2.18685547 12.81984375 2.18621094 13.6396875 2.18554688 14.484375 C2.15984783 17.97944449 2.1158005 20.65259849 1 24 C0.34 24 -0.32 24 -1 24 C-1 19.71 -1 15.42 -1 11 C-0.67 11 -0.34 11 0 11 C0 7.37 0 3.74 0 0 Z " fill="#AA856F" transform="translate(168,80)"/>
<path d="M0 0 C0.99 0.33 1.98 0.66 3 1 C3 2.32 3 3.64 3 5 C2.34 5.66 1.68 6.32 1 7 C1.99 7.33 2.98 7.66 4 8 C3 9 3 9 0.49609375 9.09765625 C-1.01791016 9.08025391 -1.01791016 9.08025391 -2.5625 9.0625 C-3.57441406 9.05347656 -4.58632812 9.04445313 -5.62890625 9.03515625 C-6.41136719 9.02355469 -7.19382812 9.01195312 -8 9 C-6.47298956 5.94597912 -4.04842088 5.34130519 -1 4 C-0.01 4 0.98 4 2 4 C2 3.34 2 2.68 2 2 C0.35 2 -1.3 2 -3 2 C-2.01 1.34 -1.02 0.68 0 0 Z " fill="#B38972" transform="translate(87,51)"/>
<path d="M0 0 C6.6 0.6 6.6 0.6 9 3 C7.68 3 6.36 3 5 3 C4.731875 3.639375 4.46375 4.27875 4.1875 4.9375 C3 7 3 7 0 8 C-0.38063221 5.6739143 -0.71269945 3.33944736 -1 1 C-0.67 0.67 -0.34 0.34 0 0 Z " fill="#C6A087" transform="translate(144,127)"/>
<path d="M0 0 C1.14926266 0.95421808 2.29430541 1.91352045 3.4375 2.875 C4.07558594 3.40867188 4.71367187 3.94234375 5.37109375 4.4921875 C7 6 7 6 8 8 C5 8 2 8 -1 8 C-1.125 2.25 -1.125 2.25 0 0 Z " fill="#8D705E" transform="translate(160,58)"/>
<path d="M0 0 C0 0.66 0 1.32 0 2 C1.32 2.33 2.64 2.66 4 3 C3.01 3.33 2.02 3.66 1 4 C0.67 4.66 0.34 5.32 0 6 C-0.99 5.34 -1.98 4.68 -3 4 C-3 4.66 -3 5.32 -3 6 C-3.99 6 -4.98 6 -6 6 C-6.33 4.35 -6.66 2.7 -7 1 C-4.50935112 0.31292445 -2.62113708 0 0 0 Z " fill="#94705E" transform="translate(135,48)"/>
<path d="M0 0 C2.62506802 -0.02690844 5.24986173 -0.04679404 7.875 -0.0625 C8.62136719 -0.07087891 9.36773437 -0.07925781 10.13671875 -0.08789062 C15.7734375 -0.11328125 15.7734375 -0.11328125 18 1 C18 1.66 18 2.32 18 3 C15.37405216 2.8863485 12.74988453 2.75960946 10.125 2.625 C9.37863281 2.5940625 8.63226563 2.563125 7.86328125 2.53125 C2.2265625 2.2265625 2.2265625 2.2265625 0 0 Z " fill="#805B48" transform="translate(104,42)"/>
<path d="M0 0 C3.64912517 3.33272703 5.8101397 7.20089679 7 12 C6.45382812 14.82875814 5.50064576 16.4810589 4 19 C3.67 19 3.34 19 3 19 C2.95101562 18.21496094 2.90203125 17.42992188 2.8515625 16.62109375 C2.4379964 10.80977697 1.88217852 5.521057 0 0 Z " fill="#897060" transform="translate(172,72)"/>
<path d="M0 0 C0.33 0.66 0.66 1.32 1 2 C1.99 2 2.98 2 4 2 C4.33 4.64 4.66 7.28 5 10 C4.01 10.33 3.02 10.66 2 11 C-0.67927341 6.98108988 -0.15601248 4.75838077 0 0 Z " fill="#A0735F" transform="translate(89,110)"/>
<path d="M0 0 C-0.66 2.64 -1.32 5.28 -2 8 C-3.32 7.67 -4.64 7.34 -6 7 C-6.33 5.68 -6.66 4.36 -7 3 C-2.25 0 -2.25 0 0 0 Z " fill="#9D7050" transform="translate(103,157)"/>
<path d="M0 0 C2 1 2 1 3.125 3.5 C4.1889199 7.7556796 4.17434209 11.64144777 4 16 C3.67 16 3.34 16 3 16 C2.71125 14.9275 2.4225 13.855 2.125 12.75 C1.2017313 9.18100741 1.2017313 9.18100741 -0.1875 6.875 C-1.2990395 4.30990885 -0.73200777 2.63522798 0 0 Z " fill="#5F4433" transform="translate(170,70)"/>
<path d="M0 0 C0.33 0.66 0.66 1.32 1 2 C0.06553465 4.03144641 -0.93224776 6.03533587 -2 8 C-3.32 7.34 -4.64 6.68 -6 6 C-5.67 4.35 -5.34 2.7 -5 1 C-3.35 0.67 -1.7 0.34 0 0 Z " fill="#B68965" transform="translate(163,142)"/>
<path d="M0 0 C1.48828125 1.08203125 1.48828125 1.08203125 3 3 C3.29296875 6.13671875 3.29296875 6.13671875 3.1875 9.6875 C3.14689453 11.45673828 3.14689453 11.45673828 3.10546875 13.26171875 C3.07066406 14.16535156 3.03585938 15.06898437 3 16 C2.67 16 2.34 16 2 16 C1.46748234 14.08654673 0.94940517 12.1690705 0.4375 10.25 C0.14746094 9.18265625 -0.14257812 8.1153125 -0.44140625 7.015625 C-0.97098494 4.15664073 -0.98370862 2.68402617 0 0 Z " fill="#B2866B" transform="translate(125,64)"/>
<path d="M0 0 C0.66 0.33 1.32 0.66 2 1 C1.67 1.99 1.34 2.98 1 4 C0.01 3.67 -0.98 3.34 -2 3 C-2.185625 3.61875 -2.37125 4.2375 -2.5625 4.875 C-4.71437233 8.05602866 -7.37533763 8.19451947 -11 9 C-7.56638098 5.36440339 -4.2026393 2.63886654 0 0 Z " fill="#907565" transform="translate(75,50)"/>
<path d="M0 0 C0.66 0 1.32 0 2 0 C4.41685712 4.22949995 5.34833144 7.12335991 5 12 C4.34 12 3.68 12 3 12 C2.49440092 10.56445975 1.9957251 9.1264798 1.5 7.6875 C1.2215625 6.88699219 0.943125 6.08648437 0.65625 5.26171875 C0 3 0 3 0 0 Z " fill="#9E745C" transform="translate(147,66)"/>
<path d="M0 0 C4.63714903 1.46436285 4.63714903 1.46436285 6.3125 3.9375 C7 6 7 6 7 9 C2.36285097 7.53563715 2.36285097 7.53563715 0.6875 5.0625 C0 3 0 3 0 0 Z " fill="#826759" transform="translate(145,48)"/>
<path d="M0 0 C2.97 0.495 2.97 0.495 6 1 C5.67 2.98 5.34 4.96 5 7 C2.03 6.505 2.03 6.505 -1 6 C-0.649375 5.38125 -0.29875 4.7625 0.0625 4.125 C0.371875 3.42375 0.68125 2.7225 1 2 C0.67 1.34 0.34 0.68 0 0 Z " fill="#573A2C" transform="translate(126,42)"/>
<path d="M0 0 C1.65 0.33 3.3 0.66 5 1 C4.67 3.31 4.34 5.62 4 8 C3.34 8 2.68 8 2 8 C2 7.01 2 6.02 2 5 C1.01 4.67 0.02 4.34 -1 4 C-0.67 2.68 -0.34 1.36 0 0 Z " fill="#A6794F" transform="translate(57,152)"/>
<path d="M0 0 C1.05706239 3.67984875 0.8792414 6.24324131 0 10 C-0.99 11.485 -0.99 11.485 -2 13 C-2.66 13 -3.32 13 -4 13 C-3.27991594 8.39146203 -1.68704061 4.32762591 0 0 Z " fill="#947864" transform="translate(47,80)"/>
<path d="M0 0 C1.5 1.375 1.5 1.375 3 3 C3 3.66 3 4.32 3 5 C2.01 5 1.02 5 0 5 C-0.33 6.32 -0.66 7.64 -1 9 C-1.99 8.01 -2.98 7.02 -4 6 C-2.68 4.02 -1.36 2.04 0 0 Z " fill="#95705D" transform="translate(54,69)"/>
<path d="M0 0 C1.8125 0.125 1.8125 0.125 4 1 C5.75 4.0625 5.75 4.0625 7 7 C5.02 6.34 3.04 5.68 1 5 C0.67 3.35 0.34 1.7 0 0 Z " fill="#623F2D" transform="translate(141,49)"/>
<path d="M0 0 C1.79068573 2.6860286 2.66055791 4.6626589 3.625 7.6875 C3.88539062 8.49574219 4.14578125 9.30398437 4.4140625 10.13671875 C4.60742188 10.75160156 4.80078125 11.36648437 5 12 C2.525 11.01 2.525 11.01 0 10 C0 6.7 0 3.4 0 0 Z " fill="#F8F0E0" transform="translate(43,134)"/>
<path d="M0 0 C1.32 0 2.64 0 4 0 C5.35439668 2.70879335 5.06501451 5.00933268 5 8 C3 7 1 6 -1 5 C-0.67 3.35 -0.34 1.7 0 0 Z " fill="#A88368" transform="translate(139,128)"/>
<path d="M0 0 C2 1 2 1 3.125 3.75 C3.91973395 6.70186896 4.17810598 8.97219837 4 12 C3.01 11.67 2.02 11.34 1 11 C0 3.375 0 3.375 0 0 Z " fill="#725B4C" transform="translate(178,84)"/>
<path d="M0 0 C-4.62197306 2.21854707 -7.76824163 3.38281159 -13 3 C-12.67 2.34 -12.34 1.68 -12 1 C-4.35711773 -1.38056989 -4.35711773 -1.38056989 0 0 Z " fill="#A28765" transform="translate(138,180)"/>
<path d="M0 0 C3.63 0.33 7.26 0.66 11 1 C10.67 1.99 10.34 2.98 10 4 C3.375 4.25 3.375 4.25 0 2 C0 1.34 0 0.68 0 0 Z " fill="#A67849" transform="translate(69,166)"/>
<path d="M0 0 C0.99 0.33 1.98 0.66 3 1 C2.34 2.65 1.68 4.3 1 6 C0.34 6 -0.32 6 -1 6 C-1 6.66 -1 7.32 -1 8 C-1.66 8 -2.32 8 -3 8 C-2.45276317 4.62537285 -1.9451 2.91765 0 0 Z " fill="#8D6148" transform="translate(97,136)"/>
<path d="M0 0 C0.33 0 0.66 0 1 0 C1.33 3.63 1.66 7.26 2 11 C1.01 11 0.02 11 -1 11 C-1.22174933 9.54364629 -1.42698698 8.08477044 -1.625 6.625 C-1.74101562 5.81289062 -1.85703125 5.00078125 -1.9765625 4.1640625 C-1.98429688 3.44992188 -1.99203125 2.73578125 -2 2 C-1.34 1.34 -0.68 0.68 0 0 Z " fill="#9F765F" transform="translate(167,77)"/>
<path d="M0 0 C0.33 0.66 0.66 1.32 1 2 C0.34 2 -0.32 2 -1 2 C-1.33 2.66 -1.66 3.32 -2 4 C-2 3.34 -2 2.68 -2 2 C-2.99 2 -3.98 2 -5 2 C-5 2.99 -5 3.98 -5 5 C-5.66 4.67 -6.32 4.34 -7 4 C-7 2.68 -7 1.36 -7 0 C-4.30234372 -1.34882814 -2.84835666 -0.80338265 0 0 Z " fill="#A77E67" transform="translate(162,67)"/>
<path d="M0 0 C0.33 1.32 0.66 2.64 1 4 C0.34 4 -0.32 4 -1 4 C-1.12375 4.78375 -1.2475 5.5675 -1.375 6.375 C-2 9 -2 9 -4 11 C-4.99 10.67 -5.98 10.34 -7 10 C-3.535 5.05 -3.535 5.05 0 0 Z " fill="#F5EAD8" transform="translate(175,148)"/>
<path d="M0 0 C1.65 0 3.3 0 5 0 C5.33 2.64 5.66 5.28 6 8 C5.01 7.67 4.02 7.34 3 7 C2.87625 6.030625 2.7525 5.06125 2.625 4.0625 C2.41875 3.051875 2.2125 2.04125 2 1 C1.34 0.67 0.68 0.34 0 0 Z " fill="#B4886F" transform="translate(96,118)"/>
<path d="M0 0 C2.475 0.99 2.475 0.99 5 2 C4.67 2.66 4.34 3.32 4 4 C3.01 3.67 2.02 3.34 1 3 C1 3.99 1 4.98 1 6 C-0.98 5.34 -2.96 4.68 -5 4 C-4.67 3.34 -4.34 2.68 -4 2 C-2.02 2.495 -2.02 2.495 0 3 C0 2.01 0 1.02 0 0 Z " fill="#664A3B" transform="translate(140,46)"/>
<path d="M0 0 C0 3 0 3 -1 6 C-3.0625 6.6875 -3.0625 6.6875 -5 7 C-5 5.35 -5 3.7 -5 2 C-3.35 1.34 -1.7 0.68 0 0 Z " fill="#996F48" transform="translate(181,127)"/>
<path d="M0 0 C0.66 0 1.32 0 2 0 C1.33333333 3.33333333 0.66666667 6.66666667 0 10 C-0.103125 9.360625 -0.20625 8.72125 -0.3125 8.0625 C-0.539375 7.381875 -0.76625 6.70125 -1 6 C-1.99 5.67 -2.98 5.34 -4 5 C-3.01 4.67 -2.02 4.34 -1 4 C-0.26676204 1.98491642 -0.26676204 1.98491642 0 0 Z " fill="#B5876E" transform="translate(77,78)"/>
<path d="M0 0 C1.9375 0.8125 1.9375 0.8125 4 2 C4.33 2.99 4.66 3.98 5 5 C2.6568787 4.74438677 0.32156597 4.40729228 -2 4 C-2.33 3.34 -2.66 2.68 -3 2 C-2.01 1.34 -1.02 0.68 0 0 Z " fill="#9E735A" transform="translate(115,61)"/>
<path d="M0 0 C3.465 1.485 3.465 1.485 7 3 C6.01 3.495 6.01 3.495 5 4 C5 4.66 5 5.32 5 6 C3.68 5.67 2.36 5.34 1 5 C0.67 3.35 0.34 1.7 0 0 Z " fill="#9C715E" transform="translate(145,55)"/>
<path d="M0 0 C0.33 0 0.66 0 1 0 C1 5.28 1 10.56 1 16 C0.67 16 0.34 16 0 16 C0 13.36 0 10.72 0 8 C-0.66 8 -1.32 8 -2 8 C-2 7.01 -2 6.02 -2 5 C-1.34 5 -0.68 5 0 5 C0 3.35 0 1.7 0 0 Z " fill="#9A8A7D" transform="translate(184,104)"/>
<path d="M0 0 C-0.33 0.99 -0.66 1.98 -1 3 C-1.66 3 -2.32 3 -3 3 C-2.67 4.32 -2.34 5.64 -2 7 C-2.99 7.495 -2.99 7.495 -4 8 C-4.66 7.34 -5.32 6.68 -6 6 C-5.625 3.375 -5.625 3.375 -5 1 C-2 0 -2 0 0 0 Z " fill="#7F523D" transform="translate(71,57)"/>
<path d="M0 0 C4.455 1.98 4.455 1.98 9 4 C8.67 4.66 8.34 5.32 8 6 C4.5625 4.6875 4.5625 4.6875 1 3 C0.67 2.01 0.34 1.02 0 0 Z " fill="#81553C" transform="translate(80,130)"/>
<path d="M0 0 C5.75 1.625 5.75 1.625 8 5 C7.01 5.33 6.02 5.66 5 6 C3.35 4.02 1.7 2.04 0 0 Z " fill="#B18F72" transform="translate(57,159)"/>
<path d="M0 0 C1.485 0.99 1.485 0.99 3 2 C2.67 3.65 2.34 5.3 2 7 C1.01 7 0.02 7 -1 7 C-0.67 4.69 -0.34 2.38 0 0 Z " fill="#9B7A5E" transform="translate(42,94)"/>
<path d="M0 0 C0.33 1.32 0.66 2.64 1 4 C0.67 3.34 0.34 2.68 0 2 C-0.99 2.33 -1.98 2.66 -3 3 C-3 2.34 -3 1.68 -3 1 C-2.01 0.67 -1.02 0.34 0 0 Z M-1 4 C-0.67 5.32 -0.34 6.64 0 8 C-0.99 8.33 -1.98 8.66 -3 9 C-2.125 5.125 -2.125 5.125 -1 4 Z " fill="#AD8367" transform="translate(63,71)"/>
<path d="M0 0 C0.99 0.33 1.98 0.66 3 1 C2.67 2.98 2.34 4.96 2 7 C1.01 7.33 0.02 7.66 -1 8 C-1.33 6.68 -1.66 5.36 -2 4 C-1.34 4 -0.68 4 0 4 C0 2.68 0 1.36 0 0 Z " fill="#906448" transform="translate(65,64)"/>
<path d="M0 0 C0.66 0 1.32 0 2 0 C3.60355101 3.50776784 4.22036864 6.14354879 4 10 C1.16625119 6.79663178 0.4794463 4.21912747 0 0 Z " fill="#A17762" transform="translate(140,56)"/>
<path d="M0 0 C3.45925163 1.2491742 6.14693203 2.67527795 9 5 C8.67 5.66 8.34 6.32 8 7 C6.66382648 6.02471263 5.3311249 5.04466681 4 4.0625 C3.2575 3.51722656 2.515 2.97195312 1.75 2.41015625 C1.1725 1.94480469 0.595 1.47945312 0 1 C0 0.67 0 0.34 0 0 Z " fill="#59433A" transform="translate(149,51)"/>
<path d="M0 0 C0.33 0.66 0.66 1.32 1 2 C-3.455 2.495 -3.455 2.495 -8 3 C-8.33 2.34 -8.66 1.68 -9 1 C-6.04335481 -0.4783226 -3.25770263 -0.06032783 0 0 Z " fill="#825F4D" transform="translate(159,126)"/>
<path d="M0 0 C2.64 0 5.28 0 8 0 C8 0.66 8 1.32 8 2 C2.25 3.125 2.25 3.125 0 2 C0 1.34 0 0.68 0 0 Z " fill="#BB9277" transform="translate(94,58)"/>
<path d="M0 0 C1.32 0.66 2.64 1.32 4 2 C0.04 3.98 0.04 3.98 -4 6 C-2 2 -2 2 0 0 Z " fill="#BC8C5F" transform="translate(147,168)"/>
<path d="M0 0 C0 0.99 0 1.98 0 3 C-1.98 3.99 -1.98 3.99 -4 5 C-4 5.99 -4 6.98 -4 8 C-4.66 8 -5.32 8 -6 8 C-4.73058503 4.08597051 -3.48832306 2.20927127 0 0 Z " fill="#BE9579" transform="translate(102,80)"/>
<path d="M0 0 C0.66 1.32 1.32 2.64 2 4 C0.02 4.99 0.02 4.99 -2 6 C-2.33 4.68 -2.66 3.36 -3 2 C-2.01 1.34 -1.02 0.68 0 0 Z " fill="#866253" transform="translate(79,48)"/>
<path d="M0 0 C2.97 0 5.94 0 9 0 C7.515 1.485 7.515 1.485 6 3 C4.02 2.34 2.04 1.68 0 1 C0 0.67 0 0.34 0 0 Z " fill="#946F5D" transform="translate(116,47)"/>
</svg>
